NotoSymbols2-NON-CONFLICT.sfdir
StartChar: two
Encoding: 50 50 72
Width: 1102
GlyphClass: 2
Flags: W
AnchorPoint: "Anchor-1" 551 715 basechar 0
LayerCount: 2
Fore
SplineSet
360 84 m 1,0,-1
 360 164 l 1,1,-1
 494 298 l 2,2,3
 543 347 543 347 578 387.5 c 128,-1,4
 613 428 613 428 613 474 c 0,5,6
 613 507 613 507 593.5 525.5 c 128,-1,7
 574 544 574 544 543 544 c 256,8,9
 512 544 512 544 483.5 530 c 128,-1,10
 455 516 455 516 422 487 c 1,11,-1
 359 562 l 1,12,13
 389 588 389 588 416.5 605.5 c 128,-1,14
 444 623 444 623 476 631.5 c 128,-1,15
 508 640 508 640 551 640 c 0,16,17
 635 640 635 640 682 596.5 c 128,-1,18
 729 553 729 553 729 488 c 0,19,20
 729 439 729 439 707.5 398.5 c 128,-1,21
 686 358 686 358 651 322 c 128,-1,22
 616 286 616 286 574 249 c 2,23,-1
 503 187 l 1,24,-1
 503 179 l 1,25,-1
 743 179 l 1,26,-1
 743 84 l 1,27,-1
 360 84 l 1,0,-1
EndSplineSet
EndChar
StartChar: four
Encoding: 52 52 74
Width: 1102
GlyphClass: 2
Flags: W
AnchorPoint: "Anchor-1" 551 715 basechar 0
LayerCount: 2
Fore
SplineSet
574 82 m 1,0,-1
 574 196 l 1,1,-1
 351 196 l 1,2,-1
 351 277 l 1,3,-1
 576 632 l 1,4,-1
 680 632 l 1,5,-1
 680 286 l 1,6,-1
 751 286 l 1,7,-1
 751 196 l 1,8,-1
 680 196 l 1,9,-1
 680 82 l 1,10,-1
 574 82 l 1,0,-1
453 286 m 1,11,-1
 574 286 l 1,12,-1
 574 379 l 2,13,14
 574 388 574 388 574.5 406 c 128,-1,15
 575 424 575 424 576 444 c 128,-1,16
 577 464 577 464 578 479 c 128,-1,17
 579 494 579 494 579 497 c 2,18,-1
 576 497 l 1,19,20
 569 481 569 481 561 467 c 128,-1,21
 553 453 553 453 543 437 c 2,22,-1
 453 286 l 1,11,-1
EndSplineSet
EndChar
StartChar: five
Encoding: 53 53 75
Width: 1102
GlyphClass: 2
Flags: W
AnchorPoint: "Anchor-1" 551 715 basechar 0
LayerCount: 2
Fore
SplineSet
514 74 m 0,0,1
 480 74 480 74 443 81.5 c 128,-1,2
 406 89 406 89 378 104 c 1,3,-1
 378 204 l 1,4,5
 411 187 411 187 447.5 178.5 c 128,-1,6
 484 170 484 170 516 170 c 0,7,8
 606 170 606 170 606 252 c 0,9,10
 606 302 606 302 578 321 c 128,-1,11
 550 340 550 340 515 340 c 0,12,13
 493 340 493 340 470.5 337 c 128,-1,14
 448 334 448 334 433 327 c 1,15,-1
 387 350 l 1,16,-1
 409 630 l 1,17,-1
 693 630 l 1,18,-1
 693 535 l 1,19,-1
 509 535 l 1,20,-1
 500 424 l 1,21,22
 518 428 518 428 533 429 c 128,-1,23
 548 430 548 430 559 430 c 0,24,25
 629 430 629 430 676 386 c 128,-1,26
 723 342 723 342 723 260 c 0,27,28
 723 198 723 198 695.5 156.5 c 128,-1,29
 668 115 668 115 620.5 94.5 c 128,-1,30
 573 74 573 74 514 74 c 0,0,1
EndSplineSet
EndChar
StartChar: uni21EC
Encoding: 8684 8684 114
Width: 662
Flags: W
LayerCount: 2
Fore
SplineSet
51 -117 m 1,0,-1
 51 30 l 1,1,-1
 204 30 l 1,2,-1
 204 403 l 1,3,-1
 51 403 l 1,4,-1
 331 683 l 1,5,-1
 611 403 l 1,6,-1
 458 403 l 1,7,-1
 458 30 l 1,8,-1
 611 30 l 1,9,-1
 611 -117 l 1,10,-1
 51 -117 l 1,0,-1
218 527 m 1,11,-1
 444 527 l 1,12,-1
 331 640 l 1,13,-1
 218 527 l 1,11,-1
81 -87 m 1,14,-1
 581 -87 l 1,15,-1
 581 0 l 1,16,-1
 428 0 l 1,17,-1
 428 433 l 1,18,-1
 538 433 l 1,19,-1
 474 497 l 1,20,-1
 188 497 l 1,21,-1
 124 433 l 1,22,-1
 234 433 l 1,23,-1
 234 0 l 1,24,-1
 81 0 l 1,25,-1
 81 -87 l 1,14,-1
EndSplineSet
EndChar
StartChar: uni21F0
Encoding: 8688 8688 118
Width: 902
Flags: W
LayerCount: 2
Fore
SplineSet
51 62 m 1,0,-1
 51 622 l 1,1,-1
 198 622 l 1,2,-1
 198 469 l 1,3,-1
 571 469 l 1,4,-1
 571 622 l 1,5,-1
 851 342 l 1,6,-1
 571 62 l 1,7,-1
 571 215 l 1,8,-1
 198 215 l 1,9,-1
 198 62 l 1,10,-1
 51 62 l 1,0,-1
81 92 m 1,11,-1
 168 92 l 1,12,-1
 168 245 l 1,13,-1
 601 245 l 1,14,-1
 601 135 l 1,15,-1
 808 342 l 1,16,-1
 601 549 l 1,17,-1
 601 439 l 1,18,-1
 168 439 l 1,19,-1
 168 592 l 1,20,-1
 81 592 l 1,21,-1
 81 92 l 1,11,-1
EndSplineSet
EndChar
StartChar: uni21F3
Encoding: 8691 8691 119
Width: 662
Flags: W
LayerCount: 2
Fore
SplineSet
331 -100 m 1,0,-1
 51 180 l 1,1,-1
 204 180 l 1,2,-1
 204 483 l 1,3,-1
 51 483 l 1,4,-1
 331 763 l 1,5,-1
 611 483 l 1,6,-1
 458 483 l 1,7,-1
 458 180 l 1,8,-1
 611 180 l 1,9,-1
 331 -100 l 1,0,-1
331 -57 m 1,10,-1
 538 150 l 1,11,-1
 428 150 l 1,12,-1
 428 513 l 1,13,-1
 538 513 l 1,14,-1
 331 720 l 1,15,-1
 124 513 l 1,16,-1
 234 513 l 1,17,-1
 234 150 l 1,18,-1
 124 150 l 1,19,-1
 331 -57 l 1,10,-1
EndSplineSet
EndChar
StartChar: uni22C6
Encoding: 8902 8902 1883
Width: 354
Flags: W
LayerCount: 2
Fore
SplineSet
95 250 m 1,0,-1
 126 344 l 1,1,-1
 51 395 l 1,2,-1
 144 395 l 1,3,-1
 177 495 l 1,4,-1
 210 395 l 1,5,-1
 303 395 l 1,6,-1
 228 344 l 1,7,-1
 259 250 l 1,8,-1
 177 309 l 1,9,-1
 95 250 l 1,0,-1
EndSplineSet
EndChar
StartChar: uni2316
Encoding: 8982 8982 1283
Width: 750
Flags: W
LayerCount: 2
Fore
SplineSet
11 342 m 1,0,-1
 11 367 l 1,1,-1
 143 367 l 1,2,3
 147 426 147 426 176.5 474.5 c 128,-1,4
 206 523 206 523 254.5 552.5 c 128,-1,5
 303 582 303 582 362 586 c 1,6,-1
 362 718 l 1,7,-1
 388 718 l 1,8,-1
 388 586 l 1,9,10
 447 582 447 582 495.5 552.5 c 128,-1,11
 544 523 544 523 573.5 474.5 c 128,-1,12
 603 426 603 426 607 367 c 1,13,-1
 739 367 l 1,14,-1
 739 342 l 1,15,-1
 607 342 l 1,16,17
 604 283 604 283 574 234.5 c 128,-1,18
 544 186 544 186 495.5 156 c 128,-1,19
 447 126 447 126 388 122 c 1,20,-1
 388 -9 l 1,21,-1
 362 -9 l 1,22,-1
 362 122 l 1,23,24
 303 126 303 126 254.5 156 c 128,-1,25
 206 186 206 186 176 234.5 c 128,-1,26
 146 283 146 283 143 342 c 1,27,-1
 11 342 l 1,0,-1
362 377 m 1,28,-1
 362 557 l 1,29,30
 311 553 311 553 269.5 527.5 c 128,-1,31
 228 502 228 502 202 460 c 128,-1,32
 176 418 176 418 172 367 c 1,33,-1
 352 367 l 1,34,-1
 352 342 l 1,35,-1
 172 342 l 1,36,37
 175 291 175 291 201 249 c 128,-1,38
 227 207 227 207 269 181 c 128,-1,39
 311 155 311 155 362 151 c 1,40,-1
 362 332 l 1,41,-1
 388 332 l 1,42,-1
 388 151 l 1,43,44
 439 155 439 155 481 181 c 128,-1,45
 523 207 523 207 549 249 c 128,-1,46
 575 291 575 291 578 342 c 1,47,-1
 398 342 l 1,48,-1
 398 367 l 1,49,-1
 578 367 l 1,50,51
 574 418 574 418 548 460 c 128,-1,52
 522 502 522 502 480.5 527.5 c 128,-1,53
 439 553 439 553 388 557 c 1,54,-1
 388 377 l 1,55,-1
 362 377 l 1,28,-1
EndSplineSet
EndChar
StartChar: uni2325
Encoding: 8997 8997 893
Width: 888
Flags: W
LayerCount: 2
Fore
SplineSet
590 129 m 1,0,-1
 271 466 l 1,1,-1
 51 466 l 1,2,-1
 51 537 l 1,3,-1
 298 537 l 1,4,-1
 617 200 l 1,5,-1
 837 200 l 1,6,-1
 837 129 l 1,7,-1
 590 129 l 1,0,-1
590 466 m 1,8,-1
 590 537 l 1,9,-1
 837 537 l 1,10,-1
 837 466 l 1,11,-1
 590 466 l 1,8,-1
EndSplineSet
EndChar
StartChar: uni2401
Encoding: 9217 9217 1124
Width: 600
Flags: W
LayerCount: 2
Fore
SplineSet
98 458 m 0,0,1
 56 458 56 458 29 471 c 1,2,-1
 29 504 l 1,3,4
 66 487 66 487 98 487 c 0,5,6
 145 487 145 487 145 521 c 0,7,8
 145 546 145 546 112 558 c 0,9,10
 78 570 78 570 55.5 587 c 128,-1,11
 33 604 33 604 33 635 c 256,12,13
 33 666 33 666 56 680 c 128,-1,14
 79 694 79 694 110 694 c 0,15,16
 145 694 145 694 178 680 c 1,17,-1
 167 652 l 1,18,19
 140 665 140 665 112 665 c 0,20,21
 94 665 94 665 82.5 657 c 128,-1,22
 71 649 71 649 71 635 c 0,23,24
 71 613 71 613 98 601 c 0,25,26
 116 593 116 593 136 583.5 c 128,-1,27
 156 574 156 574 170 560 c 128,-1,28
 184 546 184 546 184 524 c 0,29,30
 184 490 184 490 160 474 c 128,-1,31
 136 458 136 458 98 458 c 0,0,1
295 227 m 0,32,33
 204 227 204 227 204 347 c 0,34,35
 204 463 204 463 296 463 c 256,36,37
 388 463 388 463 388 347 c 0,38,39
 388 294 388 294 366 260.5 c 128,-1,40
 344 227 344 227 295 227 c 0,32,33
295 257 m 0,41,42
 347 257 347 257 347 347 c 0,43,44
 347 433 347 433 296 433 c 256,45,46
 245 433 245 433 245 347 c 0,47,48
 245 257 245 257 295 257 c 0,41,42
410 0 m 1,49,-1
 410 227 l 1,50,-1
 447 227 l 1,51,-1
 447 133 l 1,52,-1
 528 133 l 1,53,-1
 528 227 l 1,54,-1
 565 227 l 1,55,-1
 565 0 l 1,56,-1
 528 0 l 1,57,-1
 528 103 l 1,58,-1
 447 103 l 1,59,-1
 447 0 l 1,60,-1
 410 0 l 1,49,-1
EndSplineSet
EndChar
StartChar: uni2402
Encoding: 9218 9218 1125
Width: 600
Flags: W
LayerCount: 2
Fore
SplineSet
98 458 m 0,0,1
 56 458 56 458 29 471 c 1,2,-1
 29 504 l 1,3,4
 66 487 66 487 98 487 c 0,5,6
 145 487 145 487 145 521 c 0,7,8
 145 546 145 546 112 558 c 0,9,10
 78 570 78 570 55.5 587 c 128,-1,11
 33 604 33 604 33 635 c 256,12,13
 33 666 33 666 56 680 c 128,-1,14
 79 694 79 694 110 694 c 0,15,16
 145 694 145 694 178 680 c 1,17,-1
 167 652 l 1,18,19
 140 665 140 665 112 665 c 0,20,21
 94 665 94 665 82.5 657 c 128,-1,22
 71 649 71 649 71 635 c 0,23,24
 71 613 71 613 98 601 c 0,25,26
 116 593 116 593 136 583.5 c 128,-1,27
 156 574 156 574 170 560 c 128,-1,28
 184 546 184 546 184 524 c 0,29,30
 184 490 184 490 160 474 c 128,-1,31
 136 458 136 458 98 458 c 0,0,1
298 231 m 1,32,-1
 298 428 l 1,33,-1
 237 428 l 1,34,-1
 237 458 l 1,35,-1
 396 458 l 1,36,-1
 396 428 l 1,37,-1
 335 428 l 1,38,-1
 335 231 l 1,39,-1
 298 231 l 1,32,-1
399 0 m 1,40,-1
 469 117 l 1,41,-1
 403 227 l 1,42,-1
 443 227 l 1,43,-1
 491 145 l 1,44,-1
 539 227 l 1,45,-1
 576 227 l 1,46,-1
 511 118 l 1,47,-1
 582 0 l 1,48,-1
 542 0 l 1,49,-1
 489 90 l 1,50,-1
 437 0 l 1,51,-1
 399 0 l 1,40,-1
EndSplineSet
EndChar
StartChar: uni240D
Encoding: 9229 9229 500
Width: 600
Flags: W
LayerCount: 2
Fore
SplineSet
218 346 m 0,0,1
 160 346 160 346 132.5 378 c 128,-1,2
 105 410 105 410 105 464 c 0,3,4
 105 515 105 515 134 548.5 c 128,-1,5
 163 582 163 582 217 582 c 0,6,7
 247 582 247 582 277 568 c 1,8,-1
 265 539 l 1,9,10
 237 552 237 552 215 552 c 0,11,12
 179 552 179 552 162.5 525 c 128,-1,13
 146 498 146 498 146 464 c 0,14,15
 146 376 146 376 218 376 c 0,16,17
 246 376 246 376 267 386 c 1,18,-1
 267 354 l 1,19,20
 243 346 243 346 218 346 c 0,0,1
347 124 m 1,21,-1
 347 351 l 1,22,-1
 414 351 l 2,23,24
 455 351 455 351 479 337.5 c 128,-1,25
 503 324 503 324 503 285 c 0,26,27
 503 238 503 238 455 226 c 1,28,-1
 519 124 l 1,29,-1
 477 124 l 1,30,-1
 422 217 l 1,31,-1
 383 217 l 1,32,-1
 383 124 l 1,33,-1
 347 124 l 1,21,-1
383 246 m 1,34,-1
 414 246 l 2,35,36
 464 246 464 246 464 284 c 0,37,38
 464 307 464 307 450.5 314.5 c 128,-1,39
 437 322 437 322 412 322 c 2,40,-1
 383 322 l 1,41,-1
 383 246 l 1,34,-1
EndSplineSet
EndChar
StartChar: uni2413
Encoding: 9235 9235 516
Width: 600
Flags: W
LayerCount: 2
Fore
SplineSet
38 463 m 1,0,-1
 38 690 l 1,1,-1
 102 690 l 2,2,3
 205 690 205 690 205 578 c 0,4,5
 205 524 205 524 179 493.5 c 128,-1,6
 153 463 153 463 102 463 c 2,7,-1
 38 463 l 1,0,-1
75 493 m 1,8,-1
 95 493 l 2,9,10
 136 493 136 493 150 514 c 128,-1,11
 164 535 164 535 164 577 c 256,12,13
 164 619 164 619 148 639.5 c 128,-1,14
 132 660 132 660 92 660 c 2,15,-1
 75 660 l 1,16,-1
 75 493 l 1,8,-1
315 227 m 0,17,18
 261 227 261 227 235 259 c 128,-1,19
 209 291 209 291 209 345 c 0,20,21
 209 396 209 396 236.5 429.5 c 128,-1,22
 264 463 264 463 314 463 c 0,23,24
 349 463 349 463 370 448 c 1,25,-1
 358 421 l 1,26,27
 336 433 336 433 314 433 c 0,28,29
 280 433 280 433 265 406 c 128,-1,30
 250 379 250 379 250 345 c 0,31,32
 250 257 250 257 316 257 c 0,33,34
 342 257 342 257 361 266 c 1,35,-1
 361 236 l 1,36,37
 338 227 338 227 315 227 c 0,17,18
463 -5 m 0,38,39
 426 -5 426 -5 393 9 c 1,40,-1
 393 43 l 1,41,42
 429 25 429 25 463 25 c 0,43,44
 516 25 516 25 516 66 c 0,45,46
 516 103 516 103 458 103 c 2,47,-1
 428 103 l 1,48,-1
 428 132 l 1,49,-1
 458 132 l 2,50,51
 510 132 510 132 510 169 c 0,52,53
 510 201 510 201 472 201 c 0,54,55
 444 201 444 201 411 180 c 1,56,-1
 394 206 l 1,57,58
 432 231 432 231 472 231 c 0,59,60
 510 231 510 231 530 215 c 128,-1,61
 550 199 550 199 550 173 c 0,62,63
 550 131 550 131 505 119 c 1,64,65
 531 116 531 116 544 101 c 128,-1,66
 557 86 557 86 557 65 c 0,67,68
 557 34 557 34 533.5 14.5 c 128,-1,69
 510 -5 510 -5 463 -5 c 0,38,39
EndSplineSet
EndChar
StartChar: uni2416
Encoding: 9238 9238 1131
Width: 600
Flags: W
LayerCount: 2
Fore
SplineSet
98 458 m 0,0,1
 56 458 56 458 29 471 c 1,2,-1
 29 504 l 1,3,4
 66 487 66 487 98 487 c 0,5,6
 145 487 145 487 145 521 c 0,7,8
 145 546 145 546 112 558 c 0,9,10
 78 570 78 570 55.5 587 c 128,-1,11
 33 604 33 604 33 635 c 256,12,13
 33 666 33 666 56 680 c 128,-1,14
 79 694 79 694 110 694 c 0,15,16
 145 694 145 694 178 680 c 1,17,-1
 167 652 l 1,18,19
 140 665 140 665 112 665 c 0,20,21
 94 665 94 665 82.5 657 c 128,-1,22
 71 649 71 649 71 635 c 0,23,24
 71 613 71 613 98 601 c 0,25,26
 116 593 116 593 136 583.5 c 128,-1,27
 156 574 156 574 170 560 c 128,-1,28
 184 546 184 546 184 524 c 0,29,30
 184 490 184 490 160 474 c 128,-1,31
 136 458 136 458 98 458 c 0,0,1
293 231 m 1,32,-1
 293 322 l 1,33,-1
 223 458 l 1,34,-1
 261 458 l 1,35,-1
 313 352 l 1,36,-1
 363 458 l 1,37,-1
 401 458 l 1,38,-1
 331 323 l 1,39,-1
 331 231 l 1,40,-1
 293 231 l 1,32,-1
412 0 m 1,41,-1
 412 227 l 1,42,-1
 452 227 l 1,43,-1
 531 55 l 1,44,-1
 530 77 l 1,45,-1
 530 227 l 1,46,-1
 565 227 l 1,47,-1
 565 0 l 1,48,-1
 525 0 l 1,49,-1
 445 173 l 1,50,-1
 447 127 l 1,51,-1
 447 0 l 1,52,-1
 412 0 l 1,41,-1
EndSplineSet
EndChar
StartChar: uni2417
Encoding: 9239 9239 817
Width: 600
Flags: W
LayerCount: 2
Fore
SplineSet
41 463 m 1,0,-1
 41 690 l 1,1,-1
 181 690 l 1,2,-1
 181 660 l 1,3,-1
 78 660 l 1,4,-1
 78 596 l 1,5,-1
 175 596 l 1,6,-1
 175 566 l 1,7,-1
 78 566 l 1,8,-1
 78 493 l 1,9,-1
 181 493 l 1,10,-1
 181 463 l 1,11,-1
 41 463 l 1,0,-1
301 231 m 1,12,-1
 301 428 l 1,13,-1
 240 428 l 1,14,-1
 240 458 l 1,15,-1
 399 458 l 1,16,-1
 399 428 l 1,17,-1
 338 428 l 1,18,-1
 338 231 l 1,19,-1
 301 231 l 1,12,-1
415 0 m 1,20,-1
 415 227 l 1,21,-1
 476 227 l 2,22,23
 527 227 527 227 547 212.5 c 128,-1,24
 567 198 567 198 567 168 c 0,25,26
 567 150 567 150 554 137 c 128,-1,27
 541 124 541 124 523 119 c 1,28,29
 575 106 575 106 575 65 c 0,30,31
 575 30 575 30 550.5 15 c 128,-1,32
 526 0 526 0 491 0 c 2,33,-1
 415 0 l 1,20,-1
453 132 m 1,34,-1
 482 132 l 2,35,36
 508 132 508 132 517 140.5 c 128,-1,37
 526 149 526 149 526 166 c 0,38,39
 526 186 526 186 513.5 192 c 128,-1,40
 501 198 501 198 478 198 c 2,41,-1
 453 198 l 1,42,-1
 453 132 l 1,34,-1
453 29 m 1,43,-1
 486 29 l 2,44,45
 534 29 534 29 534 68 c 0,46,47
 534 103 534 103 484 103 c 2,48,-1
 453 103 l 1,49,-1
 453 29 l 1,43,-1
EndSplineSet
EndChar
StartChar: uni241B
Encoding: 9243 9243 820
Width: 600
Flags: W
LayerCount: 2
Fore
SplineSet
41 463 m 1,0,-1
 41 690 l 1,1,-1
 181 690 l 1,2,-1
 181 660 l 1,3,-1
 78 660 l 1,4,-1
 78 596 l 1,5,-1
 175 596 l 1,6,-1
 175 566 l 1,7,-1
 78 566 l 1,8,-1
 78 493 l 1,9,-1
 181 493 l 1,10,-1
 181 463 l 1,11,-1
 41 463 l 1,0,-1
302 227 m 0,12,13
 260 227 260 227 233 240 c 1,14,-1
 233 273 l 1,15,16
 270 256 270 256 302 256 c 0,17,18
 349 256 349 256 349 290 c 0,19,20
 349 314 349 314 316 327 c 256,21,22
 283 340 283 340 260 356 c 128,-1,23
 237 372 237 372 237 404 c 0,24,25
 237 435 237 435 260 449 c 128,-1,26
 283 463 283 463 314 463 c 0,27,28
 349 463 349 463 382 449 c 1,29,-1
 371 421 l 1,30,31
 344 434 344 434 316 434 c 0,32,33
 298 434 298 434 286.5 426 c 128,-1,34
 275 418 275 418 275 404 c 0,35,36
 275 382 275 382 302 370 c 0,37,38
 320 362 320 362 340 352.5 c 128,-1,39
 360 343 360 343 374 328.5 c 128,-1,40
 388 314 388 314 388 293 c 0,41,42
 388 259 388 259 364 243 c 128,-1,43
 340 227 340 227 302 227 c 0,12,13
517 -5 m 0,44,45
 463 -5 463 -5 437 27 c 128,-1,46
 411 59 411 59 411 113 c 0,47,48
 411 164 411 164 438.5 197.5 c 128,-1,49
 466 231 466 231 516 231 c 0,50,51
 551 231 551 231 572 216 c 1,52,-1
 560 189 l 1,53,54
 538 201 538 201 516 201 c 0,55,56
 482 201 482 201 467 174 c 128,-1,57
 452 147 452 147 452 113 c 0,58,59
 452 25 452 25 518 25 c 0,60,61
 544 25 544 25 563 34 c 1,62,-1
 563 4 l 1,63,64
 540 -5 540 -5 517 -5 c 0,44,45
EndSplineSet
EndChar
StartChar: uni241D
Encoding: 9245 9245 838
Width: 600
Flags: W
LayerCount: 2
Fore
SplineSet
219 346 m 0,0,1
 164 346 164 346 134.5 377.5 c 128,-1,2
 105 409 105 409 105 464 c 0,3,4
 105 518 105 518 137 550 c 128,-1,5
 169 582 169 582 223 582 c 0,6,7
 254 582 254 582 285 568 c 1,8,-1
 273 537 l 1,9,10
 248 552 248 552 221 552 c 0,11,12
 185 552 185 552 165.5 528.5 c 128,-1,13
 146 505 146 505 146 464 c 0,14,15
 146 376 146 376 220 376 c 0,16,17
 227 376 227 376 235.5 377 c 128,-1,18
 244 378 244 378 254 381 c 1,19,-1
 254 444 l 1,20,-1
 207 444 l 1,21,-1
 207 474 l 1,22,-1
 288 474 l 1,23,-1
 288 358 l 1,24,25
 256 346 256 346 219 346 c 0,0,1
394 119 m 0,26,27
 374 119 374 119 356.5 122.5 c 128,-1,28
 339 126 339 126 325 132 c 1,29,-1
 325 165 l 1,30,31
 362 148 362 148 394 148 c 0,32,33
 441 148 441 148 441 182 c 0,34,35
 441 206 441 206 408 219 c 256,36,37
 375 232 375 232 352 248 c 128,-1,38
 329 264 329 264 329 296 c 0,39,40
 329 327 329 327 352 341 c 128,-1,41
 375 355 375 355 406 355 c 0,42,43
 441 355 441 355 474 341 c 1,44,-1
 463 313 l 1,45,46
 436 326 436 326 408 326 c 0,47,48
 390 326 390 326 378.5 318 c 128,-1,49
 367 310 367 310 367 296 c 0,50,51
 367 275 367 275 393 263 c 0,52,53
 410 255 410 255 430.5 245 c 128,-1,54
 451 235 451 235 465.5 220.5 c 128,-1,55
 480 206 480 206 480 185 c 0,56,57
 480 151 480 151 456 135 c 128,-1,58
 432 119 432 119 394 119 c 0,26,27
EndSplineSet
EndChar
StartChar: uni2420
Encoding: 9248 9248 1120
Width: 600
Flags: W
LayerCount: 2
Fore
SplineSet
185 346 m 0,0,1
 165 346 165 346 147.5 349.5 c 128,-1,2
 130 353 130 353 116 359 c 1,3,-1
 116 392 l 1,4,5
 153 375 153 375 185 375 c 0,6,7
 232 375 232 375 232 409 c 0,8,9
 232 432 232 432 197 446 c 256,10,11
 162 460 162 460 141 476 c 128,-1,12
 120 492 120 492 120 523 c 256,13,14
 120 554 120 554 143 568 c 128,-1,15
 166 582 166 582 197 582 c 0,16,17
 232 582 232 582 265 568 c 1,18,-1
 254 540 l 1,19,20
 227 553 227 553 199 553 c 0,21,22
 181 553 181 553 169.5 545 c 128,-1,23
 158 537 158 537 158 523 c 0,24,25
 158 501 158 501 186 489 c 0,26,27
 204 481 204 481 224 471.5 c 128,-1,28
 244 462 244 462 257.5 448 c 128,-1,29
 271 434 271 434 271 412 c 0,30,31
 271 378 271 378 247 362 c 128,-1,32
 223 346 223 346 185 346 c 0,0,1
344 119 m 1,33,-1
 344 346 l 1,34,-1
 411 346 l 2,35,36
 500 346 500 346 500 278 c 0,37,38
 500 206 500 206 405 206 c 2,39,-1
 384 206 l 1,40,-1
 384 119 l 1,41,-1
 344 119 l 1,33,-1
384 235 m 1,42,-1
 402 235 l 2,43,44
 461 235 461 235 461 277 c 0,45,46
 461 316 461 316 408 316 c 2,47,-1
 384 316 l 1,48,-1
 384 235 l 1,42,-1
EndSplineSet
EndChar
StartChar: uni2421
Encoding: 9249 9249 511
Width: 600
Flags: W
LayerCount: 2
Fore
SplineSet
35 463 m 1,0,-1
 35 690 l 1,1,-1
 99 690 l 2,2,3
 202 690 202 690 202 578 c 0,4,5
 202 524 202 524 176 493.5 c 128,-1,6
 150 463 150 463 99 463 c 2,7,-1
 35 463 l 1,0,-1
72 493 m 1,8,-1
 92 493 l 2,9,10
 132 493 132 493 146.5 514 c 128,-1,11
 161 535 161 535 161 577 c 256,12,13
 161 619 161 619 145.5 639.5 c 128,-1,14
 130 660 130 660 89 660 c 2,15,-1
 72 660 l 1,16,-1
 72 493 l 1,8,-1
232 231 m 1,17,-1
 232 458 l 1,18,-1
 372 458 l 1,19,-1
 372 428 l 1,20,-1
 269 428 l 1,21,-1
 269 364 l 1,22,-1
 366 364 l 1,23,-1
 366 334 l 1,24,-1
 269 334 l 1,25,-1
 269 261 l 1,26,-1
 372 261 l 1,27,-1
 372 231 l 1,28,-1
 232 231 l 1,17,-1
436 0 m 1,29,-1
 436 227 l 1,30,-1
 473 227 l 1,31,-1
 473 30 l 1,32,-1
 570 30 l 1,33,-1
 570 0 l 1,34,-1
 436 0 l 1,29,-1
EndSplineSet
EndChar
StartChar: uni2422
Encoding: 9250 9250 484
Width: 662
Flags: W
LayerCount: 2
Fore
SplineSet
390 -10 m 0,0,1
 280 -10 280 -10 224 68 c 1,2,-1
 217 68 l 1,3,-1
 199 0 l 1,4,-1
 136 0 l 1,5,-1
 136 554 l 1,6,-1
 75 531 l 1,7,-1
 51 590 l 1,8,-1
 136 622 l 1,9,-1
 136 760 l 1,10,-1
 224 760 l 1,11,-1
 224 656 l 1,12,-1
 373 714 l 1,13,-1
 397 656 l 1,14,-1
 224 588 l 1,15,-1
 224 575 l 2,16,17
 224 541 224 541 222.5 514 c 128,-1,18
 221 487 221 487 219 465 c 1,19,-1
 224 465 l 1,20,21
 278 545 278 545 390 545 c 0,22,23
 490 545 490 545 550.5 475.5 c 128,-1,24
 611 406 611 406 611 268 c 0,25,26
 611 138 611 138 552.5 64 c 128,-1,27
 494 -10 494 -10 390 -10 c 0,0,1
377 63 m 0,28,29
 520 63 520 63 520 269 c 0,30,31
 520 472 520 472 375 472 c 0,32,33
 294 472 294 472 259 426.5 c 128,-1,34
 224 381 224 381 224 269 c 256,35,36
 224 157 224 157 260.5 110 c 128,-1,37
 297 63 297 63 377 63 c 0,28,29
EndSplineSet
EndChar
StartChar: uni2423
Encoding: 9251 9251 482
Width: 695
Flags: W
LayerCount: 2
Fore
SplineSet
51 -209 m 1,0,-1
 51 0 l 1,1,-1
 123 0 l 1,2,-1
 123 -138 l 1,3,-1
 572 -138 l 1,4,-1
 572 0 l 1,5,-1
 644 0 l 1,6,-1
 644 -209 l 1,7,-1
 51 -209 l 1,0,-1
EndSplineSet
EndChar
StartChar: uni2426
Encoding: 9254 9254 1128
Width: 498
Flags: W
LayerCount: 2
Fore
SplineSet
249 201 m 1,0,-1
 249 218 l 2,1,2
 249 252 249 252 240 275.5 c 128,-1,3
 231 299 231 299 210 321.5 c 128,-1,4
 189 344 189 344 152 373 c 0,5,6
 96 417 96 417 73.5 457 c 128,-1,7
 51 497 51 497 51 549 c 0,8,9
 51 630 51 630 102.5 677 c 128,-1,10
 154 724 154 724 250 724 c 0,11,12
 355 724 355 724 447 675 c 1,13,-1
 416 605 l 1,14,15
 330 647 330 647 256 647 c 0,16,17
 197 647 197 647 166 621 c 128,-1,18
 135 595 135 595 135 547 c 0,19,20
 135 522 135 522 142.5 501 c 128,-1,21
 150 480 150 480 169.5 458 c 128,-1,22
 189 436 189 436 225 406 c 256,23,24
 261 376 261 376 281.5 351 c 128,-1,25
 302 326 302 326 310.5 297.5 c 128,-1,26
 319 269 319 269 319 228 c 2,27,-1
 319 201 l 1,28,-1
 249 201 l 1,0,-1
280 -14 m 0,29,30
 255 -14 255 -14 237 2 c 128,-1,31
 219 18 219 18 219 54 c 0,32,33
 219 121 219 121 280 121 c 0,34,35
 342 121 342 121 342 54 c 0,36,37
 342 -14 342 -14 280 -14 c 0,29,30
EndSplineSet
EndChar
StartChar: uni2446
Encoding: 9286 9286 1001
Width: 500
Flags: W
LayerCount: 2
Fore
SplineSet
325 320 m 2,0,1
 293 320 293 320 280.5 328.5 c 128,-1,2
 268 337 268 337 268 364 c 2,3,-1
 268 453 l 2,4,5
 268 480 268 480 280.5 488.5 c 128,-1,6
 293 497 293 497 325 497 c 2,7,-1
 379 497 l 2,8,9
 414 497 414 497 426 488 c 128,-1,10
 438 479 438 479 438 453 c 2,11,-1
 438 364 l 2,12,13
 438 338 438 338 426 329 c 128,-1,14
 414 320 414 320 379 320 c 2,15,-1
 325 320 l 2,0,1
117 83 m 0,16,17
 86 83 86 83 69 92.5 c 128,-1,18
 52 102 52 102 52 130 c 2,19,-1
 52 376 l 2,20,21
 52 403 52 403 69 412 c 128,-1,22
 86 421 86 421 117 421 c 0,23,24
 153 421 153 421 168 411.5 c 128,-1,25
 183 402 183 402 183 376 c 2,26,-1
 183 130 l 2,27,28
 183 102 183 102 167.5 92.5 c 128,-1,29
 152 83 152 83 117 83 c 0,16,17
325 5 m 2,30,31
 293 5 293 5 280.5 13.5 c 128,-1,32
 268 22 268 22 268 49 c 2,33,-1
 268 136 l 2,34,35
 268 164 268 164 280.5 173 c 128,-1,36
 293 182 293 182 325 182 c 2,37,-1
 379 182 l 2,38,39
 414 182 414 182 426 172.5 c 128,-1,40
 438 163 438 163 438 136 c 2,41,-1
 438 49 l 2,42,43
 438 23 438 23 426 14 c 128,-1,44
 414 5 414 5 379 5 c 2,45,-1
 325 5 l 2,30,31
EndSplineSet
EndChar
StartChar: uni2447
Encoding: 9287 9287 998
Width: 500
Flags: W
LayerCount: 2
Fore
SplineSet
401 396 m 0,0,1
 371 396 371 396 354 405 c 128,-1,2
 337 414 337 414 337 442 c 2,3,-1
 337 601 l 2,4,5
 337 627 337 627 354 636 c 128,-1,6
 371 645 371 645 401 645 c 0,7,8
 435 645 435 645 451.5 636 c 128,-1,9
 468 627 468 627 468 601 c 2,10,-1
 468 442 l 2,11,12
 468 414 468 414 451.5 405 c 128,-1,13
 435 396 435 396 401 396 c 0,0,1
250 285 m 0,14,15
 230 285 230 285 220 293 c 128,-1,16
 210 301 210 301 210 329 c 2,17,-1
 210 488 l 2,18,19
 210 513 210 513 220 521 c 128,-1,20
 230 529 230 529 250 529 c 0,21,22
 275 529 275 529 282.5 521 c 128,-1,23
 290 513 290 513 290 488 c 2,24,-1
 290 329 l 2,25,26
 290 301 290 301 281 293 c 128,-1,27
 272 285 272 285 250 285 c 0,14,15
97 125 m 0,28,29
 66 125 66 125 49 134 c 128,-1,30
 32 143 32 143 32 169 c 2,31,-1
 32 328 l 2,32,33
 32 356 32 356 49 364.5 c 128,-1,34
 66 373 66 373 97 373 c 0,35,36
 130 373 130 373 146.5 364.5 c 128,-1,37
 163 356 163 356 163 328 c 2,38,-1
 163 169 l 2,39,40
 163 143 163 143 146.5 134 c 128,-1,41
 130 125 130 125 97 125 c 0,28,29
EndSplineSet
EndChar
StartChar: uni25A4
Encoding: 9636 9636 219
Width: 834
Flags: W
LayerCount: 2
Fore
SplineSet
51 -4 m 1,0,-1
 51 728 l 1,1,-1
 783 728 l 1,2,-1
 783 -4 l 1,3,-1
 51 -4 l 1,0,-1
96 557 m 1,4,-1
 738 557 l 1,5,-1
 738 683 l 1,6,-1
 96 683 l 1,7,-1
 96 557 l 1,4,-1
96 385 m 1,8,-1
 738 385 l 1,9,-1
 738 511 l 1,10,-1
 96 511 l 1,11,-1
 96 385 l 1,8,-1
96 214 m 1,12,-1
 738 214 l 1,13,-1
 738 340 l 1,14,-1
 96 340 l 1,15,-1
 96 214 l 1,12,-1
96 41 m 1,16,-1
 738 41 l 1,17,-1
 738 169 l 1,18,-1
 96 169 l 1,19,-1
 96 41 l 1,16,-1
EndSplineSet
EndChar
StartChar: uni25B0
Encoding: 9648 9648 208
Width: 1000
Flags: W
LayerCount: 2
Fore
SplineSet
3 63 m 1,0,-1
 67 364 l 1,1,-1
 997 364 l 1,2,-1
 933 63 l 1,3,-1
 3 63 l 1,0,-1
EndSplineSet
EndChar
StartChar: triagup
Encoding: 9650 9650 238
Width: 907
Flags: W
LayerCount: 2
Fore
SplineSet
51 0 m 1,0,-1
 454 697 l 1,1,-1
 856 0 l 1,2,-1
 51 0 l 1,0,-1
EndSplineSet
EndChar
StartChar: uni25BF
Encoding: 9663 9663 259
Width: 370
Flags: W
LayerCount: 2
Fore
SplineSet
185 174 m 1,0,-1
 36 471 l 1,1,-1
 333 471 l 1,2,-1
 185 174 l 1,0,-1
185 254 m 1,3,-1
 272 434 l 1,4,-1
 97 434 l 1,5,-1
 185 254 l 1,3,-1
EndSplineSet
EndChar
StartChar: uni25C0
Encoding: 9664 9664 241
Width: 799
Flags: W
LayerCount: 2
Fore
SplineSet
748 -54 m 1,0,-1
 51 349 l 1,1,-1
 748 751 l 1,2,-1
 748 -54 l 1,0,-1
EndSplineSet
EndChar
StartChar: uni25C5
Encoding: 9669 9669 252
Width: 733
Flags: W
LayerCount: 2
Fore
SplineSet
682 158 m 1,0,-1
 51 322 l 1,1,-1
 682 487 l 1,2,-1
 682 158 l 1,0,-1
645 205 m 1,3,-1
 645 440 l 1,4,-1
 182 322 l 1,5,-1
 645 205 l 1,3,-1
EndSplineSet
EndChar
StartChar: uni25C7
Encoding: 9671 9671 201
Width: 1109
Flags: W
LayerCount: 2
Fore
SplineSet
555 -141 m 1,0,-1
 51 362 l 1,1,-1
 555 866 l 1,2,-1
 1058 362 l 1,3,-1
 555 -141 l 1,0,-1
555 -50 m 1,4,-1
 967 362 l 1,5,-1
 555 775 l 1,6,-1
 143 362 l 1,7,-1
 555 -50 l 1,4,-1
EndSplineSet
EndChar
StartChar: circle
Encoding: 9675 9675 171
Width: 894
Flags: W
LayerCount: 2
Fore
SplineSet
447 -34 m 256,0,1
 364 -34 364 -34 292.5 -3.5 c 128,-1,2
 221 27 221 27 166.5 81.5 c 128,-1,3
 112 136 112 136 81.5 208 c 128,-1,4
 51 280 51 280 51 362 c 256,5,6
 51 444 51 444 81.5 516 c 128,-1,7
 112 588 112 588 166.5 642.5 c 128,-1,8
 221 697 221 697 292.5 727.5 c 128,-1,9
 364 758 364 758 447 758 c 256,10,11
 530 758 530 758 601.5 727.5 c 128,-1,12
 673 697 673 697 727.5 642.5 c 128,-1,13
 782 588 782 588 812.5 516 c 128,-1,14
 843 444 843 444 843 362 c 256,15,16
 843 280 843 280 812.5 208 c 128,-1,17
 782 136 782 136 727.5 81.5 c 128,-1,18
 673 27 673 27 601.5 -3.5 c 128,-1,19
 530 -34 530 -34 447 -34 c 256,0,1
447 8 m 256,20,21
 521 8 521 8 585 35.5 c 128,-1,22
 649 63 649 63 697.5 111.5 c 128,-1,23
 746 160 746 160 773.5 224 c 128,-1,24
 801 288 801 288 801 362 c 256,25,26
 801 436 801 436 773.5 500 c 128,-1,27
 746 564 746 564 697.5 612.5 c 128,-1,28
 649 661 649 661 585 688.5 c 128,-1,29
 521 716 521 716 447 716 c 256,30,31
 373 716 373 716 309 688.5 c 128,-1,32
 245 661 245 661 196.5 612.5 c 128,-1,33
 148 564 148 564 120.5 500 c 128,-1,34
 93 436 93 436 93 362 c 256,35,36
 93 288 93 288 120.5 224 c 128,-1,37
 148 160 148 160 196.5 111.5 c 128,-1,38
 245 63 245 63 309 35.5 c 128,-1,39
 373 8 373 8 447 8 c 256,20,21
EndSplineSet
EndChar
StartChar: uni25CD
Encoding: 9677 9677 185
Width: 894
Flags: W
LayerCount: 2
Fore
SplineSet
445 -34 m 0,0,1
 360 -34 360 -34 288 -4.5 c 128,-1,2
 216 25 216 25 163 78.5 c 128,-1,3
 110 132 110 132 80.5 204 c 128,-1,4
 51 276 51 276 51 361 c 0,5,6
 51 447 51 447 81 519.5 c 128,-1,7
 111 592 111 592 164.5 645.5 c 128,-1,8
 218 699 218 699 290 728.5 c 128,-1,9
 362 758 362 758 445 758 c 0,10,11
 530 758 530 758 602.5 728 c 128,-1,12
 675 698 675 698 729 644 c 128,-1,13
 783 590 783 590 813 517.5 c 128,-1,14
 843 445 843 445 843 361 c 0,15,16
 843 278 843 278 813.5 206 c 128,-1,17
 784 134 784 134 730.5 80 c 128,-1,18
 677 26 677 26 604.5 -4 c 128,-1,19
 532 -34 532 -34 445 -34 c 0,0,1
415 43 m 1,20,-1
 415 681 l 1,21,-1
 357 670 l 1,22,-1
 357 52 l 1,23,-1
 415 43 l 1,20,-1
476 43 m 1,24,-1
 534 52 l 1,25,-1
 534 670 l 1,26,-1
 476 681 l 1,27,-1
 476 43 l 1,24,-1
296 77 m 1,28,-1
 296 647 l 1,29,30
 265 630 265 630 239 607 c 1,31,-1
 239 115 l 1,32,33
 253 106 253 106 267.5 96.5 c 128,-1,34
 282 87 282 87 296 77 c 1,28,-1
594 76 m 1,35,-1
 652 115 l 1,36,-1
 652 609 l 1,37,-1
 594 647 l 1,38,-1
 594 76 l 1,35,-1
714 182 m 1,39,40
 767 259 767 259 767 361 c 0,41,42
 767 458 767 458 714 540 c 1,43,-1
 714 182 l 1,39,40
179 182 m 1,44,-1
 179 539 l 1,45,46
 128 461 128 461 128 361 c 0,47,48
 128 312 128 312 140.5 267 c 128,-1,49
 153 222 153 222 179 182 c 1,44,-1
EndSplineSet
EndChar
StartChar: uni25CE
Encoding: 9678 9678 188
Width: 894
Flags: W
LayerCount: 2
Fore
SplineSet
447 -34 m 256,0,1
 365 -34 365 -34 293.5 -3.5 c 128,-1,2
 222 27 222 27 167.5 81.5 c 128,-1,3
 113 136 113 136 82 208 c 128,-1,4
 51 280 51 280 51 362 c 256,5,6
 51 444 51 444 82 516 c 128,-1,7
 113 588 113 588 167.5 642.5 c 128,-1,8
 222 697 222 697 293.5 727.5 c 128,-1,9
 365 758 365 758 447 758 c 256,10,11
 529 758 529 758 601 727.5 c 128,-1,12
 673 697 673 697 727.5 642.5 c 128,-1,13
 782 588 782 588 812.5 516 c 128,-1,14
 843 444 843 444 843 362 c 256,15,16
 843 280 843 280 812.5 208 c 128,-1,17
 782 136 782 136 727.5 81.5 c 128,-1,18
 673 27 673 27 601 -3.5 c 128,-1,19
 529 -34 529 -34 447 -34 c 256,0,1
447 35 m 256,20,21
 515 35 515 35 574 60.5 c 128,-1,22
 633 86 633 86 678 131 c 128,-1,23
 723 176 723 176 748.5 235 c 128,-1,24
 774 294 774 294 774 362 c 256,25,26
 774 430 774 430 748.5 489 c 128,-1,27
 723 548 723 548 678 593 c 128,-1,28
 633 638 633 638 574 663.5 c 128,-1,29
 515 689 515 689 447 689 c 256,30,31
 379 689 379 689 320 663.5 c 128,-1,32
 261 638 261 638 216 593 c 128,-1,33
 171 548 171 548 145.5 489 c 128,-1,34
 120 430 120 430 120 362 c 256,35,36
 120 294 120 294 145.5 235 c 128,-1,37
 171 176 171 176 216 131 c 128,-1,38
 261 86 261 86 320 60.5 c 128,-1,39
 379 35 379 35 447 35 c 256,20,21
447 83 m 256,40,41
 389 83 389 83 338.5 104.5 c 128,-1,42
 288 126 288 126 249.5 164.5 c 128,-1,43
 211 203 211 203 189.5 253.5 c 128,-1,44
 168 304 168 304 168 362 c 256,45,46
 168 420 168 420 189.5 470.5 c 128,-1,47
 211 521 211 521 249.5 559.5 c 128,-1,48
 288 598 288 598 338.5 619.5 c 128,-1,49
 389 641 389 641 447 641 c 256,50,51
 505 641 505 641 556 619.5 c 128,-1,52
 607 598 607 598 645.5 559.5 c 128,-1,53
 684 521 684 521 705.5 470.5 c 128,-1,54
 727 420 727 420 727 362 c 256,55,56
 727 304 727 304 705.5 253.5 c 128,-1,57
 684 203 684 203 645.5 164.5 c 128,-1,58
 607 126 607 126 556 104.5 c 128,-1,59
 505 83 505 83 447 83 c 256,40,41
447 152 m 256,60,61
 506 152 506 152 553.5 180 c 128,-1,62
 601 208 601 208 629.5 256 c 128,-1,63
 658 304 658 304 658 362 c 256,64,65
 658 420 658 420 629.5 468 c 128,-1,66
 601 516 601 516 553.5 544 c 128,-1,67
 506 572 506 572 447 572 c 256,68,69
 388 572 388 572 340.5 544 c 128,-1,70
 293 516 293 516 265 468 c 128,-1,71
 237 420 237 420 237 362 c 256,72,73
 237 304 237 304 265 256 c 128,-1,74
 293 208 293 208 340.5 180 c 128,-1,75
 388 152 388 152 447 152 c 256,60,61
EndSplineSet
EndChar
StartChar: invcircle
Encoding: 9689 9689 191
Width: 894
Flags: W
LayerCount: 2
Fore
SplineSet
51 -34 m 1,0,-1
 51 758 l 1,1,-1
 843 758 l 1,2,-1
 843 -34 l 1,3,-1
 51 -34 l 1,0,-1
447 17 m 256,4,5
 519 17 519 17 581.5 43.5 c 128,-1,6
 644 70 644 70 691.5 117.5 c 128,-1,7
 739 165 739 165 765.5 227.5 c 128,-1,8
 792 290 792 290 792 362 c 256,9,10
 792 434 792 434 765.5 496.5 c 128,-1,11
 739 559 739 559 691.5 606.5 c 128,-1,12
 644 654 644 654 581.5 680.5 c 128,-1,13
 519 707 519 707 447 707 c 256,14,15
 375 707 375 707 312.5 680.5 c 128,-1,16
 250 654 250 654 202.5 606.5 c 128,-1,17
 155 559 155 559 128.5 496.5 c 128,-1,18
 102 434 102 434 102 362 c 256,19,20
 102 290 102 290 128.5 227.5 c 128,-1,21
 155 165 155 165 202.5 117.5 c 128,-1,22
 250 70 250 70 312.5 43.5 c 128,-1,23
 375 17 375 17 447 17 c 256,4,5
447 73 m 256,24,25
 387 73 387 73 334.5 95.5 c 128,-1,26
 282 118 282 118 242.5 157.5 c 128,-1,27
 203 197 203 197 180.5 249.5 c 128,-1,28
 158 302 158 302 158 362 c 256,29,30
 158 422 158 422 180.5 474.5 c 128,-1,31
 203 527 203 527 242.5 566.5 c 128,-1,32
 282 606 282 606 334.5 628.5 c 128,-1,33
 387 651 387 651 447 651 c 256,34,35
 507 651 507 651 559.5 628.5 c 128,-1,36
 612 606 612 606 651.5 566.5 c 128,-1,37
 691 527 691 527 713.5 474.5 c 128,-1,38
 736 422 736 422 736 362 c 256,39,40
 736 302 736 302 713.5 249.5 c 128,-1,41
 691 197 691 197 651.5 157.5 c 128,-1,42
 612 118 612 118 559.5 95.5 c 128,-1,43
 507 73 507 73 447 73 c 256,24,25
EndSplineSet
EndChar
StartChar: uni25DD
Encoding: 9693 9693 197
Width: 894
Flags: W
LayerCount: 2
Fore
SplineSet
801 362 m 1,0,1
 801 436 801 436 773.5 500 c 128,-1,2
 746 564 746 564 697.5 612.5 c 128,-1,3
 649 661 649 661 585 688.5 c 128,-1,4
 521 716 521 716 447 716 c 1,5,-1
 447 758 l 1,6,7
 530 758 530 758 601.5 727.5 c 128,-1,8
 673 697 673 697 727.5 642.5 c 128,-1,9
 782 588 782 588 812.5 516 c 128,-1,10
 843 444 843 444 843 362 c 1,11,-1
 801 362 l 1,0,1
EndSplineSet
EndChar
StartChar: uni25E0
Encoding: 9696 9696 194
Width: 894
Flags: W
LayerCount: 2
Fore
SplineSet
51 362 m 1,0,1
 51 444 51 444 81.5 516 c 128,-1,2
 112 588 112 588 166.5 642.5 c 128,-1,3
 221 697 221 697 292.5 727.5 c 128,-1,4
 364 758 364 758 447 758 c 256,5,6
 530 758 530 758 601.5 727.5 c 128,-1,7
 673 697 673 697 727.5 642.5 c 128,-1,8
 782 588 782 588 812.5 516 c 128,-1,9
 843 444 843 444 843 362 c 1,10,-1
 801 362 l 1,11,12
 801 436 801 436 773.5 500 c 128,-1,13
 746 564 746 564 697.5 612.5 c 128,-1,14
 649 661 649 661 585 688.5 c 128,-1,15
 521 716 521 716 447 716 c 256,16,17
 373 716 373 716 309 688.5 c 128,-1,18
 245 661 245 661 196.5 612.5 c 128,-1,19
 148 564 148 564 120.5 500 c 128,-1,20
 93 436 93 436 93 362 c 1,21,-1
 51 362 l 1,0,1
EndSplineSet
EndChar
StartChar: uni25E2
Encoding: 9698 9698 262
Width: 700
Flags: W
LayerCount: 2
Fore
SplineSet
51 0 m 1,0,-1
 649 598 l 1,1,-1
 649 0 l 1,2,-1
 51 0 l 1,0,-1
EndSplineSet
EndChar
StartChar: uni25E7
Encoding: 9703 9703 227
Width: 700
Flags: W
LayerCount: 2
Fore
SplineSet
51 0 m 1,0,-1
 51 598 l 1,1,-1
 649 598 l 1,2,-1
 649 0 l 1,3,-1
 51 0 l 1,0,-1
350 37 m 1,4,-1
 612 37 l 1,5,-1
 612 561 l 1,6,-1
 350 561 l 1,7,-1
 350 37 l 1,4,-1
EndSplineSet
EndChar
StartChar: uni25F0
Encoding: 9712 9712 232
Width: 720
Flags: W
LayerCount: 2
Fore
SplineSet
76 40 m 1,0,-1
 76 608 l 1,1,-1
 644 608 l 1,2,-1
 644 40 l 1,3,-1
 76 40 l 1,0,-1
112 342 m 1,4,-1
 342 342 l 1,5,-1
 342 572 l 1,6,-1
 112 572 l 1,7,-1
 112 342 l 1,4,-1
112 76 m 1,8,-1
 608 76 l 1,9,-1
 608 572 l 1,10,-1
 378 572 l 1,11,-1
 378 306 l 1,12,-1
 112 306 l 1,13,-1
 112 76 l 1,8,-1
EndSplineSet
EndChar
StartChar: uni25F3
Encoding: 9715 9715 235
Width: 720
Flags: W
LayerCount: 2
Fore
SplineSet
76 40 m 1,0,-1
 76 608 l 1,1,-1
 644 608 l 1,2,-1
 644 40 l 1,3,-1
 76 40 l 1,0,-1
112 76 m 1,4,-1
 608 76 l 1,5,-1
 608 306 l 1,6,-1
 342 306 l 1,7,-1
 342 572 l 1,8,-1
 112 572 l 1,9,-1
 112 76 l 1,4,-1
378 342 m 1,10,-1
 608 342 l 1,11,-1
 608 572 l 1,12,-1
 378 572 l 1,13,-1
 378 342 l 1,10,-1
EndSplineSet
EndChar
StartChar: uni25F5
Encoding: 9717 9717 182
Width: 720
Flags: W
LayerCount: 2
Fore
SplineSet
360 15 m 256,0,1
 296 15 296 15 240 39 c 128,-1,2
 184 63 184 63 141.5 105 c 128,-1,3
 99 147 99 147 75 203.5 c 128,-1,4
 51 260 51 260 51 324 c 256,5,6
 51 388 51 388 75 444 c 128,-1,7
 99 500 99 500 141.5 542.5 c 128,-1,8
 184 585 184 585 240 609 c 128,-1,9
 296 633 296 633 360 633 c 256,10,11
 424 633 424 633 480 609 c 128,-1,12
 536 585 536 585 578.5 542.5 c 128,-1,13
 621 500 621 500 645 444 c 128,-1,14
 669 388 669 388 669 324 c 256,15,16
 669 260 669 260 645 203.5 c 128,-1,17
 621 147 621 147 578.5 105 c 128,-1,18
 536 63 536 63 480 39 c 128,-1,19
 424 15 424 15 360 15 c 256,0,1
378 52 m 1,20,21
 450 56 450 56 507.5 93.5 c 128,-1,22
 565 131 565 131 599 191.5 c 128,-1,23
 633 252 633 252 633 324 c 0,24,25
 633 381 633 381 612 430.5 c 128,-1,26
 591 480 591 480 553.5 517.5 c 128,-1,27
 516 555 516 555 466.5 576 c 128,-1,28
 417 597 417 597 360 597 c 0,29,30
 288 597 288 597 227.5 563 c 128,-1,31
 167 529 167 529 129.5 471.5 c 128,-1,32
 92 414 92 414 88 342 c 1,33,-1
 378 342 l 1,34,-1
 378 52 l 1,20,21
342 52 m 1,35,-1
 342 306 l 1,36,-1
 88 306 l 1,37,38
 92 237 92 237 126.5 181 c 128,-1,39
 161 125 161 125 217.5 90.5 c 128,-1,40
 274 56 274 56 342 52 c 1,35,-1
EndSplineSet
EndChar
StartChar: uni25F7
Encoding: 9719 9719 184
Width: 720
Flags: W
LayerCount: 2
Fore
SplineSet
360 15 m 256,0,1
 296 15 296 15 240 39 c 128,-1,2
 184 63 184 63 141.5 105.5 c 128,-1,3
 99 148 99 148 75 204 c 128,-1,4
 51 260 51 260 51 324 c 256,5,6
 51 388 51 388 75 444.5 c 128,-1,7
 99 501 99 501 141.5 543 c 128,-1,8
 184 585 184 585 240 609 c 128,-1,9
 296 633 296 633 360 633 c 256,10,11
 424 633 424 633 480 609 c 128,-1,12
 536 585 536 585 578.5 543 c 128,-1,13
 621 501 621 501 645 444.5 c 128,-1,14
 669 388 669 388 669 324 c 256,15,16
 669 260 669 260 645 204 c 128,-1,17
 621 148 621 148 578.5 105.5 c 128,-1,18
 536 63 536 63 480 39 c 128,-1,19
 424 15 424 15 360 15 c 256,0,1
360 51 m 0,20,21
 432 51 432 51 492.5 85 c 128,-1,22
 553 119 553 119 590.5 176.5 c 128,-1,23
 628 234 628 234 632 306 c 1,24,-1
 342 306 l 1,25,-1
 342 596 l 1,26,27
 270 592 270 592 212.5 554.5 c 128,-1,28
 155 517 155 517 121 456.5 c 128,-1,29
 87 396 87 396 87 324 c 0,30,31
 87 267 87 267 108 217.5 c 128,-1,32
 129 168 129 168 166.5 130.5 c 128,-1,33
 204 93 204 93 253.5 72 c 128,-1,34
 303 51 303 51 360 51 c 0,20,21
378 342 m 1,35,-1
 632 342 l 1,36,37
 628 410 628 410 593.5 466.5 c 128,-1,38
 559 523 559 523 502.5 557.5 c 128,-1,39
 446 592 446 592 378 596 c 1,40,-1
 378 342 l 1,35,-1
EndSplineSet
EndChar
StartChar: uni2602
Encoding: 9730 9730 271
Width: 804
Flags: W
LayerCount: 2
Fore
SplineSet
350 -17 m 0,0,1
 320 -17 320 -17 301 0 c 128,-1,2
 282 17 282 17 282 40 c 0,3,4
 282 64 282 64 297 64 c 0,5,6
 311 64 311 64 313 50 c 0,7,8
 315 35 315 35 324 25.5 c 128,-1,9
 333 16 333 16 350 16 c 0,10,11
 382 16 382 16 382 62 c 2,12,-1
 382 363 l 1,13,14
 311 356 311 356 270 294 c 1,15,16
 227 346 227 346 160 346 c 0,17,18
 98 346 98 346 51 305 c 1,19,20
 56 330 56 330 80.5 370 c 128,-1,21
 105 410 105 410 143.5 450 c 128,-1,22
 182 490 182 490 230 518 c 0,23,24
 300 558 300 558 382 563 c 1,25,-1
 392 620 l 1,26,-1
 407 620 l 1,27,-1
 417 563 l 1,28,29
 500 559 500 559 572 519 c 128,-1,30
 644 479 644 479 696 410 c 256,31,32
 748 341 748 341 753 305 c 1,33,34
 733 323 733 323 704 334.5 c 128,-1,35
 675 346 675 346 644 346 c 0,36,37
 577 346 577 346 534 294 c 1,38,39
 512 324 512 324 484.5 342 c 128,-1,40
 457 360 457 360 417 363 c 1,41,-1
 417 62 l 2,42,43
 417 25 417 25 399.5 4 c 128,-1,44
 382 -17 382 -17 350 -17 c 0,0,1
EndSplineSet
EndChar
StartChar: uni2603
Encoding: 9731 9731 272
Width: 916
Flags: W
LayerCount: 2
Fore
SplineSet
538 660 m 256,0,1
 528 660 528 660 521 667 c 128,-1,2
 514 674 514 674 514 684 c 256,3,4
 514 694 514 694 521 701 c 128,-1,5
 528 708 528 708 538 708 c 256,6,7
 548 708 548 708 555 701 c 128,-1,8
 562 694 562 694 562 684 c 256,9,10
 562 674 562 674 555 667 c 128,-1,11
 548 660 548 660 538 660 c 256,0,1
378 660 m 256,12,13
 368 660 368 660 361 667 c 128,-1,14
 354 674 354 674 354 684 c 256,15,16
 354 694 354 694 361 701 c 128,-1,17
 368 708 368 708 378 708 c 256,18,19
 388 708 388 708 395 701 c 128,-1,20
 402 694 402 694 402 684 c 256,21,22
 402 674 402 674 395 667 c 128,-1,23
 388 660 388 660 378 660 c 256,12,13
127 648 m 256,24,25
 117 648 117 648 110 655 c 128,-1,26
 103 662 103 662 103 672 c 256,27,28
 103 682 103 682 110 689 c 128,-1,29
 117 696 117 696 127 696 c 256,30,31
 137 696 137 696 144 689 c 128,-1,32
 151 682 151 682 151 672 c 256,33,34
 151 662 151 662 144 655 c 128,-1,35
 137 648 137 648 127 648 c 256,24,25
789 648 m 256,36,37
 779 648 779 648 772 655 c 128,-1,38
 765 662 765 662 765 672 c 256,39,40
 765 682 765 682 772 689 c 128,-1,41
 779 696 779 696 789 696 c 256,42,43
 799 696 799 696 806 689 c 128,-1,44
 813 682 813 682 813 672 c 256,45,46
 813 662 813 662 806 655 c 128,-1,47
 799 648 799 648 789 648 c 256,36,37
667 637 m 256,48,49
 657 637 657 637 650 644 c 128,-1,50
 643 651 643 651 643 661 c 256,51,52
 643 671 643 671 650 678 c 128,-1,53
 657 685 657 685 667 685 c 256,54,55
 677 685 677 685 684 678 c 128,-1,56
 691 671 691 671 691 661 c 256,57,58
 691 651 691 651 684 644 c 128,-1,59
 677 637 677 637 667 637 c 256,48,49
249 637 m 256,60,61
 239 637 239 637 232 644 c 128,-1,62
 225 651 225 651 225 661 c 256,63,64
 225 671 225 671 232 678 c 128,-1,65
 239 685 239 685 249 685 c 256,66,67
 259 685 259 685 266 678 c 128,-1,68
 273 671 273 671 273 661 c 256,69,70
 273 651 273 651 266 644 c 128,-1,71
 259 637 259 637 249 637 c 256,60,61
458 -36 m 0,72,73
 317 -36 317 -36 245.5 17.5 c 128,-1,74
 174 71 174 71 174 174 c 0,75,76
 174 225 174 225 192 264 c 1,77,-1
 138 303 l 1,78,-1
 52 296 l 1,79,-1
 51 313 l 1,80,-1
 130 319 l 1,81,-1
 66 364 l 1,82,-1
 77 379 l 1,83,-1
 139 333 l 1,84,-1
 141 334 l 1,85,-1
 121 412 l 1,86,-1
 138 417 l 1,87,-1
 159 333 l 1,88,-1
 210 294 l 1,89,90
 237 330 237 330 286 351 c 1,91,92
 258 373 258 373 246 399.5 c 128,-1,93
 234 426 234 426 234 460 c 0,94,95
 234 543 234 543 292 587 c 128,-1,96
 350 631 350 631 458 631 c 0,97,98
 565 631 565 631 623.5 587 c 128,-1,99
 682 543 682 543 682 460 c 0,100,101
 682 390 682 390 630 351 c 1,102,103
 678 330 678 330 705 294 c 1,104,-1
 757 333 l 1,105,-1
 778 417 l 1,106,-1
 795 412 l 1,107,-1
 775 334 l 1,108,-1
 777 333 l 1,109,-1
 839 379 l 1,110,-1
 850 364 l 1,111,-1
 786 319 l 1,112,-1
 865 313 l 1,113,-1
 864 296 l 1,114,-1
 778 303 l 1,115,-1
 724 264 l 1,116,117
 742 222 742 222 742 174 c 0,118,119
 742 73 742 73 671 18.5 c 128,-1,120
 600 -36 600 -36 458 -36 c 0,72,73
193 551 m 256,121,122
 183 551 183 551 176 558 c 128,-1,123
 169 565 169 565 169 575 c 256,124,125
 169 585 169 585 176 592 c 128,-1,126
 183 599 183 599 193 599 c 256,127,128
 203 599 203 599 210 592 c 128,-1,129
 217 585 217 585 217 575 c 256,130,131
 217 565 217 565 210 558 c 128,-1,132
 203 551 203 551 193 551 c 256,121,122
723 551 m 256,133,134
 713 551 713 551 706 558 c 128,-1,135
 699 565 699 565 699 575 c 256,136,137
 699 585 699 585 706 592 c 128,-1,138
 713 599 713 599 723 599 c 256,139,140
 733 599 733 599 740 592 c 128,-1,141
 747 585 747 585 747 575 c 256,142,143
 747 565 747 565 740 558 c 128,-1,144
 733 551 733 551 723 551 c 256,133,134
458 12 m 0,145,146
 577 12 577 12 635.5 54 c 128,-1,147
 694 96 694 96 694 174 c 0,148,149
 694 233 694 233 657.5 278 c 128,-1,150
 621 323 621 323 561 338 c 1,151,-1
 561 351 l 1,152,153
 594 368 594 368 614 397 c 128,-1,154
 634 426 634 426 634 460 c 0,155,156
 634 519 634 519 588.5 551 c 128,-1,157
 543 583 543 583 458 583 c 0,158,159
 372 583 372 583 327 550.5 c 128,-1,160
 282 518 282 518 282 460 c 0,161,162
 282 426 282 426 302.5 397 c 128,-1,163
 323 368 323 368 355 351 c 1,164,-1
 355 338 l 1,165,166
 297 324 297 324 259.5 280 c 128,-1,167
 222 236 222 236 222 174 c 0,168,169
 222 96 222 96 281 54 c 128,-1,170
 340 12 340 12 458 12 c 0,145,146
113 494 m 256,171,172
 103 494 103 494 96 501 c 128,-1,173
 89 508 89 508 89 518 c 256,174,175
 89 528 89 528 96 535 c 128,-1,176
 103 542 103 542 113 542 c 256,177,178
 123 542 123 542 130 535 c 128,-1,179
 137 528 137 528 137 518 c 256,180,181
 137 508 137 508 130 501 c 128,-1,182
 123 494 123 494 113 494 c 256,171,172
803 494 m 256,183,184
 793 494 793 494 786 501 c 128,-1,185
 779 508 779 508 779 518 c 256,186,187
 779 528 779 528 786 535 c 128,-1,188
 793 542 793 542 803 542 c 256,189,190
 813 542 813 542 820 535 c 128,-1,191
 827 528 827 528 827 518 c 256,192,193
 827 508 827 508 820 501 c 128,-1,194
 813 494 813 494 803 494 c 256,183,184
380 431 m 256,195,196
 366 431 366 431 357 440 c 128,-1,197
 348 449 348 449 348 463 c 256,198,199
 348 477 348 477 357 486 c 128,-1,200
 366 495 366 495 380 495 c 256,201,202
 394 495 394 495 403 486 c 128,-1,203
 412 477 412 477 412 463 c 256,204,205
 412 449 412 449 403 440 c 128,-1,206
 394 431 394 431 380 431 c 256,195,196
536 431 m 256,207,208
 522 431 522 431 513 440 c 128,-1,209
 504 449 504 449 504 463 c 256,210,211
 504 477 504 477 513 486 c 128,-1,212
 522 495 522 495 536 495 c 256,213,214
 550 495 550 495 559 486 c 128,-1,215
 568 477 568 477 568 463 c 256,216,217
 568 449 568 449 559 440 c 128,-1,218
 550 431 550 431 536 431 c 256,207,208
179 416 m 256,219,220
 169 416 169 416 162 423 c 128,-1,221
 155 430 155 430 155 440 c 256,222,223
 155 450 155 450 162 457 c 128,-1,224
 169 464 169 464 179 464 c 256,225,226
 189 464 189 464 196 457 c 128,-1,227
 203 450 203 450 203 440 c 256,228,229
 203 430 203 430 196 423 c 128,-1,230
 189 416 189 416 179 416 c 256,219,220
737 416 m 256,231,232
 727 416 727 416 720 423 c 128,-1,233
 713 430 713 430 713 440 c 256,234,235
 713 450 713 450 720 457 c 128,-1,236
 727 464 727 464 737 464 c 256,237,238
 747 464 747 464 754 457 c 128,-1,239
 761 450 761 450 761 440 c 256,240,241
 761 430 761 430 754 423 c 128,-1,242
 747 416 747 416 737 416 c 256,231,232
458 298 m 0,243,244
 448 298 448 298 444 319 c 128,-1,245
 440 340 440 340 437 359 c 2,246,-1
 429 416 l 1,247,-1
 487 416 l 1,248,249
 484 394 484 394 480.5 366.5 c 128,-1,250
 477 339 477 339 471.5 318.5 c 128,-1,251
 466 298 466 298 458 298 c 0,243,244
EndSplineSet
EndChar
StartChar: uni260E
Encoding: 9742 9742 278
Width: 892
Flags: W
LayerCount: 2
Fore
SplineSet
168 0 m 2,0,1
 155 0 155 0 155 9 c 2,2,-1
 155 28 l 1,3,-1
 118 28 l 1,4,-1
 118 95 l 2,5,6
 118 120 118 120 125 149 c 128,-1,7
 132 178 132 178 145 204 c 128,-1,8
 158 230 158 230 174 245 c 2,9,-1
 197 266 l 2,10,11
 229 295 229 295 249.5 315.5 c 128,-1,12
 270 336 270 336 277 350 c 0,13,14
 285 364 285 364 288.5 377 c 128,-1,15
 292 390 292 390 292 404 c 2,16,-1
 292 478 l 1,17,18
 268 468 268 468 268 431 c 2,19,-1
 270 404 l 1,20,-1
 269 391 l 1,21,22
 248 382 248 382 209 375.5 c 128,-1,23
 170 369 170 369 123 369 c 0,24,25
 103 369 103 369 84.5 371 c 128,-1,26
 66 373 66 373 51 375 c 1,27,-1
 51 380 l 2,28,29
 51 457 51 457 93 510 c 128,-1,30
 135 563 135 563 211.5 590 c 128,-1,31
 288 617 288 617 391 617 c 2,32,-1
 501 617 l 2,33,34
 655 617 655 617 746 557 c 128,-1,35
 837 497 837 497 841 380 c 1,36,-1
 841 375 l 1,37,38
 826 373 826 373 808 371 c 128,-1,39
 790 369 790 369 768 369 c 0,40,41
 723 369 723 369 683.5 375.5 c 128,-1,42
 644 382 644 382 623 391 c 1,43,-1
 623 404 l 1,44,-1
 624 431 l 2,45,46
 624 466 624 466 600 478 c 1,47,-1
 600 404 l 2,48,49
 600 372 600 372 620.5 342 c 128,-1,50
 641 312 641 312 681 277 c 2,51,-1
 718 245 l 2,52,53
 736 229 736 229 748.5 203.5 c 128,-1,54
 761 178 761 178 767.5 149 c 128,-1,55
 774 120 774 120 774 95 c 2,56,-1
 774 28 l 1,57,-1
 737 28 l 1,58,-1
 737 9 l 2,59,60
 737 0 737 0 723 0 c 2,61,-1
 662 0 l 2,62,63
 650 0 650 0 650 9 c 2,64,-1
 650 28 l 1,65,-1
 242 28 l 1,66,-1
 242 9 l 2,67,68
 242 0 242 0 230 0 c 2,69,-1
 168 0 l 2,0,1
388 449 m 1,70,-1
 504 449 l 1,71,-1
 504 489 l 1,72,73
 484 488 484 488 470 486.5 c 128,-1,74
 456 485 456 485 446 485 c 256,75,76
 436 485 436 485 422 486.5 c 128,-1,77
 408 488 408 488 388 489 c 1,78,-1
 388 449 l 1,70,-1
134 309 m 0,79,80
 114 309 114 309 98 311.5 c 128,-1,81
 82 314 82 314 72 319 c 0,82,83
 51 329 51 329 51 347 c 2,84,-1
 51 364 l 1,85,86
 68 361 68 361 87 359 c 128,-1,87
 106 357 106 357 129 357 c 0,88,89
 172 357 172 357 206 362 c 128,-1,90
 240 367 240 367 266 376 c 1,91,92
 262 339 262 339 231.5 324 c 128,-1,93
 201 309 201 309 134 309 c 0,79,80
758 309 m 0,94,95
 712 309 712 309 687.5 315 c 128,-1,96
 663 321 663 321 647 334 c 0,97,98
 632 346 632 346 626 376 c 1,99,100
 652 367 652 367 685.5 362 c 128,-1,101
 719 357 719 357 762 357 c 0,102,103
 785 357 785 357 804.5 359 c 128,-1,104
 824 361 824 361 841 364 c 1,105,-1
 841 347 l 2,106,107
 841 329 841 329 820 319 c 0,108,109
 810 314 810 314 794 311.5 c 128,-1,110
 778 309 778 309 758 309 c 0,94,95
446 104 m 256,111,112
 482 104 482 104 511.5 121.5 c 128,-1,113
 541 139 541 139 558.5 168.5 c 128,-1,114
 576 198 576 198 576 234 c 256,115,116
 576 270 576 270 558.5 299.5 c 128,-1,117
 541 329 541 329 511.5 346.5 c 128,-1,118
 482 364 482 364 446 364 c 0,119,120
 408 364 408 364 379 346.5 c 128,-1,121
 350 329 350 329 333 299.5 c 128,-1,122
 316 270 316 270 316 234 c 256,123,124
 316 198 316 198 333.5 168.5 c 128,-1,125
 351 139 351 139 380.5 121.5 c 128,-1,126
 410 104 410 104 446 104 c 256,111,112
EndSplineSet
EndChar
StartChar: uni260F
Encoding: 9743 9743 279
Width: 892
Flags: W
LayerCount: 2
Fore
SplineSet
167 0 m 2,0,1
 155 0 155 0 155 9 c 2,2,-1
 155 28 l 1,3,-1
 117 28 l 1,4,-1
 117 96 l 2,5,6
 117 134 117 134 134 177 c 128,-1,7
 151 220 151 220 174 246 c 2,8,-1
 197 267 l 2,9,10
 262 323 262 323 277 351 c 0,11,12
 285 365 285 365 288.5 378 c 128,-1,13
 292 391 292 391 292 404 c 2,14,-1
 292 479 l 1,15,16
 268 468 268 468 268 432 c 2,17,-1
 268 399 l 2,18,19
 267 348 267 348 236.5 329 c 128,-1,20
 206 310 206 310 134 310 c 0,21,22
 93 310 93 310 72 320 c 128,-1,23
 51 330 51 330 51 361 c 0,24,25
 51 491 51 491 140.5 554.5 c 128,-1,26
 230 618 230 618 390 618 c 2,27,-1
 502 618 l 2,28,29
 662 618 662 618 751.5 554.5 c 128,-1,30
 841 491 841 491 841 361 c 0,31,32
 841 330 841 330 820 320 c 128,-1,33
 799 310 799 310 758 310 c 0,34,35
 688 310 688 310 657 327.5 c 128,-1,36
 626 345 626 345 624 399 c 2,37,-1
 624 432 l 2,38,39
 624 467 624 467 600 479 c 1,40,-1
 600 404 l 2,41,42
 600 344 600 344 682 278 c 1,43,-1
 718 246 l 2,44,45
 744 218 744 218 759.5 176 c 128,-1,46
 775 134 775 134 775 96 c 2,47,-1
 775 28 l 1,48,-1
 737 28 l 1,49,-1
 737 9 l 2,50,51
 737 0 737 0 724 0 c 2,52,-1
 663 0 l 2,53,54
 650 0 650 0 650 9 c 2,55,-1
 650 28 l 1,56,-1
 242 28 l 1,57,-1
 242 9 l 2,58,59
 242 0 242 0 229 0 c 2,60,-1
 167 0 l 2,0,1
138 373 m 0,61,62
 200 373 200 373 244 391 c 1,63,-1
 245 399 l 1,64,-1
 245 408 l 1,65,-1
 244 432 l 2,66,67
 244 510 244 510 347 510 c 0,68,69
 356 510 356 510 368 509 c 128,-1,70
 380 508 380 508 396 506 c 256,71,72
 412 504 412 504 424 503.5 c 128,-1,73
 436 503 436 503 446 503 c 256,74,75
 456 503 456 503 468 503.5 c 128,-1,76
 480 504 480 504 496 506 c 256,77,78
 512 508 512 508 524 509 c 128,-1,79
 536 510 536 510 545 510 c 0,80,81
 648 510 648 510 648 432 c 2,82,-1
 647 408 l 1,83,-1
 647 399 l 1,84,-1
 648 391 l 1,85,86
 692 373 692 373 754 373 c 0,87,88
 787 373 787 373 817 379 c 1,89,90
 814 484 814 484 730.5 539.5 c 128,-1,91
 647 595 647 595 502 595 c 2,92,-1
 390 595 l 2,93,94
 244 595 244 595 160.5 538.5 c 128,-1,95
 77 482 77 482 75 379 c 1,96,97
 105 373 105 373 138 373 c 0,61,62
141 52 m 1,98,-1
 751 52 l 1,99,-1
 751 96 l 2,100,101
 751 136 751 136 734.5 178.5 c 128,-1,102
 718 221 718 221 665 265 c 0,103,104
 612 308 612 308 594 339 c 128,-1,105
 576 370 576 370 576 404 c 2,106,-1
 576 490 l 1,107,-1
 548 492 l 1,108,-1
 535 492 l 1,109,-1
 522 491 l 1,110,-1
 522 429 l 1,111,-1
 370 429 l 1,112,-1
 370 491 l 1,113,-1
 357 492 l 1,114,-1
 344 492 l 1,115,-1
 316 490 l 1,116,-1
 316 404 l 2,117,118
 316 366 316 366 295 334.5 c 128,-1,119
 274 303 274 303 225 263 c 0,120,121
 176 222 176 222 158.5 179.5 c 128,-1,122
 141 137 141 137 141 96 c 2,123,-1
 141 52 l 1,98,-1
388 450 m 1,124,-1
 504 450 l 1,125,-1
 504 490 l 1,126,127
 484 488 484 488 470 487 c 128,-1,128
 456 486 456 486 446 486 c 256,129,130
 436 486 436 486 422 487 c 128,-1,131
 408 488 408 488 388 490 c 1,132,-1
 388 450 l 1,124,-1
446 85 m 256,133,134
 404 85 404 85 370 105 c 128,-1,135
 336 125 336 125 316 159.5 c 128,-1,136
 296 194 296 194 296 235 c 256,137,138
 296 276 296 276 316 310.5 c 128,-1,139
 336 345 336 345 370 365 c 128,-1,140
 404 385 404 385 446 385 c 256,141,142
 488 385 488 385 522 365 c 128,-1,143
 556 345 556 345 576 310.5 c 128,-1,144
 596 276 596 276 596 235 c 256,145,146
 596 194 596 194 576 159.5 c 128,-1,147
 556 125 556 125 522 105 c 128,-1,148
 488 85 488 85 446 85 c 256,133,134
758 333 m 0,149,150
 817 333 817 333 817 348 c 2,151,-1
 817 361 l 1,152,153
 787 355 787 355 756 355 c 0,154,155
 704 355 704 355 652 370 c 1,156,157
 662 349 662 349 685.5 341 c 128,-1,158
 709 333 709 333 758 333 c 0,149,150
134 333 m 0,159,160
 183 333 183 333 206.5 341 c 128,-1,161
 230 349 230 349 240 370 c 1,162,163
 186 355 186 355 136 355 c 0,164,165
 105 355 105 355 75 361 c 1,166,-1
 75 348 l 2,167,168
 75 333 75 333 134 333 c 0,159,160
446 105 m 256,169,170
 482 105 482 105 511.5 122.5 c 128,-1,171
 541 140 541 140 558.5 169.5 c 128,-1,172
 576 199 576 199 576 235 c 0,173,174
 576 270 576 270 558.5 300 c 128,-1,175
 541 330 541 330 511.5 347.5 c 128,-1,176
 482 365 482 365 446 365 c 0,177,178
 408 365 408 365 379 347.5 c 128,-1,179
 350 330 350 330 333 300 c 128,-1,180
 316 270 316 270 316 235 c 0,181,182
 316 199 316 199 333.5 169.5 c 128,-1,183
 351 140 351 140 380.5 122.5 c 128,-1,184
 410 105 410 105 446 105 c 256,169,170
674 14 m 2,185,-1
 714 14 l 2,186,187
 722 14 722 14 722 18 c 2,188,-1
 722 28 l 1,189,-1
 665 28 l 1,190,-1
 665 18 l 2,191,192
 665 14 665 14 674 14 c 2,185,-1
178 14 m 2,193,-1
 218 14 l 2,194,195
 227 14 227 14 227 18 c 2,196,-1
 227 28 l 1,197,-1
 170 28 l 1,198,-1
 170 18 l 2,199,200
 170 14 170 14 178 14 c 2,193,-1
EndSplineSet
EndChar
StartChar: uni2610
Encoding: 9744 9744 280
Width: 821
Flags: W
LayerCount: 2
Fore
SplineSet
51 0 m 1,0,-1
 51 719 l 1,1,-1
 770 719 l 1,2,-1
 770 0 l 1,3,-1
 51 0 l 1,0,-1
111 60 m 1,4,-1
 710 60 l 1,5,-1
 710 659 l 1,6,-1
 111 659 l 1,7,-1
 111 60 l 1,4,-1
EndSplineSet
EndChar
StartChar: uni2616
Encoding: 9750 9750 283
Width: 628
Flags: W
LayerCount: 2
Fore
SplineSet
51 0 m 1,0,-1
 96 409 l 1,1,-1
 314 533 l 1,2,-1
 532 409 l 1,3,-1
 577 0 l 1,4,-1
 51 0 l 1,0,-1
103 47 m 1,5,-1
 525 47 l 1,6,-1
 487 381 l 1,7,-1
 314 479 l 1,8,-1
 141 381 l 1,9,-1
 103 47 l 1,5,-1
EndSplineSet
EndChar
StartChar: uni2617
Encoding: 9751 9751 284
Width: 628
Flags: W
LayerCount: 2
Fore
SplineSet
51 0 m 1,0,-1
 96 409 l 1,1,-1
 314 533 l 1,2,-1
 532 409 l 1,3,-1
 577 0 l 1,4,-1
 51 0 l 1,0,-1
EndSplineSet
EndChar
StartChar: uni261A
Encoding: 9754 9754 285
Width: 1220
Flags: W
LayerCount: 2
Fore
SplineSet
588 -6 m 0,0,1
 548 -6 548 -6 515.5 0.5 c 128,-1,2
 483 7 483 7 463 22.5 c 128,-1,3
 443 38 443 38 443 65 c 0,4,5
 443 83 443 83 437.5 90.5 c 128,-1,6
 432 98 432 98 421 102 c 0,7,8
 384 114 384 114 384 154 c 0,9,10
 384 168 384 168 390 177.5 c 128,-1,11
 396 187 396 187 394 201 c 0,12,13
 393 210 393 210 386.5 217 c 128,-1,14
 380 224 380 224 370 229 c 0,15,16
 351 237 351 237 344 249 c 128,-1,17
 337 261 337 261 337 278 c 0,18,19
 337 302 337 302 344.5 316.5 c 128,-1,20
 352 331 352 331 374 353 c 1,21,22
 345 353 345 353 311.5 355.5 c 128,-1,23
 278 358 278 358 243 358 c 0,24,25
 211 358 211 358 179.5 356.5 c 128,-1,26
 148 355 148 355 131 355 c 0,27,28
 88 355 88 355 69.5 367.5 c 128,-1,29
 51 380 51 380 51 406 c 0,30,31
 51 440 51 440 80.5 452 c 128,-1,32
 110 464 110 464 153 469 c 0,33,34
 183 473 183 473 221.5 477 c 128,-1,35
 260 481 260 481 298 486 c 0,36,37
 318 489 318 489 342 490.5 c 128,-1,38
 366 492 366 492 389 494 c 0,39,40
 394 498 394 498 402.5 502 c 128,-1,41
 411 506 411 506 418 508 c 0,42,43
 432 511 432 511 457.5 519 c 128,-1,44
 483 527 483 527 518 542 c 0,45,46
 550 556 550 556 591.5 561.5 c 128,-1,47
 633 567 633 567 678 567 c 0,48,49
 722 567 722 567 753 552 c 128,-1,50
 784 537 784 537 829 506 c 0,51,52
 860 485 860 485 878 474 c 128,-1,53
 896 463 896 463 910.5 459 c 128,-1,54
 925 455 925 455 945 455 c 0,55,56
 954 455 954 455 968 455.5 c 128,-1,57
 982 456 982 456 992 457 c 1,58,59
 1011 431 1011 431 1023.5 383 c 128,-1,60
 1036 335 1036 335 1036 283 c 0,61,62
 1036 147 1036 147 992 94 c 1,63,-1
 921 94 l 1,64,65
 878 59 878 59 821 37 c 128,-1,66
 764 15 764 15 703.5 4.5 c 128,-1,67
 643 -6 643 -6 588 -6 c 0,0,1
1011 43 m 2,68,69
 1000 43 1000 43 995.5 49 c 128,-1,70
 991 55 991 55 991 63 c 2,71,-1
 991 70 l 1,72,73
 997 60 997 60 1006 60 c 0,74,75
 1026 60 1026 60 1039.5 80.5 c 128,-1,76
 1053 101 1053 101 1061.5 133.5 c 128,-1,77
 1070 166 1070 166 1073.5 204 c 128,-1,78
 1077 242 1077 242 1077 276 c 256,79,80
 1077 310 1077 310 1073.5 347.5 c 128,-1,81
 1070 385 1070 385 1062.5 417.5 c 128,-1,82
 1055 450 1055 450 1041 470.5 c 128,-1,83
 1027 491 1027 491 1006 491 c 0,84,85
 997 491 997 491 991 484 c 1,86,-1
 991 486 l 2,87,88
 991 510 991 510 1011 510 c 2,89,-1
 1086 510 l 2,90,91
 1110 510 1110 510 1126 486.5 c 128,-1,92
 1142 463 1142 463 1151.5 427 c 128,-1,93
 1161 391 1161 391 1165 350.5 c 128,-1,94
 1169 310 1169 310 1169 276 c 256,95,96
 1169 242 1169 242 1165 201.5 c 128,-1,97
 1161 161 1161 161 1152 125 c 128,-1,98
 1143 89 1143 89 1126.5 66 c 128,-1,99
 1110 43 1110 43 1086 43 c 2,100,-1
 1011 43 l 2,68,69
EndSplineSet
EndChar
StartChar: uni2621
Encoding: 9761 9761 291
Width: 670
Flags: W
LayerCount: 2
Fore
SplineSet
225 0 m 2,0,1
 164 0 164 0 135.5 24 c 128,-1,2
 107 48 107 48 107 89 c 0,3,4
 107 117 107 117 124 146 c 128,-1,5
 141 175 141 175 173 211 c 2,6,-1
 460 535 l 2,7,8
 483 560 483 560 499 584.5 c 128,-1,9
 515 609 515 609 515 621 c 0,10,11
 515 640 515 640 498 647.5 c 128,-1,12
 481 655 481 655 448 655 c 2,13,-1
 51 655 l 1,14,-1
 51 715 l 1,15,-1
 463 715 l 2,16,17
 523 715 523 715 552 691 c 128,-1,18
 581 667 581 667 581 629 c 0,19,20
 581 600 581 600 564 570.5 c 128,-1,21
 547 541 547 541 515 504 c 2,22,-1
 209 158 l 2,23,24
 190 136 190 136 181.5 120 c 128,-1,25
 173 104 173 104 173 94 c 0,26,27
 173 74 173 74 190 67 c 128,-1,28
 207 60 207 60 240 60 c 2,29,-1
 619 60 l 1,30,-1
 619 0 l 1,31,-1
 225 0 l 2,0,1
EndSplineSet
EndChar
StartChar: sun
Encoding: 9788 9788 1282
Width: 1270
Flags: W
LayerCount: 2
Fore
SplineSet
583 647 m 2,0,1
 577 647 577 647 573 652 c 128,-1,2
 569 657 569 657 569 662 c 0,3,4
 569 666 569 666 570 667 c 2,5,-1
 622 805 l 2,6,7
 625 814 625 814 635 814 c 256,8,9
 645 814 645 814 648 805 c 2,10,-1
 699 667 l 1,11,-1
 700 662 l 2,12,13
 700 657 700 657 696 652 c 128,-1,14
 692 647 692 647 686 647 c 2,15,-1
 583 647 l 2,0,1
391 525 m 0,16,17
 382 525 382 525 377 534 c 2,18,-1
 316 667 l 2,19,20
 314 671 314 671 314 673 c 0,21,22
 314 680 314 680 319 684 c 128,-1,23
 324 688 324 688 329 688 c 0,24,25
 331 688 331 688 332.5 687.5 c 128,-1,26
 334 687 334 687 335 687 c 2,27,-1
 468 625 l 2,28,29
 477 621 477 621 477 612 c 0,30,31
 477 605 477 605 473 602 c 2,32,-1
 400 530 l 2,33,34
 397 525 397 525 391 525 c 0,16,17
882 525 m 0,35,36
 875 525 875 525 868 530 c 2,37,-1
 797 602 l 2,38,39
 792 605 792 605 792 612 c 0,40,41
 792 620 792 620 801 625 c 2,42,-1
 935 687 l 2,43,44
 936 687 936 687 937 687.5 c 128,-1,45
 938 688 938 688 940 688 c 0,46,47
 955 688 955 688 955 673 c 0,48,49
 955 671 955 671 954 670 c 2,50,-1
 953 667 l 1,51,-1
 892 534 l 2,52,53
 887 526 887 526 882 525 c 0,35,36
635 131 m 256,54,55
 570 131 570 131 516 163 c 128,-1,56
 462 195 462 195 430 248.5 c 128,-1,57
 398 302 398 302 398 368 c 256,58,59
 398 434 398 434 430 487.5 c 128,-1,60
 462 541 462 541 516 572.5 c 128,-1,61
 570 604 570 604 635 604 c 256,62,63
 700 604 700 604 753.5 572.5 c 128,-1,64
 807 541 807 541 839.5 487.5 c 128,-1,65
 872 434 872 434 872 368 c 256,66,67
 872 302 872 302 839.5 248 c 128,-1,68
 807 194 807 194 753.5 162.5 c 128,-1,69
 700 131 700 131 635 131 c 256,54,55
635 190 m 256,70,71
 684 190 684 190 724 214 c 128,-1,72
 764 238 764 238 788.5 278 c 128,-1,73
 813 318 813 318 813 368 c 0,74,75
 813 417 813 417 788.5 457 c 128,-1,76
 764 497 764 497 724 521 c 128,-1,77
 684 545 684 545 635 545 c 256,78,79
 586 545 586 545 545.5 521 c 128,-1,80
 505 497 505 497 481 457 c 128,-1,81
 457 417 457 417 457 368 c 256,82,83
 457 319 457 319 481 278.5 c 128,-1,84
 505 238 505 238 545.5 214 c 128,-1,85
 586 190 586 190 635 190 c 256,70,71
340 302 m 2,86,-1
 335 303 l 1,87,-1
 197 354 l 2,88,89
 188 357 188 357 188 368 c 0,90,91
 188 378 188 378 197 381 c 2,92,-1
 338 433 l 1,93,-1
 340 433 l 2,94,95
 354 433 354 433 354 418 c 2,96,-1
 354 317 l 2,97,98
 354 302 354 302 340 302 c 2,86,-1
929 302 m 2,99,100
 915 302 915 302 915 317 c 2,101,-1
 915 418 l 2,102,103
 915 433 915 433 928 433 c 0,104,105
 932 433 932 433 934 432 c 2,106,-1
 1072 381 l 2,107,108
 1082 377 1082 377 1082 368 c 0,109,110
 1082 358 1082 358 1072 354 c 2,111,-1
 934 303 l 1,112,-1
 929 302 l 2,99,100
329 47 m 0,113,114
 314 47 314 47 314 62 c 1,115,-1
 315 65 l 2,116,117
 315 67 315 67 316 68 c 2,118,-1
 377 202 l 2,119,120
 382 210 382 210 390 210 c 0,121,122
 396 210 396 210 400 206 c 2,123,-1
 473 133 l 2,124,125
 477 130 477 130 477 123 c 0,126,127
 477 114 477 114 468 110 c 2,128,-1
 335 49 l 2,129,130
 331 47 331 47 329 47 c 0,113,114
940 47 m 0,131,132
 939 47 939 47 935 49 c 2,133,-1
 801 110 l 2,134,135
 792 114 792 114 792 123 c 0,136,137
 792 130 792 130 797 133 c 2,138,-1
 868 206 l 2,139,140
 874 210 874 210 879 210 c 0,141,142
 887 210 887 210 892 202 c 2,143,-1
 953 68 l 1,144,-1
 954 65 l 2,145,146
 954 63 954 63 955 62 c 0,147,148
 955 47 955 47 940 47 c 0,131,132
635 -79 m 256,149,150
 625 -79 625 -79 622 -70 c 2,151,-1
 570 68 l 2,152,153
 570 70 570 70 569 73 c 0,154,155
 569 88 569 88 583 88 c 2,156,-1
 686 88 l 2,157,158
 691 88 691 88 695.5 83.5 c 128,-1,159
 700 79 700 79 700 73 c 0,160,161
 700 69 700 69 699 68 c 2,162,-1
 648 -70 l 2,163,164
 645 -79 645 -79 635 -79 c 256,149,150
EndSplineSet
EndChar
StartChar: uni2654
Encoding: 9812 9812 1886
Width: 696
Flags: W
LayerCount: 2
Fore
SplineSet
348 -34 m 0,0,1
 302 -34 302 -34 265 -30 c 128,-1,2
 228 -26 228 -26 201 -18 c 0,3,4
 147 -3 147 -3 147 24 c 2,5,-1
 161 227 l 1,6,7
 51 343 51 343 51 436 c 0,8,9
 51 499 51 499 83.5 536 c 128,-1,10
 116 573 116 573 173 573 c 0,11,12
 239 573 239 573 287 525 c 1,13,-1
 283 591 l 2,14,15
 283 628 283 628 331 636 c 1,16,-1
 331 696 l 1,17,-1
 290 696 l 1,18,-1
 290 716 l 1,19,-1
 331 716 l 1,20,-1
 331 753 l 1,21,-1
 365 753 l 1,22,-1
 365 716 l 1,23,-1
 406 716 l 1,24,-1
 406 696 l 1,25,-1
 365 696 l 1,26,-1
 365 636 l 1,27,28
 413 628 413 628 413 589 c 2,29,-1
 409 525 l 1,30,31
 456 573 456 573 523 573 c 0,32,33
 580 573 580 573 612.5 536 c 128,-1,34
 645 499 645 499 645 436 c 0,35,36
 645 393 645 393 620.5 342.5 c 128,-1,37
 596 292 596 292 535 227 c 1,38,-1
 549 24 l 2,39,40
 549 -4 549 -4 495 -19 c 0,41,42
 440 -34 440 -34 348 -34 c 0,0,1
348 422 m 1,43,44
 360 459 360 459 376 483 c 1,45,-1
 376 578 l 2,46,47
 376 611 376 611 348 611 c 256,48,49
 320 611 320 611 320 578 c 2,50,-1
 320 483 l 1,51,52
 333 462 333 462 348 422 c 1,43,44
195 247 m 1,53,54
 270 262 270 262 327 262 c 1,55,-1
 327 294 l 2,56,57
 327 338 327 338 315.5 380 c 128,-1,58
 304 422 304 422 283 456 c 128,-1,59
 262 490 262 490 234.5 510.5 c 128,-1,60
 207 531 207 531 175 531 c 0,61,62
 138 531 138 531 117 504.5 c 128,-1,63
 96 478 96 478 96 431 c 0,64,65
 96 393 96 393 124 342 c 128,-1,66
 152 291 152 291 195 247 c 1,53,54
501 247 m 1,67,68
 545 293 545 293 572.5 343 c 128,-1,69
 600 393 600 393 600 431 c 0,70,71
 600 476 600 476 580 503.5 c 128,-1,72
 560 531 560 531 521 531 c 0,73,74
 489 531 489 531 461 510.5 c 128,-1,75
 433 490 433 490 412.5 456 c 128,-1,76
 392 422 392 422 380.5 380.5 c 128,-1,77
 369 339 369 339 369 298 c 2,78,-1
 369 262 l 1,79,80
 393 262 393 262 431 257.5 c 128,-1,81
 469 253 469 253 501 247 c 1,67,68
201 155 m 1,82,83
 211 159 211 159 234.5 163 c 128,-1,84
 258 167 258 167 288 169.5 c 128,-1,85
 318 172 318 172 348 172 c 0,86,87
 376 172 376 172 405.5 169.5 c 128,-1,88
 435 167 435 167 459.5 163 c 128,-1,89
 484 159 484 159 495 155 c 1,90,-1
 490 213 l 1,91,92
 457 221 457 221 421.5 225.5 c 128,-1,93
 386 230 386 230 348 230 c 0,94,95
 309 230 309 230 273.5 225.5 c 128,-1,96
 238 221 238 221 206 213 c 1,97,-1
 201 155 l 1,82,83
196 68 m 1,98,99
 248 86 248 86 348 86 c 0,100,101
 446 86 446 86 500 68 c 1,102,-1
 497 123 l 1,103,104
 426 143 426 143 348 143 c 0,105,106
 308 143 308 143 267.5 137 c 128,-1,107
 227 131 227 131 199 123 c 1,108,-1
 196 68 l 1,98,99
348 -5 m 256,109,110
 506 -5 506 -5 506 26 c 0,111,112
 506 41 506 41 465 49 c 0,113,114
 444 53 444 53 415 55 c 128,-1,115
 386 57 386 57 348 57 c 256,116,117
 310 57 310 57 281.5 55.5 c 128,-1,118
 253 54 253 54 232 49 c 0,119,120
 190 40 190 40 190 26 c 0,121,122
 190 -5 190 -5 348 -5 c 256,109,110
EndSplineSet
EndChar
StartChar: uni2659
Encoding: 9817 9817 1891
Width: 730
Flags: W
LayerCount: 2
Fore
SplineSet
51 0 m 1,0,-1
 51 37 l 2,1,2
 51 115 51 115 75.5 180.5 c 128,-1,3
 100 246 100 246 145 293 c 128,-1,4
 190 340 190 340 251 360 c 1,5,6
 183 404 183 404 183 473 c 0,7,8
 183 526 183 526 216 565 c 128,-1,9
 249 604 249 604 310 623 c 1,10,11
 289 630 289 630 276.5 647.5 c 128,-1,12
 264 665 264 665 264 688 c 0,13,14
 264 719 264 719 291 737 c 128,-1,15
 318 755 318 755 365 755 c 0,16,17
 411 755 411 755 438.5 737 c 128,-1,18
 466 719 466 719 466 688 c 0,19,20
 466 665 466 665 453 647.5 c 128,-1,21
 440 630 440 630 420 623 c 1,22,23
 480 604 480 604 513.5 565 c 128,-1,24
 547 526 547 526 547 473 c 0,25,26
 547 404 547 404 479 360 c 1,27,28
 541 340 541 340 586 293 c 128,-1,29
 631 246 631 246 655 180 c 128,-1,30
 679 114 679 114 679 37 c 2,31,-1
 679 0 l 1,32,-1
 51 0 l 1,0,-1
111 55 m 1,33,-1
 619 55 l 1,34,35
 619 120 619 120 594 176.5 c 128,-1,36
 569 233 569 233 523.5 275.5 c 128,-1,37
 478 318 478 318 415 338 c 1,38,-1
 415 376 l 1,39,40
 494 412 494 412 494 475 c 0,41,42
 494 567 494 567 380 606 c 1,43,-1
 380 637 l 1,44,45
 423 655 423 655 423 688 c 0,46,47
 423 704 423 704 407.5 715.5 c 128,-1,48
 392 727 392 727 365 727 c 256,49,50
 338 727 338 727 322.5 715.5 c 128,-1,51
 307 704 307 704 307 688 c 0,52,53
 307 655 307 655 350 637 c 1,54,-1
 350 606 l 1,55,56
 236 567 236 567 236 475 c 0,57,58
 236 412 236 412 315 376 c 1,59,-1
 315 338 l 1,60,61
 252 318 252 318 206.5 275.5 c 128,-1,62
 161 233 161 233 136 176.5 c 128,-1,63
 111 120 111 120 111 55 c 1,33,-1
EndSplineSet
EndChar
StartChar: uni265A
Encoding: 9818 9818 1892
Width: 696
Flags: W
LayerCount: 2
Fore
SplineSet
348 -34 m 0,0,1
 302 -34 302 -34 265 -30 c 128,-1,2
 228 -26 228 -26 201 -18 c 0,3,4
 147 -3 147 -3 147 24 c 2,5,-1
 161 227 l 1,6,7
 51 343 51 343 51 436 c 0,8,9
 51 499 51 499 83.5 536 c 128,-1,10
 116 573 116 573 173 573 c 0,11,12
 239 573 239 573 287 525 c 1,13,-1
 283 591 l 2,14,15
 283 628 283 628 331 636 c 1,16,-1
 331 696 l 1,17,-1
 290 696 l 1,18,-1
 290 716 l 1,19,-1
 331 716 l 1,20,-1
 331 753 l 1,21,-1
 365 753 l 1,22,-1
 365 716 l 1,23,-1
 406 716 l 1,24,-1
 406 696 l 1,25,-1
 365 696 l 1,26,-1
 365 636 l 1,27,28
 413 628 413 628 413 589 c 2,29,-1
 409 525 l 1,30,31
 456 573 456 573 523 573 c 0,32,33
 580 573 580 573 612.5 536 c 128,-1,34
 645 499 645 499 645 436 c 0,35,36
 645 393 645 393 620.5 342.5 c 128,-1,37
 596 292 596 292 535 227 c 1,38,-1
 549 24 l 2,39,40
 549 -4 549 -4 495 -19 c 0,41,42
 440 -34 440 -34 348 -34 c 0,0,1
348 422 m 1,43,44
 360 459 360 459 376 483 c 1,45,-1
 376 578 l 2,46,47
 376 611 376 611 348 611 c 256,48,49
 320 611 320 611 320 578 c 2,50,-1
 320 483 l 1,51,52
 333 462 333 462 348 422 c 1,43,44
348 448 m 1,53,54
 346 454 346 454 344.5 460 c 128,-1,55
 343 466 343 466 342 472 c 0,56,57
 340 477 340 477 338 482 c 128,-1,58
 336 487 336 487 335 491 c 2,59,-1
 335 562 l 2,60,61
 335 570 335 570 337 577.5 c 128,-1,62
 339 585 339 585 348 585 c 0,63,64
 360 585 360 585 360 562 c 2,65,-1
 360 491 l 2,66,67
 358 487 358 487 357 482 c 128,-1,68
 356 477 356 477 354 472 c 0,69,70
 352 466 352 466 351 460 c 128,-1,71
 350 454 350 454 348 448 c 1,53,54
195 247 m 1,72,73
 270 262 270 262 327 262 c 1,74,-1
 327 294 l 2,75,76
 327 338 327 338 315.5 380 c 128,-1,77
 304 422 304 422 283 456 c 128,-1,78
 262 490 262 490 234.5 510.5 c 128,-1,79
 207 531 207 531 175 531 c 0,80,81
 138 531 138 531 117 504.5 c 128,-1,82
 96 478 96 478 96 431 c 0,83,84
 96 393 96 393 124 342 c 128,-1,85
 152 291 152 291 195 247 c 1,72,73
501 247 m 1,86,87
 545 293 545 293 572.5 343 c 128,-1,88
 600 393 600 393 600 431 c 0,89,90
 600 476 600 476 580 503.5 c 128,-1,91
 560 531 560 531 521 531 c 0,92,93
 489 531 489 531 461 510.5 c 128,-1,94
 433 490 433 490 412.5 456 c 128,-1,95
 392 422 392 422 380.5 380.5 c 128,-1,96
 369 339 369 339 369 298 c 2,97,-1
 369 262 l 1,98,99
 393 262 393 262 431 257.5 c 128,-1,100
 469 253 469 253 501 247 c 1,86,87
199 279 m 1,101,102
 127 363 127 363 127 422 c 0,103,104
 127 457 127 457 141.5 478 c 128,-1,105
 156 499 156 499 185 499 c 0,106,107
 218 499 218 499 244.5 468.5 c 128,-1,108
 271 438 271 438 286.5 391 c 128,-1,109
 302 344 302 344 302 295 c 2,110,-1
 302 290 l 1,111,112
 284 290 284 290 258.5 287 c 128,-1,113
 233 284 233 284 199 279 c 1,101,102
497 279 m 1,114,115
 463 284 463 284 437.5 287 c 128,-1,116
 412 290 412 290 394 290 c 1,117,-1
 394 295 l 2,118,119
 394 343 394 343 409.5 390 c 128,-1,120
 425 437 425 437 451.5 468 c 128,-1,121
 478 499 478 499 511 499 c 0,122,123
 540 499 540 499 554.5 478 c 128,-1,124
 569 457 569 457 569 422 c 0,125,126
 569 363 569 363 497 279 c 1,114,115
201 149 m 1,127,128
 211 153 211 153 234.5 157 c 128,-1,129
 258 161 258 161 288 163.5 c 128,-1,130
 318 166 318 166 348 166 c 0,131,132
 376 166 376 166 405.5 163.5 c 128,-1,133
 435 161 435 161 459.5 157 c 128,-1,134
 484 153 484 153 496 149 c 1,135,-1
 494 177 l 1,136,137
 426 194 426 194 348 194 c 0,138,139
 308 194 308 194 271.5 189.5 c 128,-1,140
 235 185 235 185 203 177 c 1,141,-1
 201 149 l 1,127,128
194 72 m 1,142,143
 246 90 246 90 348 90 c 0,144,145
 449 90 449 90 503 72 c 1,146,-1
 500 98 l 1,147,148
 472 106 472 106 430 112 c 128,-1,149
 388 118 388 118 348 118 c 256,150,151
 308 118 308 118 266 112 c 128,-1,152
 224 106 224 106 196 98 c 1,153,-1
 194 72 l 1,142,143
EndSplineSet
EndChar
StartChar: uni2662
Encoding: 9826 9826 1900
Width: 605
Flags: W
LayerCount: 2
Fore
SplineSet
303 -14 m 1,0,-1
 51 357 l 1,1,-1
 303 728 l 1,2,-1
 555 357 l 1,3,-1
 303 -14 l 1,0,-1
303 87 m 1,4,-1
 487 357 l 1,5,-1
 303 627 l 1,6,-1
 118 357 l 1,7,-1
 303 87 l 1,4,-1
EndSplineSet
EndChar
StartChar: club
Encoding: 9827 9827 1901
Width: 876
Flags: W
LayerCount: 2
Fore
SplineSet
204 0 m 1,0,-1
 204 79 l 1,1,2
 304 79 304 79 348.5 116 c 128,-1,3
 393 153 393 153 393 242 c 1,4,5
 379 204 379 204 338 182 c 128,-1,6
 297 160 297 160 240 160 c 0,7,8
 184 160 184 160 141.5 182.5 c 128,-1,9
 99 205 99 205 75 244.5 c 128,-1,10
 51 284 51 284 51 336 c 256,11,12
 51 388 51 388 73 427.5 c 128,-1,13
 95 467 95 467 131.5 490 c 128,-1,14
 168 513 168 513 212 513 c 0,15,16
 240 513 240 513 263 505.5 c 128,-1,17
 286 498 286 498 311 476 c 1,18,-1
 311 480 l 1,19,20
 291 494 291 494 273.5 526 c 128,-1,21
 256 558 256 558 256 587 c 0,22,23
 256 660 256 660 307 704.5 c 128,-1,24
 358 749 358 749 438 749 c 256,25,26
 518 749 518 749 569 704.5 c 128,-1,27
 620 660 620 660 620 587 c 0,28,29
 620 558 620 558 602.5 526 c 128,-1,30
 585 494 585 494 565 480 c 1,31,-1
 565 476 l 1,32,33
 590 498 590 498 612.5 505.5 c 128,-1,34
 635 513 635 513 664 513 c 0,35,36
 707 513 707 513 743.5 490 c 128,-1,37
 780 467 780 467 802.5 427.5 c 128,-1,38
 825 388 825 388 825 336 c 256,39,40
 825 284 825 284 800.5 244.5 c 128,-1,41
 776 205 776 205 733.5 182.5 c 128,-1,42
 691 160 691 160 636 160 c 0,43,44
 579 160 579 160 538.5 182 c 128,-1,45
 498 204 498 204 483 242 c 1,46,47
 483 153 483 153 527.5 116 c 128,-1,48
 572 79 572 79 672 79 c 1,49,-1
 672 0 l 1,50,-1
 204 0 l 1,0,-1
EndSplineSet
EndChar
StartChar: uni2681
Encoding: 9857 9857 1907
Width: 778
Flags: W
LayerCount: 2
Fore
SplineSet
51 0 m 1,0,-1
 51 676 l 1,1,-1
 727 676 l 1,2,-1
 727 0 l 1,3,-1
 51 0 l 1,0,-1
99 48 m 1,4,-1
 679 48 l 1,5,-1
 679 628 l 1,6,-1
 99 628 l 1,7,-1
 99 48 l 1,4,-1
213 449 m 256,8,9
 188 449 188 449 170.5 467 c 128,-1,10
 153 485 153 485 153 509 c 0,11,12
 153 532 153 532 170 550.5 c 128,-1,13
 187 569 187 569 213 569 c 0,14,15
 238 569 238 569 255.5 551.5 c 128,-1,16
 273 534 273 534 273 509 c 256,17,18
 273 484 273 484 255.5 466.5 c 128,-1,19
 238 449 238 449 213 449 c 256,8,9
565 107 m 256,20,21
 540 107 540 107 522.5 125 c 128,-1,22
 505 143 505 143 505 167 c 0,23,24
 505 190 505 190 522 208.5 c 128,-1,25
 539 227 539 227 565 227 c 0,26,27
 590 227 590 227 607.5 209.5 c 128,-1,28
 625 192 625 192 625 167 c 256,29,30
 625 142 625 142 607.5 124.5 c 128,-1,31
 590 107 590 107 565 107 c 256,20,21
EndSplineSet
EndChar
StartChar: uni269E
Encoding: 9886 9886 315
Width: 731
Flags: W
LayerCount: 2
Fore
SplineSet
658 432 m 1,0,-1
 101 666 l 1,1,-1
 123 716 l 1,2,-1
 680 481 l 1,3,-1
 658 432 l 1,0,-1
51 327 m 1,4,-1
 51 381 l 1,5,-1
 656 381 l 1,6,-1
 656 327 l 1,7,-1
 51 327 l 1,4,-1
123 -8 m 1,8,-1
 101 42 l 1,9,-1
 658 276 l 1,10,-1
 680 227 l 1,11,-1
 123 -8 l 1,8,-1
EndSplineSet
EndChar
StartChar: uni26C7
Encoding: 9927 9927 324
Width: 916
Flags: W
LayerCount: 2
Fore
SplineSet
538 660 m 256,0,1
 528 660 528 660 521 667 c 128,-1,2
 514 674 514 674 514 684 c 256,3,4
 514 694 514 694 521 701 c 128,-1,5
 528 708 528 708 538 708 c 256,6,7
 548 708 548 708 555 701 c 128,-1,8
 562 694 562 694 562 684 c 256,9,10
 562 674 562 674 555 667 c 128,-1,11
 548 660 548 660 538 660 c 256,0,1
378 660 m 256,12,13
 368 660 368 660 361 667 c 128,-1,14
 354 674 354 674 354 684 c 256,15,16
 354 694 354 694 361 701 c 128,-1,17
 368 708 368 708 378 708 c 256,18,19
 388 708 388 708 395 701 c 128,-1,20
 402 694 402 694 402 684 c 256,21,22
 402 674 402 674 395 667 c 128,-1,23
 388 660 388 660 378 660 c 256,12,13
789 648 m 256,24,25
 779 648 779 648 772 655 c 128,-1,26
 765 662 765 662 765 672 c 256,27,28
 765 682 765 682 772 689 c 128,-1,29
 779 696 779 696 789 696 c 256,30,31
 799 696 799 696 806 689 c 128,-1,32
 813 682 813 682 813 672 c 256,33,34
 813 662 813 662 806 655 c 128,-1,35
 799 648 799 648 789 648 c 256,24,25
127 648 m 256,36,37
 117 648 117 648 110 655 c 128,-1,38
 103 662 103 662 103 672 c 256,39,40
 103 682 103 682 110 689 c 128,-1,41
 117 696 117 696 127 696 c 256,42,43
 137 696 137 696 144 689 c 128,-1,44
 151 682 151 682 151 672 c 256,45,46
 151 662 151 662 144 655 c 128,-1,47
 137 648 137 648 127 648 c 256,36,37
667 637 m 256,48,49
 657 637 657 637 650 644 c 128,-1,50
 643 651 643 651 643 661 c 256,51,52
 643 671 643 671 650 678 c 128,-1,53
 657 685 657 685 667 685 c 256,54,55
 677 685 677 685 684 678 c 128,-1,56
 691 671 691 671 691 661 c 256,57,58
 691 651 691 651 684 644 c 128,-1,59
 677 637 677 637 667 637 c 256,48,49
249 637 m 256,60,61
 239 637 239 637 232 644 c 128,-1,62
 225 651 225 651 225 661 c 256,63,64
 225 671 225 671 232 678 c 128,-1,65
 239 685 239 685 249 685 c 256,66,67
 259 685 259 685 266 678 c 128,-1,68
 273 671 273 671 273 661 c 256,69,70
 273 651 273 651 266 644 c 128,-1,71
 259 637 259 637 249 637 c 256,60,61
458 -36 m 256,72,73
 316 -36 316 -36 245 18 c 128,-1,74
 174 72 174 72 174 174 c 0,75,76
 174 225 174 225 192 264 c 1,77,-1
 138 303 l 1,78,-1
 52 296 l 1,79,-1
 51 313 l 1,80,-1
 130 319 l 1,81,-1
 66 364 l 1,82,-1
 77 379 l 1,83,-1
 139 333 l 1,84,-1
 141 334 l 1,85,-1
 121 412 l 1,86,-1
 138 417 l 1,87,-1
 159 333 l 1,88,-1
 210 294 l 1,89,90
 237 330 237 330 286 351 c 1,91,92
 258 373 258 373 246 399.5 c 128,-1,93
 234 426 234 426 234 460 c 0,94,95
 234 543 234 543 292 587 c 128,-1,96
 350 631 350 631 458 631 c 0,97,98
 565 631 565 631 623.5 587 c 128,-1,99
 682 543 682 543 682 460 c 0,100,101
 682 390 682 390 630 351 c 1,102,103
 678 330 678 330 705 294 c 1,104,-1
 757 333 l 1,105,-1
 778 417 l 1,106,-1
 795 412 l 1,107,-1
 775 334 l 1,108,-1
 777 333 l 1,109,-1
 839 379 l 1,110,-1
 850 364 l 1,111,-1
 786 319 l 1,112,-1
 865 313 l 1,113,-1
 864 296 l 1,114,-1
 778 303 l 1,115,-1
 724 264 l 1,116,117
 742 222 742 222 742 174 c 0,118,119
 742 73 742 73 671 18.5 c 128,-1,120
 600 -36 600 -36 458 -36 c 256,72,73
193 551 m 256,121,122
 183 551 183 551 176 558 c 128,-1,123
 169 565 169 565 169 575 c 256,124,125
 169 585 169 585 176 592 c 128,-1,126
 183 599 183 599 193 599 c 256,127,128
 203 599 203 599 210 592 c 128,-1,129
 217 585 217 585 217 575 c 256,130,131
 217 565 217 565 210 558 c 128,-1,132
 203 551 203 551 193 551 c 256,121,122
723 551 m 256,133,134
 713 551 713 551 706 558 c 128,-1,135
 699 565 699 565 699 575 c 256,136,137
 699 585 699 585 706 592 c 128,-1,138
 713 599 713 599 723 599 c 256,139,140
 733 599 733 599 740 592 c 128,-1,141
 747 585 747 585 747 575 c 256,142,143
 747 565 747 565 740 558 c 128,-1,144
 733 551 733 551 723 551 c 256,133,134
803 494 m 256,145,146
 793 494 793 494 786 501 c 128,-1,147
 779 508 779 508 779 518 c 256,148,149
 779 528 779 528 786 535 c 128,-1,150
 793 542 793 542 803 542 c 256,151,152
 813 542 813 542 820 535 c 128,-1,153
 827 528 827 528 827 518 c 256,154,155
 827 508 827 508 820 501 c 128,-1,156
 813 494 813 494 803 494 c 256,145,146
113 494 m 256,157,158
 103 494 103 494 96 501 c 128,-1,159
 89 508 89 508 89 518 c 256,160,161
 89 528 89 528 96 535 c 128,-1,162
 103 542 103 542 113 542 c 256,163,164
 123 542 123 542 130 535 c 128,-1,165
 137 528 137 528 137 518 c 256,166,167
 137 508 137 508 130 501 c 128,-1,168
 123 494 123 494 113 494 c 256,157,158
380 431 m 256,169,170
 394 431 394 431 403 440 c 128,-1,171
 412 449 412 449 412 463 c 256,172,173
 412 477 412 477 403 486 c 128,-1,174
 394 495 394 495 380 495 c 256,175,176
 366 495 366 495 357 486 c 128,-1,177
 348 477 348 477 348 463 c 256,178,179
 348 449 348 449 357 440 c 128,-1,180
 366 431 366 431 380 431 c 256,169,170
536 431 m 256,181,182
 550 431 550 431 559 440 c 128,-1,183
 568 449 568 449 568 463 c 256,184,185
 568 477 568 477 559 486 c 128,-1,186
 550 495 550 495 536 495 c 256,187,188
 522 495 522 495 513 486 c 128,-1,189
 504 477 504 477 504 463 c 256,190,191
 504 449 504 449 513 440 c 128,-1,192
 522 431 522 431 536 431 c 256,181,182
179 416 m 256,193,194
 169 416 169 416 162 423 c 128,-1,195
 155 430 155 430 155 440 c 256,196,197
 155 450 155 450 162 457 c 128,-1,198
 169 464 169 464 179 464 c 256,199,200
 189 464 189 464 196 457 c 128,-1,201
 203 450 203 450 203 440 c 256,202,203
 203 430 203 430 196 423 c 128,-1,204
 189 416 189 416 179 416 c 256,193,194
737 416 m 256,205,206
 727 416 727 416 720 423 c 128,-1,207
 713 430 713 430 713 440 c 256,208,209
 713 450 713 450 720 457 c 128,-1,210
 727 464 727 464 737 464 c 256,211,212
 747 464 747 464 754 457 c 128,-1,213
 761 450 761 450 761 440 c 256,214,215
 761 430 761 430 754 423 c 128,-1,216
 747 416 747 416 737 416 c 256,205,206
458 298 m 0,217,218
 464 298 464 298 470 311 c 0,219,220
 473 318 473 318 475 330 c 128,-1,221
 477 342 477 342 479 359 c 2,222,-1
 487 416 l 1,223,-1
 429 416 l 1,224,225
 431 394 431 394 434.5 366.5 c 128,-1,226
 438 339 438 339 444 318.5 c 128,-1,227
 450 298 450 298 458 298 c 0,217,218
EndSplineSet
EndChar
StartChar: uni26C9
Encoding: 9929 9929 325
Width: 628
Flags: W
LayerCount: 2
Fore
SplineSet
314 -4 m 1,0,-1
 96 120 l 1,1,-1
 51 529 l 1,2,-1
 577 529 l 1,3,-1
 532 120 l 1,4,-1
 314 -4 l 1,0,-1
314 50 m 1,5,-1
 487 148 l 1,6,-1
 525 482 l 1,7,-1
 103 482 l 1,8,-1
 141 148 l 1,9,-1
 314 50 l 1,5,-1
EndSplineSet
EndChar
StartChar: uni26CA
Encoding: 9930 9930 326
Width: 628
Flags: W
LayerCount: 2
Fore
SplineSet
314 -4 m 1,0,-1
 96 120 l 1,1,-1
 51 529 l 1,2,-1
 577 529 l 1,3,-1
 532 120 l 1,4,-1
 314 -4 l 1,0,-1
EndSplineSet
EndChar
StartChar: uni26CD
Encoding: 9933 9933 1914
Width: 874
Flags: W
LayerCount: 2
Fore
SplineSet
88 427 m 2,0,1
 80 427 80 427 78.5 435 c 128,-1,2
 77 443 77 443 77 453 c 2,3,-1
 77 497 l 1,4,5
 60 501 60 501 55.5 516 c 128,-1,6
 51 531 51 531 51 557 c 0,7,8
 51 622 51 622 68 633 c 0,9,10
 70 634 70 634 72 635.5 c 128,-1,11
 74 637 74 637 76 638 c 0,12,13
 84 641 84 641 92.5 651 c 128,-1,14
 101 661 101 661 108 678 c 2,15,-1
 127 726 l 2,16,17
 132 738 132 738 145.5 748 c 128,-1,18
 159 758 159 758 184 758 c 2,19,-1
 305 758 l 2,20,21
 330 758 330 758 344 748 c 128,-1,22
 358 738 358 738 362 726 c 2,23,-1
 381 678 l 2,24,25
 389 657 389 657 397 650.5 c 128,-1,26
 405 644 405 644 414 638 c 0,27,28
 416 636 416 636 418 635 c 128,-1,29
 420 634 420 634 421 633 c 0,30,31
 432 626 432 626 435 606 c 128,-1,32
 438 586 438 586 438 557 c 0,33,34
 438 531 438 531 433 516 c 128,-1,35
 428 501 428 501 412 497 c 1,36,-1
 412 453 l 2,37,38
 412 443 412 443 410 435 c 128,-1,39
 408 427 408 427 401 427 c 2,40,-1
 369 427 l 2,41,42
 362 427 362 427 360 435 c 128,-1,43
 358 443 358 443 358 453 c 2,44,-1
 358 497 l 1,45,-1
 131 497 l 1,46,-1
 131 453 l 2,47,48
 131 443 131 443 129.5 435 c 128,-1,49
 128 427 128 427 120 427 c 2,50,-1
 88 427 l 2,0,1
176 636 m 2,51,-1
 307 636 l 2,52,53
 327 636 327 636 327 652 c 0,54,55
 327 655 327 655 326.5 658.5 c 128,-1,56
 326 662 326 662 325 667 c 0,57,58
 324 671 324 671 318.5 683.5 c 128,-1,59
 313 696 313 696 303 716 c 1,60,-1
 180 716 l 1,61,-1
 164 682 l 2,62,63
 156 664 156 664 156 652 c 0,64,65
 156 636 156 636 176 636 c 2,51,-1
127 0 m 1,66,-1
 475 427 l 1,67,-1
 823 0 l 1,68,-1
 127 0 l 1,66,-1
296 80 m 1,69,-1
 654 80 l 1,70,-1
 475 301 l 1,71,-1
 296 80 l 1,69,-1
EndSplineSet
EndChar
StartChar: uni26D5
Encoding: 9941 9941 1917
Width: 830
Flags: W
LayerCount: 2
Fore
SplineSet
164 0 m 1,0,-1
 164 641 l 1,1,-1
 84 565 l 1,2,-1
 51 604 l 1,3,-1
 220 765 l 1,4,-1
 389 604 l 1,5,-1
 356 565 l 1,6,-1
 276 641 l 1,7,-1
 276 525 l 1,8,9
 211 485 211 485 211 384 c 0,10,11
 211 284 211 284 276 243 c 1,12,-1
 276 0 l 1,13,-1
 164 0 l 1,0,-1
610 -15 m 1,14,-1
 441 146 l 1,15,-1
 474 185 l 1,16,-1
 554 109 l 1,17,-1
 554 172 l 2,18,19
 554 209 554 209 545.5 221.5 c 128,-1,20
 537 234 537 234 506 234 c 2,21,-1
 420 234 l 2,22,23
 350 234 350 234 312 271.5 c 128,-1,24
 274 309 274 309 274 378 c 256,25,26
 274 447 274 447 312 484.5 c 128,-1,27
 350 522 350 522 420 522 c 2,28,-1
 506 522 l 2,29,30
 537 522 537 522 545.5 534.5 c 128,-1,31
 554 547 554 547 554 584 c 2,32,-1
 554 738 l 1,33,-1
 666 738 l 1,34,-1
 666 526 l 2,35,36
 666 468 666 468 643 441.5 c 128,-1,37
 620 415 620 415 566 415 c 2,38,-1
 420 415 l 2,39,40
 405 415 405 415 395.5 404 c 128,-1,41
 386 393 386 393 386 378 c 256,42,43
 386 363 386 363 395.5 352 c 128,-1,44
 405 341 405 341 420 341 c 2,45,-1
 566 341 l 2,46,47
 620 341 620 341 643 314.5 c 128,-1,48
 666 288 666 288 666 230 c 2,49,-1
 666 109 l 1,50,-1
 746 185 l 1,51,-1
 779 146 l 1,52,-1
 610 -15 l 1,14,-1
EndSplineSet
EndChar
StartChar: uni26D8
Encoding: 9944 9944 1920
Width: 790
Flags: W
LayerCount: 2
Fore
SplineSet
51 0 m 1,0,-1
 51 439 l 1,1,-1
 191 605 l 1,2,-1
 191 760 l 1,3,-1
 739 760 l 1,4,-1
 739 0 l 1,5,-1
 51 0 l 1,0,-1
EndSplineSet
EndChar
StartChar: uni2700
Encoding: 9984 9984 463
Width: 1043
Flags: W
LayerCount: 2
Fore
SplineSet
211 -72 m 0,0,1
 166 -72 166 -72 129.5 -50 c 128,-1,2
 93 -28 93 -28 72 7.5 c 128,-1,3
 51 43 51 43 51 84 c 0,4,5
 51 140 51 140 84.5 182 c 128,-1,6
 118 224 118 224 177 239 c 2,7,-1
 213 248 l 2,8,9
 258 259 258 259 293 272 c 128,-1,10
 328 285 328 285 351 306 c 1,11,12
 334 325 334 325 296 342 c 128,-1,13
 258 359 258 359 220 366 c 256,14,15
 182 373 182 373 144.5 393 c 128,-1,16
 107 413 107 413 86 447 c 0,17,18
 65 480 65 480 65 526 c 0,19,20
 65 571 65 571 87.5 606.5 c 128,-1,21
 110 642 110 642 146 663 c 128,-1,22
 182 684 182 684 223 684 c 256,23,24
 264 684 264 684 299 667 c 128,-1,25
 334 650 334 650 356.5 616.5 c 128,-1,26
 379 583 379 583 382 534 c 0,27,28
 386 461 386 461 391 438 c 1,29,-1
 471 438 l 1,30,-1
 519 406 l 1,31,-1
 723 522 l 2,32,33
 796 564 796 564 857 564 c 0,34,35
 888 564 888 564 919 553 c 128,-1,36
 950 542 950 542 971 525 c 128,-1,37
 992 508 992 508 992 490 c 0,38,39
 992 477 992 477 972 464 c 2,40,-1
 689 294 l 1,41,-1
 966 115 l 2,42,43
 977 108 977 108 981.5 100.5 c 128,-1,44
 986 93 986 93 986 86 c 0,45,46
 986 68 986 68 966.5 53 c 128,-1,47
 947 38 947 38 917.5 29 c 128,-1,48
 888 20 888 20 857 20 c 0,49,50
 794 20 794 20 735 58 c 2,51,-1
 519 196 l 1,52,-1
 461 164 l 1,53,-1
 385 168 l 1,54,55
 380 159 380 159 375 108 c 0,56,57
 370 59 370 59 357.5 27 c 128,-1,58
 345 -5 345 -5 325 -27 c 0,59,60
 283 -72 283 -72 211 -72 c 0,0,1
233 426 m 0,61,62
 274 426 274 426 301.5 455 c 128,-1,63
 329 484 329 484 329 524 c 0,64,65
 329 565 329 565 301.5 592.5 c 128,-1,66
 274 620 274 620 233 620 c 256,67,68
 192 620 192 620 163.5 592 c 128,-1,69
 135 564 135 564 135 524 c 256,70,71
 135 484 135 484 164 455 c 128,-1,72
 193 426 193 426 233 426 c 0,61,62
529 254 m 0,73,74
 549 254 549 254 562 268 c 128,-1,75
 575 282 575 282 575 302 c 256,76,77
 575 322 575 322 562 335 c 128,-1,78
 549 348 549 348 529 348 c 0,79,80
 510 348 510 348 495.5 335 c 128,-1,81
 481 322 481 322 481 302 c 256,82,83
 481 282 481 282 495.5 268 c 128,-1,84
 510 254 510 254 529 254 c 0,73,74
529 278 m 256,85,86
 518 278 518 278 510.5 285 c 128,-1,87
 503 292 503 292 503 302 c 256,88,89
 503 312 503 312 510.5 320 c 128,-1,90
 518 328 518 328 529 328 c 256,91,92
 540 328 540 328 546.5 320 c 128,-1,93
 553 312 553 312 553 302 c 256,94,95
 553 292 553 292 546.5 285 c 128,-1,96
 540 278 540 278 529 278 c 256,85,86
217 -4 m 0,97,98
 258 -4 258 -4 287.5 23 c 128,-1,99
 317 50 317 50 317 90 c 0,100,101
 317 133 317 133 288.5 161.5 c 128,-1,102
 260 190 260 190 219 190 c 0,103,104
 181 190 181 190 152 163 c 128,-1,105
 123 136 123 136 123 96 c 0,106,107
 123 55 123 55 150 25.5 c 128,-1,108
 177 -4 177 -4 217 -4 c 0,97,98
EndSplineSet
EndChar
StartChar: uni2707
Encoding: 9991 9991 332
Width: 862
Flags: W
LayerCount: 2
Fore
SplineSet
431 -66 m 256,0,1
 352 -66 352 -66 283 -36.5 c 128,-1,2
 214 -7 214 -7 162 45 c 128,-1,3
 110 97 110 97 80.5 166 c 128,-1,4
 51 235 51 235 51 314 c 0,5,6
 51 392 51 392 80.5 461 c 128,-1,7
 110 530 110 530 162 582.5 c 128,-1,8
 214 635 214 635 283 664.5 c 128,-1,9
 352 694 352 694 431 694 c 256,10,11
 510 694 510 694 579 664.5 c 128,-1,12
 648 635 648 635 700 583 c 128,-1,13
 752 531 752 531 781.5 462 c 128,-1,14
 811 393 811 393 811 314 c 256,15,16
 811 235 811 235 781.5 166 c 128,-1,17
 752 97 752 97 700 45 c 128,-1,18
 648 -7 648 -7 579 -36.5 c 128,-1,19
 510 -66 510 -66 431 -66 c 256,0,1
431 -36 m 0,20,21
 503 -36 503 -36 566 -8.5 c 128,-1,22
 629 19 629 19 677 67 c 128,-1,23
 725 115 725 115 752 178.5 c 128,-1,24
 779 242 779 242 779 314 c 256,25,26
 779 386 779 386 752.5 449 c 128,-1,27
 726 512 726 512 678.5 560 c 128,-1,28
 631 608 631 608 567.5 635 c 128,-1,29
 504 662 504 662 431 662 c 0,30,31
 359 662 359 662 295.5 635 c 128,-1,32
 232 608 232 608 183.5 560.5 c 128,-1,33
 135 513 135 513 108 450 c 128,-1,34
 81 387 81 387 81 314 c 0,35,36
 81 242 81 242 108 178.5 c 128,-1,37
 135 115 135 115 183 66.5 c 128,-1,38
 231 18 231 18 294.5 -9 c 128,-1,39
 358 -36 358 -36 431 -36 c 0,20,21
351 428 m 1,40,-1
 377 624 l 1,41,42
 412 630 412 630 431 630 c 0,43,44
 440 630 440 630 459.5 628 c 128,-1,45
 479 626 479 626 485 624 c 1,46,-1
 509 428 l 1,47,48
 465 450 465 450 431 450 c 0,49,50
 396 450 396 450 351 428 c 1,40,-1
431 208 m 0,51,52
 387 208 387 208 356 238.5 c 128,-1,53
 325 269 325 269 325 314 c 0,54,55
 325 358 325 358 355.5 389 c 128,-1,56
 386 420 386 420 431 420 c 0,57,58
 475 420 475 420 506 389.5 c 128,-1,59
 537 359 537 359 537 314 c 0,60,61
 537 270 537 270 506.5 239 c 128,-1,62
 476 208 476 208 431 208 c 0,51,52
187 110 m 1,63,64
 179 116 179 116 167.5 133.5 c 128,-1,65
 156 151 156 151 146 170.5 c 128,-1,66
 136 190 136 190 133 204 c 1,67,-1
 291 324 l 1,68,69
 295 269 295 269 313.5 240 c 128,-1,70
 332 211 332 211 369 188 c 1,71,-1
 187 110 l 1,63,64
673 110 m 1,72,-1
 491 188 l 1,73,74
 529 213 529 213 546.5 242 c 128,-1,75
 564 271 564 271 569 324 c 1,76,-1
 727 204 l 1,77,78
 723 188 723 188 713.5 168.5 c 128,-1,79
 704 149 704 149 693 132.5 c 128,-1,80
 682 116 682 116 673 110 c 1,72,-1
EndSplineSet
EndChar
StartChar: uni2713
Encoding: 10003 10003 337
Width: 829
Flags: W
LayerCount: 2
Fore
SplineSet
209 -44 m 1,0,1
 209 -31 209 -31 204 -31 c 2,2,-1
 181 -42 l 1,3,4
 181 -35 181 -35 173 -32 c 2,5,-1
 165 -31 l 2,6,7
 157 -31 157 -31 145 -38 c 1,8,9
 143 -34 143 -34 140 -29 c 128,-1,10
 137 -24 137 -24 135 -19 c 0,11,12
 122 6 122 6 109.5 36.5 c 128,-1,13
 97 67 97 67 86.5 94.5 c 128,-1,14
 76 122 76 122 70 139 c 0,15,16
 66 152 66 152 61 178 c 128,-1,17
 56 204 56 204 51 244 c 1,18,19
 62 237 62 237 68 237 c 0,20,21
 75 237 75 237 81 258 c 1,22,23
 84 254 84 254 92 254 c 0,24,25
 98 254 98 254 101 258 c 2,26,-1
 117 282 l 1,27,-1
 135 276 l 1,28,-1
 136 276 l 2,29,30
 138 276 138 276 140 278 c 128,-1,31
 142 280 142 280 146 282 c 0,32,33
 154 287 154 287 158 287 c 2,34,-1
 161 286 l 2,35,36
 186 274 186 274 193 242 c 0,37,38
 211 166 211 166 229 166 c 256,39,40
 247 166 247 166 271 204 c 0,41,42
 283 223 283 223 295.5 248 c 128,-1,43
 308 273 308 273 321 304 c 1,44,45
 322 292 322 292 325 292 c 0,46,47
 330 292 330 292 342.5 317 c 128,-1,48
 355 342 355 342 383 386 c 0,49,50
 399 413 399 413 423.5 447 c 128,-1,51
 448 481 448 481 476 517 c 128,-1,52
 504 553 504 553 530.5 585 c 128,-1,53
 557 617 557 617 577.5 640 c 128,-1,54
 598 663 598 663 609 670 c 0,55,56
 647 696 647 696 669 720 c 1,57,58
 668 712 668 712 666.5 707 c 128,-1,59
 665 702 665 702 665 700 c 0,60,61
 665 696 665 696 669 696 c 2,62,-1
 697 710 l 1,63,-1
 697 706 l 2,64,65
 697 698 697 698 701 698 c 0,66,67
 704 698 704 698 713 707 c 128,-1,68
 722 716 722 716 723 720 c 2,69,-1
 721 706 l 1,70,-1
 755 726 l 1,71,-1
 747 708 l 1,72,73
 763 719 763 719 770 719 c 0,74,75
 774 719 774 719 776 714.5 c 128,-1,76
 778 710 778 710 778 706 c 0,77,78
 778 700 778 700 773 692 c 128,-1,79
 768 684 768 684 760 673 c 0,80,81
 754 665 754 665 740 649.5 c 128,-1,82
 726 634 726 634 699.5 604 c 128,-1,83
 673 574 673 574 628 523 c 0,84,85
 616 510 616 510 591 477.5 c 128,-1,86
 566 445 566 445 534.5 402.5 c 128,-1,87
 503 360 503 360 472 317 c 128,-1,88
 441 274 441 274 417 239.5 c 128,-1,89
 393 205 393 205 383 188 c 2,90,-1
 321 83 l 2,91,92
 301 49 301 49 288 27.5 c 128,-1,93
 275 6 275 6 268 -2 c 0,94,95
 253 -20 253 -20 235 -34 c 1,96,-1
 226 -29 l 1,97,-1
 218 -34 l 1,98,-1
 209 -44 l 1,0,1
EndSplineSet
EndChar
StartChar: uni272A
Encoding: 10026 10026 350
Width: 832
Flags: W
LayerCount: 2
Fore
SplineSet
415 -3 m 0,0,1
 340 -3 340 -3 274 25.5 c 128,-1,2
 208 54 208 54 158 104.5 c 128,-1,3
 108 155 108 155 79.5 221 c 128,-1,4
 51 287 51 287 51 363 c 0,5,6
 51 440 51 440 79.5 506.5 c 128,-1,7
 108 573 108 573 158 622.5 c 128,-1,8
 208 672 208 672 274 699.5 c 128,-1,9
 340 727 340 727 415 727 c 0,10,11
 492 727 492 727 558.5 698.5 c 128,-1,12
 625 670 625 670 675 619.5 c 128,-1,13
 725 569 725 569 753 503.5 c 128,-1,14
 781 438 781 438 781 363 c 0,15,16
 781 287 781 287 752.5 221 c 128,-1,17
 724 155 724 155 674 104.5 c 128,-1,18
 624 54 624 54 557.5 25.5 c 128,-1,19
 491 -3 491 -3 415 -3 c 0,0,1
217 95 m 1,20,-1
 415 239 l 1,21,-1
 615 95 l 1,22,-1
 539 321 l 1,23,-1
 723 445 l 1,24,-1
 497 445 l 1,25,-1
 415 689 l 1,26,-1
 335 445 l 1,27,-1
 109 445 l 1,28,-1
 293 321 l 1,29,-1
 217 95 l 1,20,-1
EndSplineSet
EndChar
StartChar: uni272C
Encoding: 10028 10028 352
Width: 894
Flags: W
LayerCount: 2
Fore
SplineSet
189 19 m 1,0,-1
 259 311 l 1,1,-1
 51 473 l 1,2,-1
 335 489 l 1,3,-1
 447 789 l 1,4,-1
 557 489 l 1,5,-1
 843 473 l 1,6,-1
 625 311 l 1,7,-1
 703 19 l 1,8,-1
 447 187 l 1,9,-1
 189 19 l 1,0,-1
217 55 m 1,10,-1
 447 253 l 1,11,-1
 677 55 l 1,12,-1
 567 319 l 1,13,-1
 799 459 l 1,14,-1
 533 435 l 1,15,-1
 447 743 l 1,16,-1
 359 435 l 1,17,-1
 95 459 l 1,18,-1
 327 319 l 1,19,-1
 217 55 l 1,10,-1
447 261 m 0,20,21
 420 261 420 261 396.5 275 c 128,-1,22
 373 289 373 289 359 312.5 c 128,-1,23
 345 336 345 336 345 363 c 0,24,25
 345 405 345 405 375 435 c 128,-1,26
 405 465 405 465 447 465 c 256,27,28
 489 465 489 465 519 435.5 c 128,-1,29
 549 406 549 406 549 363 c 0,30,31
 549 321 549 321 519 291 c 128,-1,32
 489 261 489 261 447 261 c 0,20,21
EndSplineSet
EndChar
StartChar: uni272D
Encoding: 10029 10029 353
Width: 918
Flags: W
LayerCount: 2
Fore
SplineSet
195 21 m 1,0,-1
 297 325 l 1,1,-1
 51 487 l 1,2,-1
 351 487 l 1,3,-1
 459 813 l 1,4,-1
 569 487 l 1,5,-1
 867 487 l 1,6,-1
 623 325 l 1,7,-1
 725 21 l 1,8,-1
 459 215 l 1,9,-1
 195 21 l 1,0,-1
251 101 m 1,10,-1
 459 255 l 1,11,-1
 667 101 l 1,12,-1
 583 337 l 1,13,-1
 775 459 l 1,14,-1
 543 459 l 1,15,-1
 459 725 l 1,16,-1
 373 459 l 1,17,-1
 145 459 l 1,18,-1
 337 337 l 1,19,-1
 251 101 l 1,10,-1
299 167 m 1,20,-1
 367 347 l 1,21,-1
 221 437 l 1,22,-1
 393 437 l 1,23,-1
 459 655 l 1,24,-1
 527 437 l 1,25,-1
 699 437 l 1,26,-1
 553 347 l 1,27,-1
 621 167 l 1,28,-1
 459 287 l 1,29,-1
 299 167 l 1,20,-1
EndSplineSet
EndChar
StartChar: uni2735
Encoding: 10037 10037 359
Width: 880
Flags: W
LayerCount: 2
Fore
SplineSet
429 -26 m 1,0,-1
 381 218 l 1,1,-1
 173 80 l 1,2,-1
 157 94 l 1,3,-1
 295 302 l 1,4,-1
 51 350 l 1,5,-1
 51 372 l 1,6,-1
 295 422 l 1,7,-1
 157 628 l 1,8,-1
 173 644 l 1,9,-1
 381 506 l 1,10,-1
 429 750 l 1,11,-1
 451 750 l 1,12,-1
 499 506 l 1,13,-1
 707 644 l 1,14,-1
 723 628 l 1,15,-1
 585 422 l 1,16,-1
 829 372 l 1,17,-1
 829 350 l 1,18,-1
 585 302 l 1,19,-1
 723 94 l 1,20,-1
 707 80 l 1,21,-1
 499 218 l 1,22,-1
 451 -26 l 1,23,-1
 429 -26 l 1,0,-1
439 394 m 1,24,-1
 439 696 l 1,25,-1
 397 490 l 1,26,-1
 439 394 l 1,24,-1
417 384 m 1,27,-1
 203 598 l 1,28,-1
 319 422 l 1,29,-1
 417 384 l 1,27,-1
463 384 m 1,30,-1
 677 598 l 1,31,-1
 499 482 l 1,32,-1
 463 384 l 1,30,-1
471 362 m 1,33,-1
 775 362 l 1,34,-1
 567 404 l 1,35,-1
 471 362 l 1,33,-1
313 318 m 1,36,-1
 409 362 l 1,37,-1
 105 362 l 1,38,-1
 313 318 l 1,36,-1
203 126 m 1,39,-1
 381 240 l 1,40,-1
 417 340 l 1,41,-1
 203 126 l 1,39,-1
677 126 m 1,42,-1
 561 302 l 1,43,-1
 463 340 l 1,44,-1
 677 126 l 1,42,-1
439 28 m 1,45,-1
 483 234 l 1,46,-1
 439 330 l 1,47,-1
 439 28 l 1,45,-1
EndSplineSet
EndChar
StartChar: uni2737
Encoding: 10039 10039 361
Width: 860
Flags: W
LayerCount: 2
Fore
SplineSet
277 -17 m 1,0,-1
 259 -9 l 1,1,-1
 313 245 l 1,2,-1
 59 191 l 1,3,-1
 51 209 l 1,4,-1
 259 363 l 1,5,-1
 51 515 l 1,6,-1
 59 533 l 1,7,-1
 313 481 l 1,8,-1
 259 733 l 1,9,-1
 277 741 l 1,10,-1
 431 533 l 1,11,-1
 583 741 l 1,12,-1
 601 733 l 1,13,-1
 549 481 l 1,14,-1
 801 533 l 1,15,-1
 809 515 l 1,16,-1
 601 363 l 1,17,-1
 809 209 l 1,18,-1
 801 191 l 1,19,-1
 549 245 l 1,20,-1
 601 -9 l 1,21,-1
 583 -17 l 1,22,-1
 431 191 l 1,23,-1
 277 -17 l 1,0,-1
EndSplineSet
EndChar
StartChar: uni273B
Encoding: 10043 10043 365
Width: 750
Flags: W
LayerCount: 2
Fore
SplineSet
376 414 m 1,0,-1
 322 560 l 2,1,2
 312 586 312 586 312 614 c 0,3,4
 312 676 312 676 376 676 c 0,5,6
 438 676 438 676 438 616 c 0,7,8
 438 583 438 583 428 560 c 2,9,-1
 376 414 l 1,0,-1
290 368 m 1,10,-1
 136 396 l 2,11,12
 107 401 107 401 79 419 c 128,-1,13
 51 437 51 437 51 463 c 0,14,15
 51 478 51 478 59 494.5 c 128,-1,16
 67 511 67 511 80.5 522.5 c 128,-1,17
 94 534 94 534 111 534 c 0,18,19
 149 534 149 534 190 486 c 2,20,-1
 290 368 l 1,10,-1
462 368 m 1,21,-1
 562 486 l 2,22,23
 579 506 579 506 600.5 520 c 128,-1,24
 622 534 622 534 640 534 c 0,25,26
 656 534 656 534 669.5 522.5 c 128,-1,27
 683 511 683 511 691 494.5 c 128,-1,28
 699 478 699 478 699 463 c 0,29,30
 699 446 699 446 686 431.5 c 128,-1,31
 673 417 673 417 653.5 407.5 c 128,-1,32
 634 398 634 398 614 396 c 2,33,-1
 462 368 l 1,21,-1
376 242 m 256,34,35
 345 242 345 242 323.5 263 c 128,-1,36
 302 284 302 284 302 316 c 0,37,38
 302 347 302 347 323.5 368.5 c 128,-1,39
 345 390 345 390 376 390 c 256,40,41
 407 390 407 390 428.5 368.5 c 128,-1,42
 450 347 450 347 450 316 c 0,43,44
 450 284 450 284 428.5 263 c 128,-1,45
 407 242 407 242 376 242 c 256,34,35
110 98 m 0,46,47
 92 98 92 98 79 109.5 c 128,-1,48
 66 121 66 121 58.5 137.5 c 128,-1,49
 51 154 51 154 51 169 c 0,50,51
 51 195 51 195 79 213 c 128,-1,52
 107 231 107 231 136 236 c 2,53,-1
 290 264 l 1,54,-1
 190 146 l 2,55,56
 150 98 150 98 110 98 c 0,46,47
639 98 m 0,57,58
 621 98 621 98 599.5 112 c 128,-1,59
 578 126 578 126 562 146 c 2,60,-1
 462 264 l 1,61,-1
 614 236 l 2,62,63
 643 231 643 231 671 213 c 128,-1,64
 699 195 699 195 699 169 c 0,65,66
 699 146 699 146 682.5 122 c 128,-1,67
 666 98 666 98 639 98 c 0,57,58
376 -44 m 0,68,69
 312 -44 312 -44 312 24 c 0,70,71
 312 36 312 36 315 48 c 128,-1,72
 318 60 318 60 322 72 c 2,73,-1
 376 218 l 1,74,-1
 428 72 l 2,75,76
 432 58 432 58 435 45 c 128,-1,77
 438 32 438 32 438 18 c 0,78,79
 438 -44 438 -44 376 -44 c 0,68,69
EndSplineSet
EndChar
StartChar: uni273C
Encoding: 10044 10044 366
Width: 750
Flags: W
LayerCount: 2
Fore
SplineSet
376 -44 m 0,0,1
 343 -44 343 -44 325.5 -27 c 128,-1,2
 308 -10 308 -10 308 19 c 2,3,-1
 308 22 l 2,4,5
 309 42 309 42 315.5 70.5 c 128,-1,6
 322 99 322 99 331 126.5 c 128,-1,7
 340 154 340 154 346 174 c 2,8,-1
 350 192 l 2,9,10
 350 200 350 200 341 203 c 2,11,-1
 328 208 l 2,12,13
 312 212 312 212 301 223 c 256,14,15
 290 234 290 234 287 234 c 0,16,17
 281 234 281 234 268 218 c 2,18,-1
 248 197 l 1,19,-1
 192 139 l 2,20,21
 173 120 173 120 154.5 109 c 128,-1,22
 136 98 136 98 118 98 c 0,23,24
 93 98 93 98 72.5 122 c 128,-1,25
 52 146 52 146 52 175 c 0,26,27
 52 198 52 198 74 217 c 0,28,29
 94 234 94 234 162 251 c 0,30,31
 196 259 196 259 216 264 c 128,-1,32
 236 269 236 269 244 271 c 0,33,34
 259 276 259 276 259 284 c 2,35,-1
 257 298 l 1,36,-1
 256 316 l 2,37,38
 256 324 256 324 259 332 c 0,39,40
 260 336 260 336 260.5 339.5 c 128,-1,41
 261 343 261 343 261 347 c 0,42,43
 261 354 261 354 257 355 c 0,44,45
 254 356 254 356 249.5 358 c 128,-1,46
 245 360 245 360 238 362 c 2,47,-1
 128 390 l 2,48,49
 92 399 92 399 71.5 416.5 c 128,-1,50
 51 434 51 434 51 456 c 0,51,52
 51 471 51 471 60 489.5 c 128,-1,53
 69 508 69 508 84.5 521 c 128,-1,54
 100 534 100 534 117 534 c 0,55,56
 135 534 135 534 159 519 c 0,57,58
 182 504 182 504 222 462 c 2,59,-1
 268 414 l 2,60,61
 282 399 282 399 287 399 c 256,62,63
 292 399 292 399 303 410 c 0,64,65
 312 420 312 420 332 426 c 0,66,67
 350 432 350 432 350 440 c 2,68,-1
 346 458 l 2,69,70
 341 472 341 472 332.5 500 c 128,-1,71
 324 528 324 528 316.5 558.5 c 128,-1,72
 309 589 309 589 308 610 c 2,73,-1
 308 613 l 2,74,75
 308 642 308 642 325.5 659 c 128,-1,76
 343 676 343 676 376 676 c 0,77,78
 442 676 442 676 442 613 c 2,79,-1
 442 610 l 2,80,81
 441 594 441 594 437 572 c 128,-1,82
 433 550 433 550 424 522 c 2,83,-1
 404 458 l 1,84,-1
 400 440 l 2,85,86
 400 431 400 431 419 425 c 0,87,88
 429 422 429 422 436 418.5 c 128,-1,89
 443 415 443 415 448 409 c 0,90,91
 457 399 457 399 464 399 c 0,92,93
 470 399 470 399 484 414 c 2,94,-1
 503 435 l 2,95,96
 530 464 530 464 550 484 c 128,-1,97
 570 504 570 504 584 514 c 0,98,99
 613 534 613 534 633 534 c 0,100,101
 650 534 650 534 665.5 521 c 128,-1,102
 681 508 681 508 690 490 c 128,-1,103
 699 472 699 472 699 456 c 0,104,105
 699 434 699 434 678.5 417 c 128,-1,106
 658 400 658 400 622 390 c 2,107,-1
 578 378 l 2,108,109
 542 368 542 368 521.5 363.5 c 128,-1,110
 501 359 501 359 497 357 c 0,111,112
 489 352 489 352 489 347 c 0,113,114
 489 339 489 339 492 333 c 0,115,116
 494 325 494 325 494 316 c 256,117,118
 494 307 494 307 492 299 c 0,119,120
 491 296 491 296 490.5 292 c 128,-1,121
 490 288 490 288 490 284 c 0,122,123
 490 275 490 275 512 270 c 2,124,-1
 540 263 l 2,125,126
 542 262 542 262 562.5 257 c 128,-1,127
 583 252 583 252 622 242 c 0,128,129
 698 221 698 221 698 175 c 0,130,131
 698 147 698 147 678.5 122.5 c 128,-1,132
 659 98 659 98 633 98 c 0,133,134
 614 98 614 98 592 113 c 0,135,136
 581 120 581 120 564.5 134.5 c 128,-1,137
 548 149 548 149 528 170 c 2,138,-1
 482 218 l 2,139,140
 469 234 469 234 463 234 c 0,141,142
 459 234 459 234 448 223 c 0,143,144
 442 217 442 217 435 212.5 c 128,-1,145
 428 208 428 208 418 207 c 0,146,147
 400 201 400 201 400 192 c 2,148,-1
 404 174 l 2,149,150
 409 160 409 160 417.5 131.5 c 128,-1,151
 426 103 426 103 433.5 72.5 c 128,-1,152
 441 42 441 42 442 22 c 2,153,-1
 442 19 l 2,154,155
 442 -44 442 -44 376 -44 c 0,0,1
376 242 m 256,156,157
 407 242 407 242 428.5 263 c 128,-1,158
 450 284 450 284 450 316 c 0,159,160
 450 347 450 347 428.5 368.5 c 128,-1,161
 407 390 407 390 376 390 c 256,162,163
 345 390 345 390 323.5 368.5 c 128,-1,164
 302 347 302 347 302 316 c 0,165,166
 302 284 302 284 323.5 263 c 128,-1,167
 345 242 345 242 376 242 c 256,156,157
EndSplineSet
EndChar
StartChar: uni273E
Encoding: 10046 10046 368
Width: 794
Flags: W
LayerCount: 2
Fore
SplineSet
396 -64 m 256,0,1
 344 -64 344 -64 317 -31 c 128,-1,2
 290 2 290 2 290 50 c 0,3,4
 290 80 290 80 318 133 c 0,5,6
 332 159 332 159 349 193.5 c 128,-1,7
 366 228 366 228 386 272 c 1,8,-1
 368 280 l 1,9,-1
 352 254 l 2,10,11
 312 190 312 190 281 151.5 c 128,-1,12
 250 113 250 113 221 95.5 c 128,-1,13
 192 78 192 78 159 78 c 0,14,15
 110 78 110 78 62 120 c 1,16,17
 60 129 60 129 59 139.5 c 128,-1,18
 58 150 58 150 58 160 c 0,19,20
 58 234 58 234 118 268 c 0,21,22
 140 281 140 281 181 288.5 c 128,-1,23
 222 296 222 296 282 301 c 2,24,-1
 352 306 l 1,25,-1
 352 324 l 1,26,-1
 220 332 l 2,27,28
 129 337 129 337 90 364 c 128,-1,29
 51 391 51 391 51 444 c 0,30,31
 51 468 51 468 64.5 493.5 c 128,-1,32
 78 519 78 519 101 536.5 c 128,-1,33
 124 554 124 554 153 554 c 0,34,35
 220 554 220 554 269 481 c 0,36,37
 293 445 293 445 317 410 c 128,-1,38
 341 375 341 375 364 342 c 1,39,-1
 382 354 l 1,40,41
 296 518 296 518 296 576 c 0,42,43
 296 620 296 620 322.5 651 c 128,-1,44
 349 682 349 682 396 698 c 1,45,46
 444 682 444 682 471 650 c 128,-1,47
 498 618 498 618 498 576 c 0,48,49
 498 563 498 563 494 546.5 c 128,-1,50
 490 530 490 530 483 509 c 256,51,52
 476 488 476 488 461.5 456 c 128,-1,53
 447 424 447 424 426 382 c 2,54,-1
 412 354 l 1,55,-1
 430 342 l 1,56,-1
 482 418 l 1,57,-1
 511 464 l 2,58,59
 539 508 539 508 570.5 531 c 128,-1,60
 602 554 602 554 639 554 c 0,61,62
 669 554 669 554 692.5 536.5 c 128,-1,63
 716 519 716 519 729.5 493.5 c 128,-1,64
 743 468 743 468 743 444 c 0,65,66
 743 407 743 407 721.5 383.5 c 128,-1,67
 700 360 700 360 663 347 c 0,68,69
 644 340 644 340 611.5 336.5 c 128,-1,70
 579 333 579 333 534 330 c 2,71,-1
 440 324 l 1,72,-1
 440 306 l 1,73,-1
 510 301 l 2,74,75
 653 290 653 290 692 257 c 0,76,77
 734 221 734 221 734 161 c 0,78,79
 734 150 734 150 733 139.5 c 128,-1,80
 732 129 732 129 730 120 c 1,81,82
 682 78 682 78 633 78 c 0,83,84
 591 78 591 78 551 112 c 0,85,86
 532 128 532 128 505 164 c 128,-1,87
 478 200 478 200 443 254 c 2,88,-1
 426 280 l 1,89,-1
 408 272 l 1,90,-1
 448 188 l 1,91,-1
 462 161 l 2,92,93
 482 122 482 122 493 94.5 c 128,-1,94
 504 67 504 67 504 50 c 0,95,96
 504 2 504 2 476 -31 c 128,-1,97
 448 -64 448 -64 396 -64 c 256,0,1
392 356 m 1,98,-1
 402 356 l 1,99,-1
 421 405 l 2,100,101
 462 510 462 510 462 568 c 0,102,103
 462 646 462 646 396 666 c 1,104,105
 330 646 330 646 330 568 c 0,106,107
 330 538 330 538 341.5 498 c 128,-1,108
 353 458 353 458 373 405 c 2,109,-1
 392 356 l 1,98,-1
397 286 m 256,110,111
 409 286 409 286 417 294 c 128,-1,112
 425 302 425 302 425 314 c 256,113,114
 425 326 425 326 417 334 c 128,-1,115
 409 342 409 342 397 342 c 256,116,117
 385 342 385 342 377 334 c 128,-1,118
 369 326 369 326 369 314 c 256,119,120
 369 302 369 302 377 294 c 128,-1,121
 385 286 385 286 397 286 c 256,110,111
150 110 m 0,122,123
 185 110 185 110 227 141.5 c 128,-1,124
 269 173 269 173 327 245 c 2,125,-1
 360 286 l 1,126,-1
 356 296 l 1,127,-1
 304 288 l 2,128,129
 187 270 187 270 137 239 c 0,130,131
 87 207 87 207 87 161 c 0,132,133
 87 150 87 150 90 136 c 1,134,135
 119 110 119 110 150 110 c 0,122,123
643 110 m 0,136,137
 675 110 675 110 704 136 c 1,138,139
 707 148 707 148 707 160 c 0,140,141
 707 193 707 193 682.5 217 c 128,-1,142
 658 241 658 241 616 257 c 128,-1,143
 574 273 574 273 521 282 c 2,144,-1
 438 296 l 1,145,-1
 432 286 l 1,146,-1
 467 242 l 2,147,148
 526 168 526 168 566.5 139 c 128,-1,149
 607 110 607 110 643 110 c 0,136,137
EndSplineSet
EndChar
StartChar: uni2741
Encoding: 10049 10049 371
Width: 886
Flags: W
LayerCount: 2
Fore
SplineSet
443 -78 m 256,0,1
 390 -78 390 -78 360.5 -51.5 c 128,-1,2
 331 -25 331 -25 331 26 c 0,3,4
 331 32 331 32 331.5 38 c 128,-1,5
 332 44 332 44 333 48 c 1,6,7
 317 26 317 26 294 12 c 128,-1,8
 271 -2 271 -2 247 -2 c 0,9,10
 219 -2 219 -2 191.5 16 c 128,-1,11
 164 34 164 34 145.5 61.5 c 128,-1,12
 127 89 127 89 127 118 c 0,13,14
 127 142 127 142 140.5 165 c 128,-1,15
 154 188 154 188 177 204 c 1,16,17
 172 203 172 203 166.5 202.5 c 128,-1,18
 161 202 161 202 155 202 c 0,19,20
 104 202 104 202 77.5 232 c 128,-1,21
 51 262 51 262 51 314 c 0,22,23
 51 352 51 352 66.5 377 c 128,-1,24
 82 402 82 402 106 414 c 128,-1,25
 130 426 130 426 155 425 c 2,26,-1
 171 424 l 1,27,-1
 177 424 l 1,28,29
 154 441 154 441 140.5 464 c 128,-1,30
 127 487 127 487 127 511 c 0,31,32
 127 542 127 542 143 568.5 c 128,-1,33
 159 595 159 595 186.5 611 c 128,-1,34
 214 627 214 627 247 627 c 0,35,36
 270 627 270 627 293.5 614 c 128,-1,37
 317 601 317 601 333 580 c 1,38,39
 332 584 332 584 331.5 590 c 128,-1,40
 331 596 331 596 331 602 c 0,41,42
 331 653 331 653 360.5 679.5 c 128,-1,43
 390 706 390 706 443 706 c 256,44,45
 496 706 496 706 525.5 679.5 c 128,-1,46
 555 653 555 653 555 602 c 0,47,48
 555 596 555 596 554.5 590 c 128,-1,49
 554 584 554 584 553 580 c 1,50,51
 592 627 592 627 639 627 c 0,52,53
 672 627 672 627 699 611 c 128,-1,54
 726 595 726 595 742.5 568.5 c 128,-1,55
 759 542 759 542 759 511 c 0,56,57
 759 463 759 463 709 424 c 1,58,59
 714 425 714 425 719.5 425.5 c 128,-1,60
 725 426 725 426 731 426 c 0,61,62
 782 426 782 426 808.5 396 c 128,-1,63
 835 366 835 366 835 314 c 256,64,65
 835 262 835 262 808.5 232 c 128,-1,66
 782 202 782 202 731 202 c 0,67,68
 725 202 725 202 719.5 202.5 c 128,-1,69
 714 203 714 203 709 204 c 1,70,71
 732 187 732 187 745.5 164 c 128,-1,72
 759 141 759 141 759 118 c 0,73,74
 759 89 759 89 740.5 61.5 c 128,-1,75
 722 34 722 34 694.5 16 c 128,-1,76
 667 -2 667 -2 639 -2 c 0,77,78
 615 -2 615 -2 592.5 11.5 c 128,-1,79
 570 25 570 25 553 48 c 1,80,81
 554 44 554 44 554.5 38 c 128,-1,82
 555 32 555 32 555 26 c 0,83,84
 555 -25 555 -25 525.5 -51.5 c 128,-1,85
 496 -78 496 -78 443 -78 c 256,0,1
403 436 m 1,86,-1
 417 440 l 1,87,-1
 403 496 l 2,88,89
 389 546 389 546 389 574 c 256,90,91
 389 602 389 602 404.5 621 c 128,-1,92
 420 640 420 640 443 640 c 256,93,94
 466 640 466 640 481.5 621 c 128,-1,95
 497 602 497 602 497 574 c 0,96,97
 497 552 497 552 490.5 522 c 128,-1,98
 484 492 484 492 477 468 c 128,-1,99
 470 444 470 444 469 440 c 1,100,-1
 483 436 l 1,101,-1
 509 498 l 2,102,103
 518 519 518 519 524.5 546.5 c 128,-1,104
 531 574 531 574 531 590 c 0,105,106
 531 630 531 630 507.5 655 c 128,-1,107
 484 680 484 680 443 680 c 256,108,109
 402 680 402 680 378.5 656 c 128,-1,110
 355 632 355 632 355 590 c 0,111,112
 355 574 355 574 361.5 547 c 128,-1,113
 368 520 368 520 377 498 c 2,114,-1
 403 436 l 1,86,-1
557 372 m 1,115,-1
 621 396 l 2,116,117
 664 412 664 412 697.5 443 c 128,-1,118
 731 474 731 474 731 512 c 0,119,120
 731 549 731 549 704 574.5 c 128,-1,121
 677 600 677 600 643 600 c 0,122,123
 573 600 573 600 527 490 c 2,124,-1
 501 428 l 1,125,-1
 515 422 l 1,126,-1
 543 472 l 2,127,128
 551 488 551 488 565.5 508 c 128,-1,129
 580 528 580 528 599 543 c 128,-1,130
 618 558 618 558 638 558 c 0,131,132
 659 558 659 558 673 544 c 128,-1,133
 687 530 687 530 687 509 c 0,134,135
 687 489 687 489 671 469.5 c 128,-1,136
 655 450 655 450 632 433.5 c 128,-1,137
 609 417 609 417 586.5 404.5 c 128,-1,138
 564 392 564 392 551 384 c 1,139,-1
 557 372 l 1,115,-1
327 372 m 1,140,-1
 335 384 l 1,141,-1
 285 414 l 2,142,143
 238 442 238 442 217.5 463 c 128,-1,144
 197 484 197 484 197 509 c 0,145,146
 197 531 197 531 211 544 c 128,-1,147
 225 557 225 557 246 558 c 0,148,149
 268 558 268 558 287.5 543 c 128,-1,150
 307 528 307 528 321 508 c 128,-1,151
 335 488 335 488 343 472 c 2,152,-1
 371 422 l 1,153,-1
 383 428 l 1,154,-1
 359 490 l 2,155,156
 349 516 349 516 331.5 541.5 c 128,-1,157
 314 567 314 567 291.5 583.5 c 128,-1,158
 269 600 269 600 243 600 c 0,159,160
 209 600 209 600 182 574 c 128,-1,161
 155 548 155 548 155 512 c 0,162,163
 155 486 155 486 171 464 c 128,-1,164
 187 442 187 442 212.5 424 c 128,-1,165
 238 406 238 406 265 396 c 2,166,-1
 327 372 l 1,140,-1
443 212 m 256,167,168
 486 212 486 212 515.5 241.5 c 128,-1,169
 545 271 545 271 545 314 c 256,170,171
 545 357 545 357 515.5 386.5 c 128,-1,172
 486 416 486 416 443 416 c 256,173,174
 400 416 400 416 370.5 386.5 c 128,-1,175
 341 357 341 357 341 314 c 256,176,177
 341 271 341 271 370.5 241.5 c 128,-1,178
 400 212 400 212 443 212 c 256,167,168
167 224 m 0,179,180
 184 224 184 224 210.5 230.5 c 128,-1,181
 237 237 237 237 259 246 c 2,182,-1
 321 272 l 1,183,-1
 317 286 l 1,184,-1
 261 270 l 2,185,186
 238 263 238 263 219 260.5 c 128,-1,187
 200 258 200 258 183 258 c 0,188,189
 154 258 154 258 135.5 273.5 c 128,-1,190
 117 289 117 289 117 312 c 256,191,192
 117 335 117 335 135.5 350.5 c 128,-1,193
 154 366 154 366 183 366 c 0,194,195
 210 366 210 366 247 356 c 2,196,-1
 317 338 l 1,197,-1
 321 352 l 1,198,-1
 259 378 l 2,199,200
 238 387 238 387 211 393.5 c 128,-1,201
 184 400 184 400 167 400 c 0,202,203
 126 400 126 400 101.5 376.5 c 128,-1,204
 77 353 77 353 77 312 c 256,205,206
 77 271 77 271 101 247.5 c 128,-1,207
 125 224 125 224 167 224 c 0,179,180
719 224 m 0,208,209
 761 224 761 224 785 248 c 128,-1,210
 809 272 809 272 809 312 c 256,211,212
 809 352 809 352 784.5 376 c 128,-1,213
 760 400 760 400 719 400 c 0,214,215
 702 400 702 400 674 393.5 c 128,-1,216
 646 387 646 387 625 378 c 2,217,-1
 563 352 l 1,218,-1
 567 338 l 1,219,-1
 638 356 l 2,220,221
 658 361 658 361 674 363.5 c 128,-1,222
 690 366 690 366 703 366 c 0,223,224
 731 366 731 366 750 350.5 c 128,-1,225
 769 335 769 335 769 312 c 0,226,227
 769 288 769 288 750 273 c 128,-1,228
 731 258 731 258 703 258 c 0,229,230
 680 258 680 258 650.5 264.5 c 128,-1,231
 621 271 621 271 596.5 277.5 c 128,-1,232
 572 284 572 284 567 286 c 1,233,-1
 563 272 l 1,234,-1
 625 246 l 2,235,236
 646 237 646 237 674 230.5 c 128,-1,237
 702 224 702 224 719 224 c 0,208,209
641 26 m 0,238,239
 662 26 662 26 682 39 c 128,-1,240
 702 52 702 52 715.5 72.5 c 128,-1,241
 729 93 729 93 729 114 c 0,242,243
 729 151 729 151 697.5 181.5 c 128,-1,244
 666 212 666 212 619 230 c 2,245,-1
 557 254 l 1,246,-1
 549 242 l 1,247,-1
 599 212 l 2,248,249
 625 197 625 197 643.5 184.5 c 128,-1,250
 662 172 662 172 670 161 c 0,251,252
 687 139 687 139 687 117 c 0,253,254
 687 96 687 96 673 82 c 128,-1,255
 659 68 659 68 638 68 c 0,256,257
 616 68 616 68 597 83 c 128,-1,258
 578 98 578 98 564 118 c 128,-1,259
 550 138 550 138 541 154 c 2,260,-1
 513 206 l 1,261,-1
 501 198 l 1,262,-1
 525 136 l 2,263,264
 542 92 542 92 573 59 c 128,-1,265
 604 26 604 26 641 26 c 0,238,239
245 26 m 0,266,267
 276 26 276 26 304 49 c 128,-1,268
 332 72 332 72 359 136 c 2,269,-1
 385 198 l 1,270,-1
 373 206 l 1,271,-1
 343 154 l 2,272,273
 335 138 335 138 320.5 118 c 128,-1,274
 306 98 306 98 287 83 c 128,-1,275
 268 68 268 68 248 68 c 0,276,277
 226 68 226 68 212.5 82 c 128,-1,278
 199 96 199 96 199 117 c 0,279,280
 199 137 199 137 215 156.5 c 128,-1,281
 231 176 231 176 254.5 192.5 c 128,-1,282
 278 209 278 209 300.5 221.5 c 128,-1,283
 323 234 323 234 335 242 c 1,284,-1
 329 254 l 1,285,-1
 267 230 l 2,286,287
 219 211 219 211 187.5 180.5 c 128,-1,288
 156 150 156 150 156 116 c 0,289,290
 156 94 156 94 169.5 73.5 c 128,-1,291
 183 53 183 53 203.5 39.5 c 128,-1,292
 224 26 224 26 245 26 c 0,266,267
443 -52 m 0,293,294
 484 -52 484 -52 507.5 -27.5 c 128,-1,295
 531 -3 531 -3 531 38 c 0,296,297
 531 54 531 54 524.5 81 c 128,-1,298
 518 108 518 108 509 130 c 2,299,-1
 483 192 l 1,300,-1
 469 188 l 1,301,-1
 485 132 l 2,302,303
 492 110 492 110 494.5 90 c 128,-1,304
 497 70 497 70 497 54 c 0,305,306
 497 26 497 26 481.5 7 c 128,-1,307
 466 -12 466 -12 443 -12 c 0,308,309
 419 -12 419 -12 404 7 c 128,-1,310
 389 26 389 26 389 54 c 0,311,312
 389 81 389 81 399 118 c 2,313,-1
 417 188 l 1,314,-1
 403 192 l 1,315,-1
 377 130 l 2,316,317
 368 109 368 109 361.5 81.5 c 128,-1,318
 355 54 355 54 355 38 c 0,319,320
 355 -4 355 -4 379 -28 c 128,-1,321
 403 -52 403 -52 443 -52 c 0,293,294
EndSplineSet
EndChar
StartChar: uni274D
Encoding: 10061 10061 381
Width: 943
Flags: W
LayerCount: 2
Fore
SplineSet
450 -64 m 0,0,1
 366 -64 366 -64 293.5 -35 c 128,-1,2
 221 -6 221 -6 166.5 46 c 128,-1,3
 112 98 112 98 81.5 166.5 c 128,-1,4
 51 235 51 235 51 314 c 0,5,6
 51 394 51 394 82 463 c 128,-1,7
 113 532 113 532 167.5 583.5 c 128,-1,8
 222 635 222 635 294.5 663.5 c 128,-1,9
 367 692 367 692 450 692 c 0,10,11
 602 692 602 692 695 642 c 128,-1,12
 788 592 788 592 840 509 c 0,13,14
 892 427 892 427 892 314 c 256,15,16
 892 201 892 201 839 117.5 c 128,-1,17
 786 34 786 34 693 -15 c 256,18,19
 600 -64 600 -64 450 -64 c 0,0,1
426 -18 m 0,20,21
 494 -18 494 -18 554 7.5 c 128,-1,22
 614 33 614 33 659.5 78.5 c 128,-1,23
 705 124 705 124 731 184 c 128,-1,24
 757 244 757 244 757 313 c 0,25,26
 757 381 757 381 731 441 c 128,-1,27
 705 501 705 501 659.5 546.5 c 128,-1,28
 614 592 614 592 554 618 c 128,-1,29
 494 644 494 644 426 644 c 0,30,31
 357 644 357 644 297 617.5 c 128,-1,32
 237 591 237 591 192.5 545 c 128,-1,33
 148 499 148 499 123 439 c 128,-1,34
 98 379 98 379 98 313 c 0,35,36
 98 224 98 224 142 147 c 128,-1,37
 186 70 186 70 262 26 c 0,38,39
 339 -18 339 -18 426 -18 c 0,20,21
EndSplineSet
EndChar
StartChar: uni274F
Encoding: 10063 10063 382
Width: 828
Flags: W
LayerCount: 2
Fore
SplineSet
151 -48 m 1,0,-1
 151 48 l 1,1,-1
 51 48 l 1,2,-1
 51 676 l 1,3,-1
 681 676 l 1,4,-1
 681 578 l 1,5,-1
 777 578 l 1,6,-1
 777 -48 l 1,7,-1
 151 -48 l 1,0,-1
91 86 m 1,8,-1
 641 86 l 1,9,-1
 641 634 l 1,10,-1
 91 634 l 1,11,-1
 91 86 l 1,8,-1
EndSplineSet
EndChar
StartChar: uni2759
Encoding: 10073 10073 387
Width: 350
Flags: W
LayerCount: 2
Fore
SplineSet
51 -92 m 1,0,-1
 51 792 l 1,1,-1
 299 792 l 1,2,-1
 299 -92 l 1,3,-1
 51 -92 l 1,0,-1
EndSplineSet
EndChar
StartChar: uni2760
Encoding: 10080 10080 394
Width: 758
Flags: W
LayerCount: 2
Fore
SplineSet
73 -168 m 1,0,-1
 53 -140 l 1,1,2
 79 -140 79 -140 117.5 -130 c 128,-1,3
 156 -120 156 -120 194.5 -100.5 c 128,-1,4
 233 -81 233 -81 258 -53 c 0,5,6
 295 -12 295 -12 295 18 c 1,7,8
 284 5 284 5 255.5 -2.5 c 128,-1,9
 227 -10 227 -10 199 -10 c 0,10,11
 156 -10 156 -10 122.5 11 c 128,-1,12
 89 32 89 32 70 67.5 c 128,-1,13
 51 103 51 103 51 146 c 0,14,15
 51 219 51 219 97 265.5 c 128,-1,16
 143 312 143 312 219 312 c 0,17,18
 272 312 272 312 313.5 285.5 c 128,-1,19
 355 259 355 259 375 214 c 1,20,21
 394 260 394 260 435 286 c 128,-1,22
 476 312 476 312 531 312 c 0,23,24
 580 312 580 312 620 289 c 128,-1,25
 660 266 660 266 683.5 221.5 c 128,-1,26
 707 177 707 177 707 112 c 0,27,28
 707 61 707 61 685 12.5 c 128,-1,29
 663 -36 663 -36 624 -74.5 c 128,-1,30
 585 -113 585 -113 534 -135 c 0,31,32
 458 -168 458 -168 385 -168 c 1,33,-1
 365 -140 l 1,34,35
 391 -140 391 -140 429.5 -130 c 128,-1,36
 468 -120 468 -120 506.5 -100.5 c 128,-1,37
 545 -81 545 -81 570 -53 c 0,38,39
 607 -12 607 -12 607 18 c 1,40,41
 596 5 596 5 567.5 -2.5 c 128,-1,42
 539 -10 539 -10 511 -10 c 0,43,44
 431 -10 431 -10 389 56 c 1,45,46
 373 -9 373 -9 324 -63 c 128,-1,47
 275 -117 275 -117 207 -142 c 0,48,49
 135 -168 135 -168 73 -168 c 1,0,-1
EndSplineSet
EndChar
StartChar: uni2768
Encoding: 10088 10088 93
Width: 470
Flags: W
LayerCount: 2
Fore
SplineSet
419 -62 m 1,0,-1
 370 -55 l 2,1,2
 314 -47 314 -47 258.5 -18 c 128,-1,3
 203 11 203 11 157.5 57.5 c 128,-1,4
 112 104 112 104 88 165 c 0,5,6
 70 210 70 210 60.5 259.5 c 128,-1,7
 51 309 51 309 51 362 c 0,8,9
 51 456 51 456 79 536.5 c 128,-1,10
 107 617 107 617 157 667 c 0,11,12
 190 700 190 700 226 724 c 128,-1,13
 262 748 262 748 308 763 c 128,-1,14
 354 778 354 778 419 786 c 1,15,-1
 419 764 l 1,16,17
 391 760 391 760 356.5 737 c 128,-1,18
 322 714 322 714 288.5 673 c 128,-1,19
 255 632 255 632 231 576 c 0,20,21
 195 490 195 490 195 362 c 0,22,23
 195 238 195 238 228.5 153.5 c 128,-1,24
 262 69 262 69 318 17 c 0,25,26
 373 -34 373 -34 419 -40 c 1,27,-1
 419 -62 l 1,0,-1
EndSplineSet
EndChar
StartChar: uni2769
Encoding: 10089 10089 94
Width: 470
Flags: W
LayerCount: 2
Fore
SplineSet
51 -62 m 1,0,-1
 51 -40 l 1,1,2
 81 -36 81 -36 117 -10 c 128,-1,3
 153 16 153 16 186.5 59.5 c 128,-1,4
 220 103 220 103 242 161 c 0,5,6
 275 248 275 248 275 362 c 0,7,8
 275 475 275 475 242.5 562 c 128,-1,9
 210 649 210 649 153 704 c 0,10,11
 96 758 96 758 51 764 c 1,12,-1
 51 786 l 1,13,14
 116 778 116 778 163 762.5 c 128,-1,15
 210 747 210 747 246 723.5 c 128,-1,16
 282 700 282 700 315 667 c 0,17,18
 364 618 364 618 391.5 536 c 128,-1,19
 419 454 419 454 419 362 c 0,20,21
 419 259 419 259 383.5 167.5 c 128,-1,22
 348 76 348 76 266 17 c 0,23,24
 183 -43 183 -43 100 -55 c 2,25,-1
 51 -62 l 1,0,-1
EndSplineSet
EndChar
StartChar: uni276E
Encoding: 10094 10094 84
Width: 553
Flags: W
LayerCount: 2
Fore
SplineSet
304 -74 m 1,0,-1
 51 362 l 1,1,-1
 303 798 l 1,2,-1
 502 798 l 1,3,-1
 243 362 l 1,4,-1
 502 -74 l 1,5,-1
 304 -74 l 1,0,-1
EndSplineSet
EndChar
StartChar: uni2770
Encoding: 10096 10096 83
Width: 494
Flags: W
LayerCount: 2
Fore
SplineSet
181 -74 m 1,0,-1
 51 364 l 1,1,-1
 181 798 l 1,2,-1
 443 798 l 1,3,-1
 323 364 l 1,4,-1
 443 -74 l 1,5,-1
 181 -74 l 1,0,-1
EndSplineSet
EndChar
StartChar: uni2773
Encoding: 10099 10099 88
Width: 304
Flags: W
LayerCount: 2
Fore
SplineSet
51 -103 m 1,0,-1
 51 -61 l 1,1,-1
 181 30 l 1,2,-1
 181 693 l 1,3,-1
 51 784 l 1,4,-1
 51 826 l 1,5,-1
 253 715 l 1,6,-1
 253 8 l 1,7,-1
 51 -103 l 1,0,-1
EndSplineSet
EndChar
StartChar: uni2799
Encoding: 10137 10137 123
Width: 1008
Flags: W
LayerCount: 2
Fore
SplineSet
527 76 m 1,0,-1
 614 264 l 1,1,-1
 51 198 l 1,2,-1
 51 402 l 1,3,-1
 614 336 l 1,4,-1
 527 524 l 1,5,-1
 957 300 l 1,6,-1
 527 76 l 1,0,-1
EndSplineSet
EndChar
StartChar: uni279C
Encoding: 10140 10140 126
Width: 1009
Flags: W
LayerCount: 2
Fore
SplineSet
573 -35 m 0,0,1
 550 -35 550 -35 529 -21.5 c 128,-1,2
 508 -8 508 -8 494.5 13 c 128,-1,3
 481 34 481 34 481 55 c 0,4,5
 481 78 481 78 501 105.5 c 128,-1,6
 521 133 521 133 548.5 159.5 c 128,-1,7
 576 186 576 186 597 205 c 1,8,-1
 184 205 l 2,9,10
 127 205 127 205 102.5 214 c 128,-1,11
 78 223 78 223 65 244 c 0,12,13
 51 264 51 264 51 300 c 256,14,15
 51 336 51 336 64.5 356 c 128,-1,16
 78 376 78 376 102 386 c 0,17,18
 126 395 126 395 184 395 c 2,19,-1
 597 395 l 1,20,-1
 548 442 l 2,21,22
 507 482 507 482 494 503 c 0,23,24
 481 525 481 525 481 545 c 0,25,26
 481 566 481 566 494 587 c 128,-1,27
 507 608 507 608 528.5 621.5 c 128,-1,28
 550 635 550 635 573 635 c 0,29,30
 593 635 593 635 616 622.5 c 128,-1,31
 639 610 639 610 670 580 c 2,32,-1
 958 300 l 1,33,-1
 676 26 l 2,34,35
 640 -8 640 -8 617 -21.5 c 128,-1,36
 594 -35 594 -35 573 -35 c 0,0,1
EndSplineSet
EndChar
StartChar: uni279E
Encoding: 10142 10142 128
Width: 1004
Flags: W
LayerCount: 2
Fore
SplineSet
695 59 m 1,0,-1
 695 239 l 1,1,-1
 51 239 l 1,2,-1
 51 361 l 1,3,-1
 695 361 l 1,4,-1
 695 541 l 1,5,-1
 953 300 l 1,6,-1
 695 59 l 1,0,-1
EndSplineSet
EndChar
StartChar: uni27A7
Encoding: 10151 10151 146
Width: 538
Flags: W
LayerCount: 2
Fore
SplineSet
189 -181 m 1,0,-1
 189 -3 l 1,1,-1
 51 -3 l 1,2,-1
 51 603 l 1,3,-1
 189 603 l 1,4,-1
 189 781 l 1,5,-1
 487 300 l 1,6,-1
 189 -181 l 1,0,-1
EndSplineSet
EndChar
StartChar: uni27A9
Encoding: 10153 10153 148
Width: 924
Flags: W
LayerCount: 2
Fore
SplineSet
435 -27 m 1,0,-1
 445 131 l 1,1,-1
 51 131 l 1,2,-1
 51 469 l 1,3,-1
 445 469 l 1,4,-1
 435 627 l 1,5,-1
 580 627 l 1,6,-1
 873 300 l 1,7,-1
 580 -27 l 1,8,-1
 435 -27 l 1,0,-1
473 3 m 1,9,-1
 744 300 l 1,10,-1
 473 597 l 1,11,-1
 483 412 l 1,12,-1
 93 412 l 1,13,-1
 93 188 l 1,14,-1
 483 188 l 1,15,-1
 473 3 l 1,9,-1
EndSplineSet
EndChar
StartChar: uni27B1
Encoding: 10161 10161 155
Width: 940
Flags: W
LayerCount: 2
Fore
SplineSet
572 -8 m 1,0,-1
 603 122 l 1,1,-1
 51 122 l 1,2,-1
 133 260 l 1,3,-1
 51 396 l 1,4,-1
 119 468 l 1,5,-1
 583 468 l 1,6,-1
 569 570 l 1,7,-1
 889 300 l 1,8,-1
 889 268 l 1,9,-1
 572 -8 l 1,0,-1
617 68 m 1,10,-1
 839 262 l 1,11,-1
 617 456 l 1,12,-1
 637 376 l 1,13,-1
 97 376 l 1,14,-1
 167 262 l 1,15,-1
 97 148 l 1,16,-1
 637 148 l 1,17,-1
 617 68 l 1,10,-1
EndSplineSet
EndChar
StartChar: uni27B3
Encoding: 10163 10163 157
Width: 1042
Flags: W
LayerCount: 2
Fore
SplineSet
753 92 m 1,0,-1
 753 98 l 2,1,2
 753 118 753 118 757 149 c 128,-1,3
 761 180 761 180 768 215.5 c 128,-1,4
 775 251 775 251 783 284 c 1,5,-1
 537 284 l 1,6,-1
 413 102 l 1,7,-1
 51 102 l 1,8,-1
 185 296 l 1,9,-1
 51 500 l 1,10,-1
 413 500 l 1,11,-1
 537 316 l 1,12,-1
 783 316 l 1,13,14
 776 346 776 346 769 381 c 128,-1,15
 762 416 762 416 757.5 448 c 128,-1,16
 753 480 753 480 753 502 c 2,17,-1
 753 508 l 1,18,19
 783 472 783 472 823 434 c 128,-1,20
 863 396 863 396 906.5 361 c 128,-1,21
 950 326 950 326 991 300 c 1,22,23
 950 273 950 273 906.5 238.5 c 128,-1,24
 863 204 863 204 823 166 c 128,-1,25
 783 128 783 128 753 92 c 1,0,-1
231 318 m 1,26,-1
 259 318 l 1,27,-1
 149 480 l 1,28,-1
 81 480 l 1,29,-1
 105 464 l 2,30,31
 136 443 136 443 171 404 c 128,-1,32
 206 365 206 365 231 318 c 1,26,-1
315 318 m 1,33,-1
 343 318 l 1,34,-1
 233 480 l 1,35,-1
 165 480 l 1,36,-1
 189 464 l 2,37,38
 220 443 220 443 255 404 c 128,-1,39
 290 365 290 365 315 318 c 1,33,-1
399 318 m 1,40,-1
 427 318 l 1,41,-1
 317 480 l 1,42,-1
 249 480 l 1,43,-1
 273 464 l 2,44,45
 304 443 304 443 339 404 c 128,-1,46
 374 365 374 365 399 318 c 1,40,-1
483 318 m 1,47,-1
 511 318 l 1,48,-1
 401 480 l 1,49,-1
 333 480 l 1,50,-1
 357 464 l 2,51,52
 388 443 388 443 423 404 c 128,-1,53
 458 365 458 365 483 318 c 1,47,-1
81 120 m 1,54,-1
 149 120 l 1,55,-1
 259 282 l 1,56,-1
 231 282 l 1,57,58
 177 181 177 181 81 120 c 1,54,-1
165 120 m 1,59,-1
 233 120 l 1,60,-1
 343 282 l 1,61,-1
 315 282 l 1,62,63
 262 182 262 182 165 120 c 1,59,-1
249 120 m 1,64,-1
 317 120 l 1,65,-1
 427 282 l 1,66,-1
 399 282 l 1,67,68
 346 182 346 182 249 120 c 1,64,-1
333 120 m 1,69,-1
 401 120 l 1,70,-1
 511 282 l 1,71,-1
 483 282 l 1,72,73
 430 182 430 182 333 120 c 1,69,-1
EndSplineSet
EndChar
StartChar: uni27B4
Encoding: 10164 10164 160
Width: 856
Flags: W
LayerCount: 2
Fore
SplineSet
537 42 m 1,0,1
 564 81 564 81 647 152 c 1,2,-1
 495 264 l 1,3,-1
 309 218 l 1,4,-1
 51 406 l 1,5,-1
 225 458 l 1,6,-1
 383 346 l 1,7,-1
 483 298 l 1,8,-1
 485 302 l 1,9,-1
 409 378 l 1,10,-1
 249 494 l 1,11,-1
 249 680 l 1,12,-1
 507 492 l 1,13,-1
 523 300 l 1,14,-1
 675 190 l 1,15,16
 716 290 716 290 745 328 c 1,17,18
 750 268 750 268 766 198 c 128,-1,19
 782 128 782 128 805 66 c 1,20,21
 794 66 794 66 783 66.5 c 128,-1,22
 772 67 772 67 761 67 c 0,23,24
 700 67 700 67 644 61 c 128,-1,25
 588 55 588 55 537 42 c 1,0,1
EndSplineSet
EndChar
StartChar: uni27B9
Encoding: 10169 10169 161
Width: 926
Flags: W
LayerCount: 2
Fore
SplineSet
267 4 m 1,0,1
 221 65 221 65 221 132 c 0,2,3
 221 175 221 175 241 212 c 1,4,5
 235 210 235 210 227.5 210 c 128,-1,6
 220 210 220 210 213 210 c 0,7,8
 119 210 119 210 51 302 c 1,9,-1
 307 486 l 1,10,11
 381 480 381 480 483 428 c 1,12,-1
 687 560 l 1,13,14
 670 568 670 568 647.5 588 c 128,-1,15
 625 608 625 608 602.5 633 c 128,-1,16
 580 658 580 658 563 682 c 1,17,-1
 569 688 l 1,18,19
 646 668 646 668 737 668 c 0,20,21
 826 668 826 668 871 674 c 1,22,-1
 875 668 l 1,23,24
 838 581 838 581 818.5 511.5 c 128,-1,25
 799 442 799 442 795 378 c 1,26,-1
 789 374 l 1,27,28
 772 398 772 398 755 426.5 c 128,-1,29
 738 455 738 455 725.5 482 c 128,-1,30
 713 509 713 509 709 528 c 1,31,-1
 521 376 l 1,32,33
 526 350 526 350 528.5 323 c 128,-1,34
 531 296 531 296 531 267 c 0,35,36
 531 224 531 224 523 190 c 1,37,-1
 267 4 l 1,0,1
EndSplineSet
EndChar
StartChar: uni27BD
Encoding: 10173 10173 167
Width: 1058
Flags: W
LayerCount: 2
Fore
SplineSet
103 24 m 2,0,1
 51 24 51 24 51 79 c 0,2,3
 51 108 51 108 71 154 c 2,4,-1
 137 300 l 1,5,6
 115 348 115 348 99.5 383.5 c 128,-1,7
 84 419 84 419 73 443 c 0,8,9
 51 490 51 490 51 521 c 0,10,11
 51 576 51 576 103 576 c 2,12,-1
 398 576 l 2,13,14
 422 576 422 576 438 568 c 128,-1,15
 454 560 454 560 467 541 c 2,16,-1
 533 449 l 2,17,18
 558 414 558 414 569 397.5 c 128,-1,19
 580 381 580 381 587 376.5 c 128,-1,20
 594 372 594 372 607 372 c 2,21,-1
 639 372 l 2,22,23
 692 372 692 372 692 410 c 0,24,25
 692 434 692 434 685.5 458 c 128,-1,26
 679 482 679 482 679 506 c 0,27,28
 679 539 679 539 695.5 557.5 c 128,-1,29
 712 576 712 576 743 576 c 0,30,31
 768 576 768 576 792 550 c 2,32,-1
 972 356 l 2,33,34
 992 335 992 335 999.5 324 c 128,-1,35
 1007 313 1007 313 1007 300 c 0,36,37
 1007 288 1007 288 999 276.5 c 128,-1,38
 991 265 991 265 972 245 c 2,39,-1
 793 51 l 2,40,41
 769 24 769 24 743 24 c 0,42,43
 679 24 679 24 679 94 c 0,44,45
 679 107 679 107 682.5 125.5 c 128,-1,46
 686 144 686 144 689 162 c 128,-1,47
 692 180 692 180 692 190 c 0,48,49
 692 228 692 228 639 228 c 2,50,-1
 607 228 l 2,51,52
 589 228 589 228 582 219.5 c 128,-1,53
 575 211 575 211 557 186 c 2,54,-1
 488 89 l 2,55,56
 463 54 463 54 447 39 c 128,-1,57
 431 24 431 24 398 24 c 2,58,-1
 103 24 l 2,0,1
EndSplineSet
EndChar
StartChar: uni27BE
Encoding: 10174 10174 168
Width: 1008
Flags: W
LayerCount: 2
Fore
SplineSet
603 38 m 1,0,-1
 881 300 l 1,1,-1
 603 562 l 1,2,-1
 679 562 l 1,3,-1
 957 300 l 1,4,-1
 679 38 l 1,5,-1
 603 38 l 1,0,-1
51 336 m 1,6,-1
 51 390 l 1,7,-1
 627 390 l 1,8,-1
 444 562 l 1,9,-1
 520 562 l 1,10,-1
 761 336 l 1,11,-1
 51 336 l 1,6,-1
444 38 m 1,12,-1
 627 210 l 1,13,-1
 51 210 l 1,14,-1
 51 264 l 1,15,-1
 761 264 l 1,16,-1
 520 38 l 1,17,-1
 444 38 l 1,12,-1
EndSplineSet
EndChar
StartChar: uni2809
Encoding: 10249 10249 621
Width: 700
Flags: W
LayerCount: 2
Fore
SplineSet
484 559 m 0,0,1
 454 559 454 559 436.5 577 c 128,-1,2
 419 595 419 595 419 629 c 0,3,4
 419 661 419 661 436 680 c 128,-1,5
 453 699 453 699 484 699 c 0,6,7
 512 699 512 699 530 681 c 128,-1,8
 548 663 548 663 548 629 c 0,9,10
 548 596 548 596 530.5 577.5 c 128,-1,11
 513 559 513 559 484 559 c 0,0,1
217 559 m 0,12,13
 187 559 187 559 169.5 577 c 128,-1,14
 152 595 152 595 152 629 c 0,15,16
 152 661 152 661 169 680 c 128,-1,17
 186 699 186 699 217 699 c 0,18,19
 246 699 246 699 263.5 681 c 128,-1,20
 281 663 281 663 281 629 c 0,21,22
 281 596 281 596 263.5 577.5 c 128,-1,23
 246 559 246 559 217 559 c 0,12,13
EndSplineSet
EndChar
StartChar: uni2811
Encoding: 10257 10257 637
Width: 700
Flags: W
LayerCount: 2
Fore
SplineSet
217 559 m 0,0,1
 187 559 187 559 169.5 577 c 128,-1,2
 152 595 152 595 152 629 c 0,3,4
 152 661 152 661 169 680 c 128,-1,5
 186 699 186 699 217 699 c 0,6,7
 246 699 246 699 263.5 681 c 128,-1,8
 281 663 281 663 281 629 c 0,9,10
 281 596 281 596 263.5 577.5 c 128,-1,11
 246 559 246 559 217 559 c 0,0,1
484 309 m 0,12,13
 454 309 454 309 436.5 327 c 128,-1,14
 419 345 419 345 419 379 c 0,15,16
 419 411 419 411 436 430 c 128,-1,17
 453 449 453 449 484 449 c 0,18,19
 512 449 512 449 530 431 c 128,-1,20
 548 413 548 413 548 379 c 0,21,22
 548 346 548 346 530.5 327.5 c 128,-1,23
 513 309 513 309 484 309 c 0,12,13
EndSplineSet
EndChar
StartChar: uni2872
Encoding: 10354 10354 703
Width: 700
Flags: W
LayerCount: 2
Fore
SplineSet
484 309 m 0,0,1
 454 309 454 309 436.5 327 c 128,-1,2
 419 345 419 345 419 379 c 0,3,4
 419 411 419 411 436 430 c 128,-1,5
 453 449 453 449 484 449 c 0,6,7
 512 449 512 449 530 431 c 128,-1,8
 548 413 548 413 548 379 c 0,9,10
 548 346 548 346 530.5 327.5 c 128,-1,11
 513 309 513 309 484 309 c 0,0,1
217 309 m 0,12,13
 187 309 187 309 169.5 327 c 128,-1,14
 152 345 152 345 152 379 c 0,15,16
 152 411 152 411 169 430 c 128,-1,17
 186 449 186 449 217 449 c 0,18,19
 246 449 246 449 263.5 431 c 128,-1,20
 281 413 281 413 281 379 c 0,21,22
 281 346 281 346 263.5 327.5 c 128,-1,23
 246 309 246 309 217 309 c 0,12,13
484 59 m 0,24,25
 454 59 454 59 436.5 77 c 128,-1,26
 419 95 419 95 419 129 c 0,27,28
 419 161 419 161 436 180 c 128,-1,29
 453 199 453 199 484 199 c 0,30,31
 512 199 512 199 530 181 c 128,-1,32
 548 163 548 163 548 129 c 0,33,34
 548 96 548 96 530.5 77.5 c 128,-1,35
 513 59 513 59 484 59 c 0,24,25
217 -191 m 0,36,37
 187 -191 187 -191 169.5 -173 c 128,-1,38
 152 -155 152 -155 152 -121 c 0,39,40
 152 -89 152 -89 169 -70 c 128,-1,41
 186 -51 186 -51 217 -51 c 0,42,43
 246 -51 246 -51 263.5 -69 c 128,-1,44
 281 -87 281 -87 281 -121 c 0,45,46
 281 -154 281 -154 263.5 -172.5 c 128,-1,47
 246 -191 246 -191 217 -191 c 0,36,37
EndSplineSet
EndChar
StartChar: uni2880
Encoding: 10368 10368 778
Width: 700
Flags: W
LayerCount: 2
Fore
SplineSet
484 -191 m 0,0,1
 454 -191 454 -191 436.5 -173 c 128,-1,2
 419 -155 419 -155 419 -121 c 0,3,4
 419 -89 419 -89 436 -70 c 128,-1,5
 453 -51 453 -51 484 -51 c 0,6,7
 512 -51 512 -51 530 -69 c 128,-1,8
 548 -87 548 -87 548 -121 c 0,9,10
 548 -154 548 -154 530.5 -172.5 c 128,-1,11
 513 -191 513 -191 484 -191 c 0,0,1
EndSplineSet
EndChar
StartChar: uni2884
Encoding: 10372 10372 747
Width: 700
Flags: W
LayerCount: 2
Fore
SplineSet
217 59 m 0,0,1
 187 59 187 59 169.5 77 c 128,-1,2
 152 95 152 95 152 129 c 0,3,4
 152 161 152 161 169 180 c 128,-1,5
 186 199 186 199 217 199 c 0,6,7
 246 199 246 199 263.5 181 c 128,-1,8
 281 163 281 163 281 129 c 0,9,10
 281 96 281 96 263.5 77.5 c 128,-1,11
 246 59 246 59 217 59 c 0,0,1
484 -191 m 0,12,13
 454 -191 454 -191 436.5 -173 c 128,-1,14
 419 -155 419 -155 419 -121 c 0,15,16
 419 -89 419 -89 436 -70 c 128,-1,17
 453 -51 453 -51 484 -51 c 0,18,19
 512 -51 512 -51 530 -69 c 128,-1,20
 548 -87 548 -87 548 -121 c 0,21,22
 548 -154 548 -154 530.5 -172.5 c 128,-1,23
 513 -191 513 -191 484 -191 c 0,12,13
EndSplineSet
EndChar
StartChar: uni2888
Encoding: 10376 10376 763
Width: 700
Flags: W
LayerCount: 2
Fore
SplineSet
484 559 m 0,0,1
 454 559 454 559 436.5 577 c 128,-1,2
 419 595 419 595 419 629 c 0,3,4
 419 661 419 661 436 680 c 128,-1,5
 453 699 453 699 484 699 c 0,6,7
 512 699 512 699 530 681 c 128,-1,8
 548 663 548 663 548 629 c 0,9,10
 548 596 548 596 530.5 577.5 c 128,-1,11
 513 559 513 559 484 559 c 0,0,1
484 -191 m 0,12,13
 454 -191 454 -191 436.5 -173 c 128,-1,14
 419 -155 419 -155 419 -121 c 0,15,16
 419 -89 419 -89 436 -70 c 128,-1,17
 453 -51 453 -51 484 -51 c 0,18,19
 512 -51 512 -51 530 -69 c 128,-1,20
 548 -87 548 -87 548 -121 c 0,21,22
 548 -154 548 -154 530.5 -172.5 c 128,-1,23
 513 -191 513 -191 484 -191 c 0,12,13
EndSplineSet
EndChar
StartChar: uni288F
Encoding: 10383 10383 542
Width: 700
Flags: W
LayerCount: 2
Fore
SplineSet
484 559 m 0,0,1
 454 559 454 559 436.5 577 c 128,-1,2
 419 595 419 595 419 629 c 0,3,4
 419 661 419 661 436 680 c 128,-1,5
 453 699 453 699 484 699 c 0,6,7
 512 699 512 699 530 681 c 128,-1,8
 548 663 548 663 548 629 c 0,9,10
 548 596 548 596 530.5 577.5 c 128,-1,11
 513 559 513 559 484 559 c 0,0,1
217 559 m 0,12,13
 187 559 187 559 169.5 577 c 128,-1,14
 152 595 152 595 152 629 c 0,15,16
 152 661 152 661 169 680 c 128,-1,17
 186 699 186 699 217 699 c 0,18,19
 246 699 246 699 263.5 681 c 128,-1,20
 281 663 281 663 281 629 c 0,21,22
 281 596 281 596 263.5 577.5 c 128,-1,23
 246 559 246 559 217 559 c 0,12,13
217 309 m 0,24,25
 187 309 187 309 169.5 327 c 128,-1,26
 152 345 152 345 152 379 c 0,27,28
 152 411 152 411 169 430 c 128,-1,29
 186 449 186 449 217 449 c 0,30,31
 246 449 246 449 263.5 431 c 128,-1,32
 281 413 281 413 281 379 c 0,33,34
 281 346 281 346 263.5 327.5 c 128,-1,35
 246 309 246 309 217 309 c 0,24,25
217 59 m 0,36,37
 187 59 187 59 169.5 77 c 128,-1,38
 152 95 152 95 152 129 c 0,39,40
 152 161 152 161 169 180 c 128,-1,41
 186 199 186 199 217 199 c 0,42,43
 246 199 246 199 263.5 181 c 128,-1,44
 281 163 281 163 281 129 c 0,45,46
 281 96 281 96 263.5 77.5 c 128,-1,47
 246 59 246 59 217 59 c 0,36,37
484 -191 m 0,48,49
 454 -191 454 -191 436.5 -173 c 128,-1,50
 419 -155 419 -155 419 -121 c 0,51,52
 419 -89 419 -89 436 -70 c 128,-1,53
 453 -51 453 -51 484 -51 c 0,54,55
 512 -51 512 -51 530 -69 c 128,-1,56
 548 -87 548 -87 548 -121 c 0,57,58
 548 -154 548 -154 530.5 -172.5 c 128,-1,59
 513 -191 513 -191 484 -191 c 0,48,49
EndSplineSet
EndChar
StartChar: uni28A0
Encoding: 10400 10400 775
Width: 700
Flags: W
LayerCount: 2
Fore
SplineSet
484 59 m 0,0,1
 454 59 454 59 436.5 77 c 128,-1,2
 419 95 419 95 419 129 c 0,3,4
 419 161 419 161 436 180 c 128,-1,5
 453 199 453 199 484 199 c 0,6,7
 512 199 512 199 530 181 c 128,-1,8
 548 163 548 163 548 129 c 0,9,10
 548 96 548 96 530.5 77.5 c 128,-1,11
 513 59 513 59 484 59 c 0,0,1
484 -191 m 0,12,13
 454 -191 454 -191 436.5 -173 c 128,-1,14
 419 -155 419 -155 419 -121 c 0,15,16
 419 -89 419 -89 436 -70 c 128,-1,17
 453 -51 453 -51 484 -51 c 0,18,19
 512 -51 512 -51 530 -69 c 128,-1,20
 548 -87 548 -87 548 -121 c 0,21,22
 548 -154 548 -154 530.5 -172.5 c 128,-1,23
 513 -191 513 -191 484 -191 c 0,12,13
EndSplineSet
EndChar
StartChar: uni28A8
Encoding: 10408 10408 760
Width: 700
Flags: W
LayerCount: 2
Fore
SplineSet
484 559 m 0,0,1
 454 559 454 559 436.5 577 c 128,-1,2
 419 595 419 595 419 629 c 0,3,4
 419 661 419 661 436 680 c 128,-1,5
 453 699 453 699 484 699 c 0,6,7
 512 699 512 699 530 681 c 128,-1,8
 548 663 548 663 548 629 c 0,9,10
 548 596 548 596 530.5 577.5 c 128,-1,11
 513 559 513 559 484 559 c 0,0,1
484 59 m 0,12,13
 454 59 454 59 436.5 77 c 128,-1,14
 419 95 419 95 419 129 c 0,15,16
 419 161 419 161 436 180 c 128,-1,17
 453 199 453 199 484 199 c 0,18,19
 512 199 512 199 530 181 c 128,-1,20
 548 163 548 163 548 129 c 0,21,22
 548 96 548 96 530.5 77.5 c 128,-1,23
 513 59 513 59 484 59 c 0,12,13
484 -191 m 0,24,25
 454 -191 454 -191 436.5 -173 c 128,-1,26
 419 -155 419 -155 419 -121 c 0,27,28
 419 -89 419 -89 436 -70 c 128,-1,29
 453 -51 453 -51 484 -51 c 0,30,31
 512 -51 512 -51 530 -69 c 128,-1,32
 548 -87 548 -87 548 -121 c 0,33,34
 548 -154 548 -154 530.5 -172.5 c 128,-1,35
 513 -191 513 -191 484 -191 c 0,24,25
EndSplineSet
EndChar
StartChar: uni28AB
Encoding: 10411 10411 570
Width: 700
Flags: W
LayerCount: 2
Fore
SplineSet
484 559 m 0,0,1
 454 559 454 559 436.5 577 c 128,-1,2
 419 595 419 595 419 629 c 0,3,4
 419 661 419 661 436 680 c 128,-1,5
 453 699 453 699 484 699 c 0,6,7
 512 699 512 699 530 681 c 128,-1,8
 548 663 548 663 548 629 c 0,9,10
 548 596 548 596 530.5 577.5 c 128,-1,11
 513 559 513 559 484 559 c 0,0,1
217 559 m 0,12,13
 187 559 187 559 169.5 577 c 128,-1,14
 152 595 152 595 152 629 c 0,15,16
 152 661 152 661 169 680 c 128,-1,17
 186 699 186 699 217 699 c 0,18,19
 246 699 246 699 263.5 681 c 128,-1,20
 281 663 281 663 281 629 c 0,21,22
 281 596 281 596 263.5 577.5 c 128,-1,23
 246 559 246 559 217 559 c 0,12,13
217 309 m 0,24,25
 187 309 187 309 169.5 327 c 128,-1,26
 152 345 152 345 152 379 c 0,27,28
 152 411 152 411 169 430 c 128,-1,29
 186 449 186 449 217 449 c 0,30,31
 246 449 246 449 263.5 431 c 128,-1,32
 281 413 281 413 281 379 c 0,33,34
 281 346 281 346 263.5 327.5 c 128,-1,35
 246 309 246 309 217 309 c 0,24,25
484 59 m 0,36,37
 454 59 454 59 436.5 77 c 128,-1,38
 419 95 419 95 419 129 c 0,39,40
 419 161 419 161 436 180 c 128,-1,41
 453 199 453 199 484 199 c 0,42,43
 512 199 512 199 530 181 c 128,-1,44
 548 163 548 163 548 129 c 0,45,46
 548 96 548 96 530.5 77.5 c 128,-1,47
 513 59 513 59 484 59 c 0,36,37
484 -191 m 0,48,49
 454 -191 454 -191 436.5 -173 c 128,-1,50
 419 -155 419 -155 419 -121 c 0,51,52
 419 -89 419 -89 436 -70 c 128,-1,53
 453 -51 453 -51 484 -51 c 0,54,55
 512 -51 512 -51 530 -69 c 128,-1,56
 548 -87 548 -87 548 -121 c 0,57,58
 548 -154 548 -154 530.5 -172.5 c 128,-1,59
 513 -191 513 -191 484 -191 c 0,48,49
EndSplineSet
EndChar
StartChar: uni28B1
Encoding: 10417 10417 641
Width: 700
Flags: W
LayerCount: 2
Fore
SplineSet
217 559 m 0,0,1
 187 559 187 559 169.5 577 c 128,-1,2
 152 595 152 595 152 629 c 0,3,4
 152 661 152 661 169 680 c 128,-1,5
 186 699 186 699 217 699 c 0,6,7
 246 699 246 699 263.5 681 c 128,-1,8
 281 663 281 663 281 629 c 0,9,10
 281 596 281 596 263.5 577.5 c 128,-1,11
 246 559 246 559 217 559 c 0,0,1
484 309 m 0,12,13
 454 309 454 309 436.5 327 c 128,-1,14
 419 345 419 345 419 379 c 0,15,16
 419 411 419 411 436 430 c 128,-1,17
 453 449 453 449 484 449 c 0,18,19
 512 449 512 449 530 431 c 128,-1,20
 548 413 548 413 548 379 c 0,21,22
 548 346 548 346 530.5 327.5 c 128,-1,23
 513 309 513 309 484 309 c 0,12,13
484 59 m 0,24,25
 454 59 454 59 436.5 77 c 128,-1,26
 419 95 419 95 419 129 c 0,27,28
 419 161 419 161 436 180 c 128,-1,29
 453 199 453 199 484 199 c 0,30,31
 512 199 512 199 530 181 c 128,-1,32
 548 163 548 163 548 129 c 0,33,34
 548 96 548 96 530.5 77.5 c 128,-1,35
 513 59 513 59 484 59 c 0,24,25
484 -191 m 0,36,37
 454 -191 454 -191 436.5 -173 c 128,-1,38
 419 -155 419 -155 419 -121 c 0,39,40
 419 -89 419 -89 436 -70 c 128,-1,41
 453 -51 453 -51 484 -51 c 0,42,43
 512 -51 512 -51 530 -69 c 128,-1,44
 548 -87 548 -87 548 -121 c 0,45,46
 548 -154 548 -154 530.5 -172.5 c 128,-1,47
 513 -191 513 -191 484 -191 c 0,36,37
EndSplineSet
EndChar
StartChar: uni28C1
Encoding: 10433 10433 650
Width: 700
Flags: W
LayerCount: 2
Fore
SplineSet
217 559 m 0,0,1
 187 559 187 559 169.5 577 c 128,-1,2
 152 595 152 595 152 629 c 0,3,4
 152 661 152 661 169 680 c 128,-1,5
 186 699 186 699 217 699 c 0,6,7
 246 699 246 699 263.5 681 c 128,-1,8
 281 663 281 663 281 629 c 0,9,10
 281 596 281 596 263.5 577.5 c 128,-1,11
 246 559 246 559 217 559 c 0,0,1
217 -191 m 0,12,13
 187 -191 187 -191 169.5 -173 c 128,-1,14
 152 -155 152 -155 152 -121 c 0,15,16
 152 -89 152 -89 169 -70 c 128,-1,17
 186 -51 186 -51 217 -51 c 0,18,19
 246 -51 246 -51 263.5 -69 c 128,-1,20
 281 -87 281 -87 281 -121 c 0,21,22
 281 -154 281 -154 263.5 -172.5 c 128,-1,23
 246 -191 246 -191 217 -191 c 0,12,13
484 -191 m 0,24,25
 454 -191 454 -191 436.5 -173 c 128,-1,26
 419 -155 419 -155 419 -121 c 0,27,28
 419 -89 419 -89 436 -70 c 128,-1,29
 453 -51 453 -51 484 -51 c 0,30,31
 512 -51 512 -51 530 -69 c 128,-1,32
 548 -87 548 -87 548 -121 c 0,33,34
 548 -154 548 -154 530.5 -172.5 c 128,-1,35
 513 -191 513 -191 484 -191 c 0,24,25
EndSplineSet
EndChar
StartChar: uni28D0
Encoding: 10448 10448 770
Width: 700
Flags: W
LayerCount: 2
Fore
SplineSet
484 309 m 0,0,1
 454 309 454 309 436.5 327 c 128,-1,2
 419 345 419 345 419 379 c 0,3,4
 419 411 419 411 436 430 c 128,-1,5
 453 449 453 449 484 449 c 0,6,7
 512 449 512 449 530 431 c 128,-1,8
 548 413 548 413 548 379 c 0,9,10
 548 346 548 346 530.5 327.5 c 128,-1,11
 513 309 513 309 484 309 c 0,0,1
217 -191 m 0,12,13
 187 -191 187 -191 169.5 -173 c 128,-1,14
 152 -155 152 -155 152 -121 c 0,15,16
 152 -89 152 -89 169 -70 c 128,-1,17
 186 -51 186 -51 217 -51 c 0,18,19
 246 -51 246 -51 263.5 -69 c 128,-1,20
 281 -87 281 -87 281 -121 c 0,21,22
 281 -154 281 -154 263.5 -172.5 c 128,-1,23
 246 -191 246 -191 217 -191 c 0,12,13
484 -191 m 0,24,25
 454 -191 454 -191 436.5 -173 c 128,-1,26
 419 -155 419 -155 419 -121 c 0,27,28
 419 -89 419 -89 436 -70 c 128,-1,29
 453 -51 453 -51 484 -51 c 0,30,31
 512 -51 512 -51 530 -69 c 128,-1,32
 548 -87 548 -87 548 -121 c 0,33,34
 548 -154 548 -154 530.5 -172.5 c 128,-1,35
 513 -191 513 -191 484 -191 c 0,24,25
EndSplineSet
EndChar
StartChar: uni2981
Encoding: 10625 10625 101
Width: 528
Flags: W
LayerCount: 2
Fore
SplineSet
264 149 m 256,0,1
 206 149 206 149 157.5 177.5 c 128,-1,2
 109 206 109 206 80 254 c 128,-1,3
 51 302 51 302 51 362 c 256,4,5
 51 422 51 422 80 470 c 128,-1,6
 109 518 109 518 157.5 546.5 c 128,-1,7
 206 575 206 575 264 575 c 256,8,9
 322 575 322 575 370.5 546 c 128,-1,10
 419 517 419 517 448 468.5 c 128,-1,11
 477 420 477 420 477 362 c 0,12,13
 477 303 477 303 448 254.5 c 128,-1,14
 419 206 419 206 370.5 177.5 c 128,-1,15
 322 149 322 149 264 149 c 256,0,1
EndSplineSet
EndChar
StartChar: uni2B01
Encoding: 11009 11009 111
Width: 696
Flags: W
LayerCount: 2
Fore
SplineSet
465 6 m 1,0,-1
 159 312 l 1,1,-1
 51 204 l 1,2,-1
 51 600 l 1,3,-1
 447 600 l 1,4,-1
 339 492 l 1,5,-1
 645 186 l 1,6,-1
 465 6 l 1,0,-1
465 48 m 1,7,-1
 603 186 l 1,8,-1
 296 492 l 1,9,-1
 374 570 l 1,10,-1
 81 570 l 1,11,-1
 81 277 l 1,12,-1
 159 355 l 1,13,-1
 465 48 l 1,7,-1
EndSplineSet
EndChar
StartChar: uni2B02
Encoding: 11010 11010 107
Width: 696
Flags: W
LayerCount: 2
Fore
SplineSet
249 6 m 1,0,-1
 357 114 l 1,1,-1
 51 420 l 1,2,-1
 231 600 l 1,3,-1
 537 294 l 1,4,-1
 645 402 l 1,5,-1
 645 6 l 1,6,-1
 249 6 l 1,0,-1
322 36 m 1,7,-1
 615 36 l 1,8,-1
 615 329 l 1,9,-1
 537 251 l 1,10,-1
 231 558 l 1,11,-1
 93 420 l 1,12,-1
 400 114 l 1,13,-1
 322 36 l 1,7,-1
EndSplineSet
EndChar
StartChar: uni2B04
Encoding: 11012 11012 112
Width: 965
Flags: W
LayerCount: 2
Fore
SplineSet
331 62 m 1,0,-1
 51 342 l 1,1,-1
 331 622 l 1,2,-1
 331 469 l 1,3,-1
 634 469 l 1,4,-1
 634 622 l 1,5,-1
 914 342 l 1,6,-1
 634 62 l 1,7,-1
 634 215 l 1,8,-1
 331 215 l 1,9,-1
 331 62 l 1,0,-1
301 135 m 1,10,-1
 301 245 l 1,11,-1
 664 245 l 1,12,-1
 664 135 l 1,13,-1
 871 342 l 1,14,-1
 664 549 l 1,15,-1
 664 439 l 1,16,-1
 301 439 l 1,17,-1
 301 549 l 1,18,-1
 94 342 l 1,19,-1
 301 135 l 1,10,-1
EndSplineSet
EndChar
StartChar: uni2B08
Encoding: 11016 11016 132
Width: 706
Flags: W
LayerCount: 2
Fore
SplineSet
217 5 m 1,0,-1
 51 171 l 1,1,-1
 362 482 l 1,2,-1
 275 569 l 1,3,-1
 655 609 l 1,4,-1
 615 229 l 1,5,-1
 528 316 l 1,6,-1
 217 5 l 1,0,-1
EndSplineSet
EndChar
StartChar: uni2B0A
Encoding: 11018 11018 134
Width: 706
Flags: W
LayerCount: 2
Fore
SplineSet
655 5 m 1,0,-1
 275 45 l 1,1,-1
 362 132 l 1,2,-1
 51 443 l 1,3,-1
 217 609 l 1,4,-1
 528 298 l 1,5,-1
 615 385 l 1,6,-1
 655 5 l 1,0,-1
EndSplineSet
EndChar
StartChar: uni2B12
Encoding: 11026 11026 953
Width: 700
Flags: W
LayerCount: 2
Fore
SplineSet
51 0 m 1,0,-1
 51 598 l 1,1,-1
 649 598 l 1,2,-1
 649 0 l 1,3,-1
 51 0 l 1,0,-1
88 37 m 1,4,-1
 612 37 l 1,5,-1
 612 299 l 1,6,-1
 88 299 l 1,7,-1
 88 37 l 1,4,-1
EndSplineSet
EndChar
StartChar: uni2B18
Encoding: 11032 11032 204
Width: 703
Flags: W
LayerCount: 2
Fore
SplineSet
353 63 m 1,0,-1
 51 362 l 1,1,-1
 353 661 l 1,2,-1
 652 362 l 1,3,-1
 353 63 l 1,0,-1
353 114 m 1,4,-1
 601 362 l 1,5,-1
 106 362 l 1,6,-1
 353 114 l 1,4,-1
EndSplineSet
EndChar
StartChar: uni2B1B
Encoding: 11035 11035 438
Width: 1022
Flags: W
LayerCount: 2
Fore
SplineSet
51 -98 m 1,0,-1
 51 822 l 1,1,-1
 971 822 l 1,2,-1
 971 -98 l 1,3,-1
 51 -98 l 1,0,-1
EndSplineSet
EndChar
StartChar: uni2B27
Encoding: 11047 11047 447
Width: 510
Flags: W
LayerCount: 2
Fore
SplineSet
255 19 m 1,0,-1
 51 363 l 1,1,-1
 255 705 l 1,2,-1
 459 363 l 1,3,-1
 255 19 l 1,0,-1
EndSplineSet
EndChar
StartChar: uni2B28
Encoding: 11048 11048 1223
Width: 510
Flags: W
LayerCount: 2
Fore
SplineSet
255 19 m 1,0,-1
 51 363 l 1,1,-1
 255 705 l 1,2,-1
 459 363 l 1,3,-1
 255 19 l 1,0,-1
255 113 m 1,4,-1
 403 363 l 1,5,-1
 255 611 l 1,6,-1
 107 363 l 1,7,-1
 255 113 l 1,4,-1
EndSplineSet
EndChar
StartChar: uni2B51
Encoding: 11089 11089 469
Width: 474
Flags: W
LayerCount: 2
Fore
SplineSet
121 204 m 1,0,-1
 166 339 l 1,1,-1
 51 423 l 1,2,-1
 193 423 l 1,3,-1
 237 557 l 1,4,-1
 281 423 l 1,5,-1
 423 423 l 1,6,-1
 307 339 l 1,7,-1
 353 204 l 1,8,-1
 237 288 l 1,9,-1
 121 204 l 1,0,-1
EndSplineSet
EndChar
StartChar: uni2B68
Encoding: 11112 11112 1111
Width: 600
Flags: W
LayerCount: 2
Fore
SplineSet
549 85 m 1,0,-1
 321 138 l 1,1,-1
 372 189 l 1,2,-1
 51 510 l 1,3,-1
 125 583 l 1,4,-1
 446 262 l 1,5,-1
 497 313 l 1,6,-1
 549 85 l 1,0,-1
EndSplineSet
EndChar
StartChar: uni2B69
Encoding: 11113 11113 1117
Width: 600
Flags: W
LayerCount: 2
Fore
SplineSet
51 85 m 1,0,-1
 104 313 l 1,1,-1
 154 262 l 1,2,-1
 476 583 l 1,3,-1
 549 510 l 1,4,-1
 228 189 l 1,5,-1
 279 138 l 1,6,-1
 51 85 l 1,0,-1
EndSplineSet
EndChar
StartChar: uni2B6A
Encoding: 11114 11114 930
Width: 754
Flags: W
LayerCount: 2
Fore
SplineSet
249 222 m 1,0,-1
 51 346 l 1,1,-1
 249 470 l 1,2,-1
 249 397 l 1,3,-1
 316 397 l 1,4,-1
 316 293 l 1,5,-1
 249 293 l 1,6,-1
 249 222 l 1,0,-1
360 293 m 1,7,-1
 360 397 l 1,8,-1
 445 397 l 1,9,-1
 445 293 l 1,10,-1
 360 293 l 1,7,-1
489 293 m 1,11,-1
 489 397 l 1,12,-1
 574 397 l 1,13,-1
 574 293 l 1,14,-1
 489 293 l 1,11,-1
618 293 m 1,15,-1
 618 397 l 1,16,-1
 703 397 l 1,17,-1
 703 293 l 1,18,-1
 618 293 l 1,15,-1
EndSplineSet
EndChar
StartChar: uni2B71
Encoding: 11121 11121 1183
Width: 350
Flags: W
LayerCount: 2
Fore
SplineSet
51 565 m 1,0,-1
 51 661 l 1,1,-1
 299 661 l 1,2,-1
 299 565 l 1,3,-1
 51 565 l 1,0,-1
122 9 m 1,4,-1
 122 342 l 1,5,-1
 51 342 l 1,6,-1
 175 541 l 1,7,-1
 299 342 l 1,8,-1
 226 342 l 1,9,-1
 226 9 l 1,10,-1
 122 9 l 1,4,-1
EndSplineSet
EndChar
StartChar: uni2B76
Encoding: 11126 11126 989
Width: 622
Flags: W
LayerCount: 2
Fore
SplineSet
51 613 m 1,0,-1
 51 709 l 1,1,-1
 299 709 l 1,2,-1
 299 613 l 1,3,-1
 51 613 l 1,0,-1
498 85 m 1,4,-1
 176 407 l 1,5,-1
 126 356 l 1,6,-1
 73 583 l 1,7,-1
 301 531 l 1,8,-1
 250 480 l 1,9,-1
 571 159 l 1,10,-1
 498 85 l 1,4,-1
EndSplineSet
EndChar
StartChar: uni2B7A
Encoding: 11130 11130 920
Width: 754
Flags: W
LayerCount: 2
Fore
SplineSet
249 222 m 1,0,-1
 51 346 l 1,1,-1
 249 470 l 1,2,-1
 249 397 l 1,3,-1
 398 397 l 1,4,-1
 398 470 l 1,5,-1
 445 470 l 1,6,-1
 445 397 l 1,7,-1
 495 397 l 1,8,-1
 495 470 l 1,9,-1
 543 470 l 1,10,-1
 543 397 l 1,11,-1
 703 397 l 1,12,-1
 703 293 l 1,13,-1
 543 293 l 1,14,-1
 543 222 l 1,15,-1
 495 222 l 1,16,-1
 495 293 l 1,17,-1
 445 293 l 1,18,-1
 445 222 l 1,19,-1
 398 222 l 1,20,-1
 398 293 l 1,21,-1
 249 293 l 1,22,-1
 249 222 l 1,0,-1
EndSplineSet
EndChar
StartChar: uni2B7C
Encoding: 11132 11132 1063
Width: 754
Flags: W
LayerCount: 2
Fore
SplineSet
211 222 m 1,0,-1
 211 293 l 1,1,-1
 51 293 l 1,2,-1
 51 397 l 1,3,-1
 211 397 l 1,4,-1
 211 470 l 1,5,-1
 259 470 l 1,6,-1
 259 397 l 1,7,-1
 309 397 l 1,8,-1
 309 470 l 1,9,-1
 356 470 l 1,10,-1
 356 397 l 1,11,-1
 505 397 l 1,12,-1
 505 470 l 1,13,-1
 703 346 l 1,14,-1
 505 222 l 1,15,-1
 505 293 l 1,16,-1
 356 293 l 1,17,-1
 356 222 l 1,18,-1
 309 222 l 1,19,-1
 309 293 l 1,20,-1
 259 293 l 1,21,-1
 259 222 l 1,22,-1
 211 222 l 1,0,-1
EndSplineSet
EndChar
StartChar: uni2B7D
Encoding: 11133 11133 793
Width: 350
Flags: W
LayerCount: 2
Fore
SplineSet
175 27 m 1,0,-1
 51 225 l 1,1,-1
 124 225 l 1,2,-1
 124 374 l 1,3,-1
 51 374 l 1,4,-1
 51 421 l 1,5,-1
 124 421 l 1,6,-1
 124 471 l 1,7,-1
 51 471 l 1,8,-1
 51 519 l 1,9,-1
 124 519 l 1,10,-1
 124 679 l 1,11,-1
 228 679 l 1,12,-1
 228 519 l 1,13,-1
 299 519 l 1,14,-1
 299 471 l 1,15,-1
 228 471 l 1,16,-1
 228 421 l 1,17,-1
 299 421 l 1,18,-1
 299 374 l 1,19,-1
 228 374 l 1,20,-1
 228 225 l 1,21,-1
 299 225 l 1,22,-1
 175 27 l 1,0,-1
EndSplineSet
EndChar
StartChar: uni2B80
Encoding: 11136 11136 933
Width: 754
Flags: W
LayerCount: 2
Fore
SplineSet
249 383 m 1,0,-1
 51 507 l 1,1,-1
 249 631 l 1,2,-1
 249 559 l 1,3,-1
 703 559 l 1,4,-1
 703 455 l 1,5,-1
 249 455 l 1,6,-1
 249 383 l 1,0,-1
505 90 m 1,7,-1
 505 162 l 1,8,-1
 51 162 l 1,9,-1
 51 266 l 1,10,-1
 505 266 l 1,11,-1
 505 338 l 1,12,-1
 703 214 l 1,13,-1
 505 90 l 1,7,-1
EndSplineSet
EndChar
StartChar: uni2B93
Encoding: 11155 11155 977
Width: 772
Flags: W
LayerCount: 2
Fore
SplineSet
334 69 m 1,0,-1
 334 156 l 1,1,-1
 51 156 l 1,2,-1
 51 610 l 1,3,-1
 242 610 l 1,4,-1
 242 506 l 1,5,-1
 155 506 l 1,6,-1
 155 259 l 1,7,-1
 334 259 l 1,8,-1
 334 346 l 1,9,-1
 532 208 l 1,10,-1
 334 69 l 1,0,-1
327 506 m 1,11,-1
 327 610 l 1,12,-1
 721 610 l 1,13,-1
 721 506 l 1,14,-1
 327 506 l 1,11,-1
571 156 m 1,15,-1
 571 259 l 1,16,-1
 721 259 l 1,17,-1
 721 156 l 1,18,-1
 571 156 l 1,15,-1
EndSplineSet
EndChar
StartChar: uni2B99
Encoding: 11161 11161 1140
Width: 855
Flags: W
LayerCount: 2
Fore
SplineSet
51 -8 m 1,0,-1
 428 635 l 1,1,-1
 804 -8 l 1,2,-1
 428 166 l 1,3,-1
 51 -8 l 1,0,-1
727 62 m 1,4,-1
 428 573 l 1,5,-1
 428 200 l 1,6,-1
 727 62 l 1,4,-1
EndSplineSet
EndChar
StartChar: uni2B9A
Encoding: 11162 11162 1142
Width: 745
Flags: W
LayerCount: 2
Fore
SplineSet
51 -35 m 1,0,-1
 225 342 l 1,1,-1
 51 718 l 1,2,-1
 694 342 l 1,3,-1
 51 -35 l 1,0,-1
259 342 m 1,4,-1
 632 342 l 1,5,-1
 121 641 l 1,6,-1
 259 342 l 1,4,-1
EndSplineSet
EndChar
StartChar: uni2BA1
Encoding: 11169 11169 798
Width: 754
Flags: W
LayerCount: 2
Fore
SplineSet
505 69 m 1,0,-1
 505 156 l 1,1,-1
 51 156 l 1,2,-1
 51 610 l 1,3,-1
 154 610 l 1,4,-1
 154 259 l 1,5,-1
 505 259 l 1,6,-1
 505 346 l 1,7,-1
 703 208 l 1,8,-1
 505 69 l 1,0,-1
EndSplineSet
EndChar
StartChar: uni2BA2
Encoding: 11170 11170 1186
Width: 754
Flags: W
LayerCount: 2
Fore
SplineSet
599 69 m 1,0,-1
 599 419 l 1,1,-1
 249 419 l 1,2,-1
 249 333 l 1,3,-1
 51 471 l 1,4,-1
 249 610 l 1,5,-1
 249 523 l 1,6,-1
 703 523 l 1,7,-1
 703 69 l 1,8,-1
 599 69 l 1,0,-1
EndSplineSet
EndChar
StartChar: uni2BA3
Encoding: 11171 11171 1187
Width: 754
Flags: W
LayerCount: 2
Fore
SplineSet
51 69 m 1,0,-1
 51 523 l 1,1,-1
 505 523 l 1,2,-1
 505 610 l 1,3,-1
 703 471 l 1,4,-1
 505 333 l 1,5,-1
 505 419 l 1,6,-1
 154 419 l 1,7,-1
 154 69 l 1,8,-1
 51 69 l 1,0,-1
EndSplineSet
EndChar
StartChar: uni2BA9
Encoding: 11177 11177 421
Width: 974
Flags: W
LayerCount: 2
Fore
SplineSet
638 112 m 1,0,-1
 638 208 l 1,1,-1
 241 208 l 2,2,3
 158 208 158 208 117.5 224 c 128,-1,4
 77 240 77 240 64 275.5 c 128,-1,5
 51 311 51 311 51 370 c 2,6,-1
 51 590 l 1,7,-1
 121 590 l 1,8,9
 121 530 121 530 131 496.5 c 128,-1,10
 141 463 141 463 166 449.5 c 128,-1,11
 191 436 191 436 237 436 c 2,12,-1
 638 436 l 1,13,-1
 638 532 l 1,14,-1
 923 322 l 1,15,-1
 638 112 l 1,0,-1
EndSplineSet
EndChar
StartChar: uni2BAA
Encoding: 11178 11178 426
Width: 974
Flags: W
LayerCount: 2
Fore
SplineSet
853 54 m 1,0,1
 853 114 853 114 843 147.5 c 128,-1,2
 833 181 833 181 808 194.5 c 128,-1,3
 783 208 783 208 737 208 c 2,4,-1
 336 208 l 1,5,-1
 336 112 l 1,6,-1
 51 322 l 1,7,-1
 336 532 l 1,8,-1
 336 436 l 1,9,-1
 733 436 l 2,10,11
 816 436 816 436 856.5 420 c 128,-1,12
 897 404 897 404 910 368.5 c 128,-1,13
 923 333 923 333 923 274 c 2,14,-1
 923 54 l 1,15,-1
 853 54 l 1,0,1
EndSplineSet
EndChar
StartChar: uni2BB6
Encoding: 11190 11190 1032
Width: 903
Flags: W
LayerCount: 2
Fore
SplineSet
322 56 m 1,0,-1
 51 333 l 1,1,-1
 186 333 l 1,2,-1
 186 354 l 2,3,4
 186 387 186 387 199 414.5 c 128,-1,5
 212 442 212 442 236 467 c 2,6,-1
 430 665 l 2,7,8
 460 696 460 696 484 711 c 128,-1,9
 508 726 508 726 535.5 731 c 128,-1,10
 563 736 563 736 603 736 c 2,11,-1
 852 736 l 1,12,-1
 733 603 l 1,13,-1
 852 469 l 1,14,-1
 458 469 l 1,15,-1
 458 333 l 1,16,-1
 592 333 l 1,17,-1
 322 56 l 1,0,-1
458 498 m 1,18,-1
 787 498 l 1,19,-1
 695 603 l 1,20,-1
 786 707 l 1,21,-1
 603 707 l 2,22,23
 568 707 568 707 545 703 c 128,-1,24
 522 699 522 699 502 687 c 128,-1,25
 482 675 482 675 458 650 c 1,26,-1
 458 498 l 1,18,-1
322 98 m 1,27,-1
 523 304 l 1,28,-1
 428 304 l 1,29,-1
 428 621 l 1,30,-1
 257 446 l 2,31,32
 235 424 235 424 225 403 c 128,-1,33
 215 382 215 382 215 354 c 2,34,-1
 215 304 l 1,35,-1
 121 304 l 1,36,-1
 322 98 l 1,27,-1
EndSplineSet
EndChar
StartChar: uni2BBE
Encoding: 11198 11198 503
Width: 901
Flags: W
LayerCount: 2
Fore
SplineSet
451 -40 m 256,0,1
 368 -40 368 -40 295.5 -9 c 128,-1,2
 223 22 223 22 168 77 c 128,-1,3
 113 132 113 132 82 204.5 c 128,-1,4
 51 277 51 277 51 360 c 0,5,6
 51 442 51 442 82 514.5 c 128,-1,7
 113 587 113 587 168 642 c 128,-1,8
 223 697 223 697 295.5 728 c 128,-1,9
 368 759 368 759 451 759 c 256,10,11
 534 759 534 759 606 728 c 128,-1,12
 678 697 678 697 733 642 c 128,-1,13
 788 587 788 587 819 514.5 c 128,-1,14
 850 442 850 442 850 360 c 0,15,16
 850 277 850 277 819 204.5 c 128,-1,17
 788 132 788 132 733 77 c 128,-1,18
 678 22 678 22 606 -9 c 128,-1,19
 534 -40 534 -40 451 -40 c 256,0,1
451 20 m 256,20,21
 522 20 522 20 583 46.5 c 128,-1,22
 644 73 644 73 691 119.5 c 128,-1,23
 738 166 738 166 764 227.5 c 128,-1,24
 790 289 790 289 790 360 c 0,25,26
 790 430 790 430 764 491.5 c 128,-1,27
 738 553 738 553 691 600 c 128,-1,28
 644 647 644 647 583 673 c 128,-1,29
 522 699 522 699 451 699 c 256,30,31
 380 699 380 699 318.5 673 c 128,-1,32
 257 647 257 647 210.5 600 c 128,-1,33
 164 553 164 553 137.5 491.5 c 128,-1,34
 111 430 111 430 111 360 c 0,35,36
 111 289 111 289 137.5 227.5 c 128,-1,37
 164 166 164 166 210.5 119.5 c 128,-1,38
 257 73 257 73 318.5 46.5 c 128,-1,39
 380 20 380 20 451 20 c 256,20,21
273 142 m 1,40,-1
 233 182 l 1,41,-1
 410 360 l 1,42,-1
 233 537 l 1,43,-1
 273 577 l 1,44,-1
 450 400 l 1,45,-1
 628 577 l 1,46,-1
 668 537 l 1,47,-1
 490 360 l 1,48,-1
 668 182 l 1,49,-1
 628 142 l 1,50,-1
 450 320 l 1,51,-1
 273 142 l 1,40,-1
EndSplineSet
EndChar
StartChar: uni2BC4
Encoding: 11204 11204 454
Width: 850
Flags: W
LayerCount: 2
Fore
SplineSet
425 -44 m 1,0,-1
 146 72 l 1,1,-1
 31 350 l 1,2,-1
 146 628 l 1,3,-1
 425 745 l 1,4,-1
 704 628 l 1,5,-1
 820 351 l 1,6,-1
 704 73 l 1,7,-1
 425 -44 l 1,0,-1
EndSplineSet
EndChar
StartChar: uni2BC6
Encoding: 11206 11206 444
Width: 850
Flags: W
LayerCount: 2
Fore
SplineSet
425 -30 m 1,0,-1
 104 538 l 1,1,-1
 746 538 l 1,2,-1
 425 -30 l 1,0,-1
EndSplineSet
EndChar
StartChar: uni2BC8
Encoding: 11208 11208 449
Width: 850
Flags: W
LayerCount: 2
Fore
SplineSet
141 28 m 1,0,-1
 141 670 l 1,1,-1
 709 349 l 1,2,-1
 141 28 l 1,0,-1
EndSplineSet
EndChar
StartChar: uni2BCB
Encoding: 11211 11211 493
Width: 894
Flags: W
LayerCount: 2
Fore
SplineSet
447 -34 m 256,0,1
 364 -34 364 -34 292.5 -3.5 c 128,-1,2
 221 27 221 27 166.5 81.5 c 128,-1,3
 112 136 112 136 81.5 208 c 128,-1,4
 51 280 51 280 51 362 c 1,5,-1
 843 362 l 1,6,7
 843 280 843 280 812.5 208 c 128,-1,8
 782 136 782 136 727.5 81.5 c 128,-1,9
 673 27 673 27 601.5 -3.5 c 128,-1,10
 530 -34 530 -34 447 -34 c 256,0,1
EndSplineSet
EndChar
StartChar: uni2BCC
Encoding: 11212 11212 941
Width: 895
Flags: W
LayerCount: 2
Fore
SplineSet
447 -81 m 1,0,1
 382 278 382 278 24 342 c 1,2,3
 382 406 382 406 447 765 c 1,4,5
 513 406 513 406 870 342 c 1,6,7
 511 277 511 277 447 -81 c 1,0,1
EndSplineSet
EndChar
StartChar: uni2BCF
Encoding: 11215 11215 1080
Width: 895
Flags: W
LayerCount: 2
Fore
SplineSet
177 16 m 1,0,-1
 164 29 l 1,1,2
 249 165 249 165 249 299 c 0,3,4
 249 435 249 435 164 569 c 1,5,-1
 177 583 l 1,6,7
 311 498 311 498 447 498 c 256,8,9
 583 498 583 498 717 583 c 1,10,-1
 730 569 l 1,11,12
 646 434 646 434 646 299 c 0,13,14
 646 163 646 163 731 29 c 1,15,-1
 718 16 l 1,16,17
 582 102 582 102 447 102 c 0,18,19
 313 102 313 102 177 16 c 1,0,-1
278 130 m 1,20,21
 364 160 364 160 447 160 c 0,22,23
 532 160 532 160 616 130 c 1,24,25
 587 215 587 215 587 298 c 0,26,27
 587 384 587 384 617 468 c 1,28,29
 532 439 532 439 448 439 c 0,30,31
 405 439 405 439 363 446.5 c 128,-1,32
 321 454 321 454 278 468 c 1,33,34
 293 426 293 426 300 384 c 128,-1,35
 307 342 307 342 307 299 c 0,36,37
 307 257 307 257 300 215 c 128,-1,38
 293 173 293 173 278 130 c 1,20,21
EndSplineSet
EndChar
StartChar: uni2BD0
Encoding: 11216 11216 1121
Width: 750
Flags: W
LayerCount: 2
Fore
SplineSet
143 123 m 1,0,-1
 143 342 l 1,1,-1
 11 342 l 1,2,-1
 11 367 l 1,3,-1
 143 367 l 1,4,-1
 143 586 l 1,5,-1
 362 586 l 1,6,-1
 362 718 l 1,7,-1
 388 718 l 1,8,-1
 388 586 l 1,9,-1
 607 586 l 1,10,-1
 607 367 l 1,11,-1
 739 367 l 1,12,-1
 739 342 l 1,13,-1
 607 342 l 1,14,-1
 607 123 l 1,15,-1
 388 123 l 1,16,-1
 388 -9 l 1,17,-1
 362 -9 l 1,18,-1
 362 123 l 1,19,-1
 143 123 l 1,0,-1
172 152 m 1,20,-1
 362 152 l 1,21,-1
 362 332 l 1,22,-1
 388 332 l 1,23,-1
 388 152 l 1,24,-1
 578 152 l 1,25,-1
 578 342 l 1,26,-1
 398 342 l 1,27,-1
 398 367 l 1,28,-1
 578 367 l 1,29,-1
 578 557 l 1,30,-1
 388 557 l 1,31,-1
 388 377 l 1,32,-1
 362 377 l 1,33,-1
 362 557 l 1,34,-1
 172 557 l 1,35,-1
 172 367 l 1,36,-1
 352 367 l 1,37,-1
 352 342 l 1,38,-1
 172 342 l 1,39,-1
 172 152 l 1,20,-1
EndSplineSet
EndChar
StartChar: u10140
Encoding: 65856 65856 1823
Width: 510
Flags: W
LayerCount: 2
Fore
SplineSet
70 -18 m 1,0,-1
 70 72 l 1,1,2
 129 72 129 72 180.5 95.5 c 128,-1,3
 232 119 232 119 270.5 159.5 c 128,-1,4
 309 200 309 200 331 252 c 128,-1,5
 353 304 353 304 353 361 c 0,6,7
 353 420 353 420 330.5 472 c 128,-1,8
 308 524 308 524 269 564 c 128,-1,9
 230 604 230 604 179 627 c 128,-1,10
 128 650 128 650 70 650 c 1,11,-1
 70 740 l 1,12,13
 148 740 148 740 216.5 710.5 c 128,-1,14
 285 681 285 681 337.5 628.5 c 128,-1,15
 390 576 390 576 419.5 507.5 c 128,-1,16
 449 439 449 439 449 361 c 256,17,18
 449 283 449 283 419.5 214.5 c 128,-1,19
 390 146 390 146 337.5 93.5 c 128,-1,20
 285 41 285 41 216.5 11.5 c 128,-1,21
 148 -18 148 -18 70 -18 c 1,0,-1
EndSplineSet
EndChar
StartChar: u1014A
Encoding: 65866 65866 1833
Width: 687
Flags: W
LayerCount: 2
Fore
SplineSet
97 0 m 1,0,-1
 97 714 l 1,1,-1
 637 714 l 1,2,-1
 637 433 l 1,3,-1
 547 433 l 1,4,-1
 547 635 l 1,5,-1
 187 635 l 1,6,-1
 187 0 l 1,7,-1
 97 0 l 1,0,-1
352 221 m 1,8,-1
 352 312 l 1,9,-1
 249 312 l 1,10,-1
 348 567 l 1,11,-1
 400 567 l 1,12,-1
 499 312 l 1,13,-1
 396 312 l 1,14,-1
 396 221 l 1,15,-1
 352 221 l 1,8,-1
308 348 m 1,16,-1
 440 348 l 1,17,-1
 374 523 l 1,18,-1
 308 348 l 1,16,-1
EndSplineSet
EndChar
StartChar: u1014E
Encoding: 65870 65870 1837
Width: 687
Flags: W
LayerCount: 2
Fore
SplineSet
97 0 m 1,0,-1
 97 714 l 1,1,-1
 637 714 l 1,2,-1
 637 433 l 1,3,-1
 547 433 l 1,4,-1
 547 635 l 1,5,-1
 187 635 l 1,6,-1
 187 0 l 1,7,-1
 97 0 l 1,0,-1
255 311 m 1,8,-1
 342 439 l 1,9,-1
 255 567 l 1,10,-1
 305 567 l 1,11,-1
 367 476 l 1,12,-1
 429 567 l 1,13,-1
 479 567 l 1,14,-1
 392 439 l 1,15,-1
 479 311 l 1,16,-1
 429 311 l 1,17,-1
 367 403 l 1,18,-1
 305 311 l 1,19,-1
 255 311 l 1,8,-1
343 0 m 1,20,-1
 343 211 l 1,21,-1
 264 211 l 1,22,-1
 264 256 l 1,23,-1
 470 256 l 1,24,-1
 470 211 l 1,25,-1
 391 211 l 1,26,-1
 391 0 l 1,27,-1
 343 0 l 1,20,-1
EndSplineSet
EndChar
StartChar: u1014F
Encoding: 65871 65871 1838
Width: 687
Flags: W
LayerCount: 2
Fore
SplineSet
97 0 m 1,0,-1
 97 714 l 1,1,-1
 637 714 l 1,2,-1
 637 433 l 1,3,-1
 547 433 l 1,4,-1
 547 635 l 1,5,-1
 187 635 l 1,6,-1
 187 0 l 1,7,-1
 97 0 l 1,0,-1
458 303 m 1,8,-1
 273 336 l 1,9,-1
 273 356 l 1,10,-1
 350 442 l 1,11,-1
 267 522 l 1,12,-1
 267 542 l 1,13,-1
 458 573 l 1,14,-1
 458 531 l 1,15,-1
 338 511 l 1,16,-1
 408 446 l 1,17,-1
 336 367 l 1,18,-1
 458 345 l 1,19,-1
 458 303 l 1,8,-1
EndSplineSet
EndChar
StartChar: u10150
Encoding: 65872 65872 1839
Width: 636
Flags: W
LayerCount: 2
Fore
SplineSet
8 0 m 1,0,-1
 282 714 l 1,1,-1
 354 714 l 1,2,-1
 628 0 l 1,3,-1
 8 0 l 1,0,-1
125 79 m 1,4,-1
 511 79 l 1,5,-1
 318 580 l 1,6,-1
 125 79 l 1,4,-1
397 -291 m 1,7,-1
 212 -267 l 1,8,-1
 212 -247 l 1,9,-1
 289 -161 l 1,10,-1
 206 -81 l 1,11,-1
 206 -61 l 1,12,-1
 397 -40 l 1,13,-1
 397 -82 l 1,14,-1
 277 -92 l 1,15,-1
 347 -157 l 1,16,-1
 275 -236 l 1,17,-1
 397 -249 l 1,18,-1
 397 -291 l 1,7,-1
EndSplineSet
EndChar
StartChar: u10151
Encoding: 65873 65873 1840
Width: 687
Flags: W
LayerCount: 2
Fore
SplineSet
97 0 m 1,0,-1
 97 714 l 1,1,-1
 637 714 l 1,2,-1
 637 433 l 1,3,-1
 547 433 l 1,4,-1
 547 635 l 1,5,-1
 187 635 l 1,6,-1
 187 0 l 1,7,-1
 97 0 l 1,0,-1
273 311 m 1,8,-1
 273 349 l 1,9,-1
 350 567 l 1,10,-1
 400 567 l 1,11,-1
 477 349 l 1,12,-1
 477 311 l 1,13,-1
 273 311 l 1,8,-1
318 351 m 1,14,-1
 431 351 l 1,15,-1
 375 519 l 1,16,-1
 318 351 l 1,14,-1
476 -14 m 1,17,-1
 291 19 l 1,18,-1
 291 39 l 1,19,-1
 368 125 l 1,20,-1
 285 205 l 1,21,-1
 285 225 l 1,22,-1
 476 256 l 1,23,-1
 476 214 l 1,24,-1
 356 194 l 1,25,-1
 426 129 l 1,26,-1
 354 50 l 1,27,-1
 476 28 l 1,28,-1
 476 -14 l 1,17,-1
EndSplineSet
EndChar
StartChar: u10152
Encoding: 65874 65874 1841
Width: 760
Flags: W
LayerCount: 2
Fore
SplineSet
97 0 m 1,0,-1
 97 714 l 1,1,-1
 187 714 l 1,2,-1
 187 412 l 1,3,-1
 573 412 l 1,4,-1
 573 714 l 1,5,-1
 663 714 l 1,6,-1
 663 0 l 1,7,-1
 573 0 l 1,8,-1
 573 333 l 1,9,-1
 187 333 l 1,10,-1
 187 0 l 1,11,-1
 97 0 l 1,0,-1
476 -14 m 1,12,-1
 291 19 l 1,13,-1
 291 39 l 1,14,-1
 368 125 l 1,15,-1
 285 205 l 1,16,-1
 285 225 l 1,17,-1
 476 256 l 1,18,-1
 476 214 l 1,19,-1
 356 194 l 1,20,-1
 426 129 l 1,21,-1
 354 50 l 1,22,-1
 476 28 l 1,23,-1
 476 -14 l 1,12,-1
EndSplineSet
EndChar
StartChar: u10153
Encoding: 65875 65875 1842
Width: 687
Flags: W
LayerCount: 2
Fore
SplineSet
97 0 m 1,0,-1
 97 714 l 1,1,-1
 637 714 l 1,2,-1
 637 314 l 1,3,-1
 547 314 l 1,4,-1
 547 418 l 1,5,-1
 344 418 l 1,6,-1
 344 320 l 1,7,-1
 277 320 l 1,8,-1
 277 577 l 1,9,-1
 344 577 l 1,10,-1
 344 479 l 1,11,-1
 547 479 l 1,12,-1
 547 635 l 1,13,-1
 187 635 l 1,14,-1
 187 0 l 1,15,-1
 97 0 l 1,0,-1
520 -14 m 1,16,-1
 335 19 l 1,17,-1
 335 39 l 1,18,-1
 412 125 l 1,19,-1
 329 205 l 1,20,-1
 329 225 l 1,21,-1
 520 256 l 1,22,-1
 520 214 l 1,23,-1
 400 194 l 1,24,-1
 470 129 l 1,25,-1
 398 50 l 1,26,-1
 520 28 l 1,27,-1
 520 -14 l 1,16,-1
EndSplineSet
EndChar
StartChar: u10156
Encoding: 65878 65878 1845
Width: 687
Flags: W
LayerCount: 2
Fore
SplineSet
97 0 m 1,0,-1
 97 714 l 1,1,-1
 637 714 l 1,2,-1
 637 433 l 1,3,-1
 547 433 l 1,4,-1
 547 635 l 1,5,-1
 187 635 l 1,6,-1
 187 0 l 1,7,-1
 97 0 l 1,0,-1
247 311 m 1,8,-1
 256 567 l 1,9,-1
 315 567 l 1,10,-1
 371 416 l 1,11,-1
 427 567 l 1,12,-1
 486 567 l 1,13,-1
 495 311 l 1,14,-1
 450 311 l 1,15,-1
 443 508 l 1,16,-1
 371 311 l 1,17,-1
 299 508 l 1,18,-1
 292 311 l 1,19,-1
 247 311 l 1,8,-1
456 -14 m 1,20,-1
 271 19 l 1,21,-1
 271 39 l 1,22,-1
 348 125 l 1,23,-1
 265 205 l 1,24,-1
 265 225 l 1,25,-1
 456 256 l 1,26,-1
 456 214 l 1,27,-1
 336 194 l 1,28,-1
 406 129 l 1,29,-1
 334 50 l 1,30,-1
 456 28 l 1,31,-1
 456 -14 l 1,20,-1
EndSplineSet
EndChar
StartChar: u1015E
Encoding: 65886 65886 1853
Width: 607
Flags: W
LayerCount: 2
Fore
SplineSet
50 635 m 1,0,-1
 50 714 l 1,1,-1
 557 714 l 1,2,-1
 557 635 l 1,3,-1
 50 635 l 1,0,-1
50 0 m 1,4,-1
 50 79 l 1,5,-1
 557 79 l 1,6,-1
 557 0 l 1,7,-1
 50 0 l 1,4,-1
EndSplineSet
EndChar
StartChar: u10167
Encoding: 65895 65895 1862
Width: 687
Flags: W
LayerCount: 2
Fore
SplineSet
97 0 m 1,0,-1
 97 714 l 1,1,-1
 637 714 l 1,2,-1
 637 433 l 1,3,-1
 547 433 l 1,4,-1
 547 635 l 1,5,-1
 187 635 l 1,6,-1
 187 0 l 1,7,-1
 97 0 l 1,0,-1
277 303 m 1,8,-1
 277 345 l 1,9,-1
 399 367 l 1,10,-1
 327 446 l 1,11,-1
 397 511 l 1,12,-1
 277 531 l 1,13,-1
 277 573 l 1,14,-1
 468 542 l 1,15,-1
 468 522 l 1,16,-1
 385 442 l 1,17,-1
 462 356 l 1,18,-1
 462 336 l 1,19,-1
 277 303 l 1,8,-1
EndSplineSet
EndChar
StartChar: u10168
Encoding: 65896 65896 1863
Width: 692
Flags: W
LayerCount: 2
Fore
SplineSet
97 0 m 1,0,-1
 97 714 l 1,1,-1
 187 714 l 1,2,-1
 552 468 l 1,3,-1
 552 714 l 1,4,-1
 642 714 l 1,5,-1
 642 370 l 1,6,-1
 552 370 l 1,7,-1
 187 616 l 1,8,-1
 187 0 l 1,9,-1
 97 0 l 1,0,-1
EndSplineSet
EndChar
StartChar: u1016A
Encoding: 65898 65898 1865
Width: 1002
Flags: W
LayerCount: 2
Fore
SplineSet
97 0 m 1,0,-1
 97 714 l 1,1,-1
 187 714 l 1,2,-1
 187 413 l 1,3,-1
 543 413 l 1,4,-1
 543 714 l 1,5,-1
 942 714 l 1,6,-1
 942 635 l 1,7,-1
 633 635 l 1,8,-1
 633 412 l 1,9,-1
 924 412 l 1,10,-1
 924 334 l 1,11,-1
 633 334 l 1,12,-1
 633 79 l 1,13,-1
 942 79 l 1,14,-1
 942 0 l 1,15,-1
 543 0 l 1,16,-1
 543 334 l 1,17,-1
 187 334 l 1,18,-1
 187 0 l 1,19,-1
 97 0 l 1,0,-1
EndSplineSet
EndChar
StartChar: u10173
Encoding: 65907 65907 1874
Width: 734
Flags: W
LayerCount: 2
Fore
SplineSet
97 0 m 1,0,-1
 97 714 l 1,1,-1
 206 714 l 1,2,3
 206 759 206 759 227.5 795.5 c 128,-1,4
 249 832 249 832 285.5 853.5 c 128,-1,5
 322 875 322 875 367 875 c 256,6,7
 412 875 412 875 448.5 853.5 c 128,-1,8
 485 832 485 832 506.5 795.5 c 128,-1,9
 528 759 528 759 528 714 c 1,10,-1
 637 714 l 1,11,-1
 637 0 l 1,12,-1
 547 0 l 1,13,-1
 547 635 l 1,14,-1
 187 635 l 1,15,-1
 187 0 l 1,16,-1
 97 0 l 1,0,-1
284 714 m 1,17,-1
 449 714 l 1,18,19
 449 748 449 748 425 772 c 128,-1,20
 401 796 401 796 367 796 c 0,21,22
 332 796 332 796 308 772 c 128,-1,23
 284 748 284 748 284 714 c 1,17,-1
EndSplineSet
EndChar
StartChar: u10175
Encoding: 65909 65909 1817
Width: 583
Flags: W
LayerCount: 2
Fore
SplineSet
0 0 m 1,0,-1
 373 451 l 1,1,-1
 472 451 l 1,2,-1
 164 79 l 1,3,-1
 559 79 l 1,4,-1
 559 0 l 1,5,-1
 0 0 l 1,0,-1
EndSplineSet
EndChar
StartChar: u10178
Encoding: 65912 65912 1820
Width: 649
Flags: W
LayerCount: 2
Fore
SplineSet
286 -10 m 0,0,1
 185 -10 185 -10 125 41.5 c 128,-1,2
 65 93 65 93 65 188 c 0,3,4
 65 242 65 242 90 284.5 c 128,-1,5
 115 327 115 327 158 353.5 c 128,-1,6
 201 380 201 380 256 384 c 1,7,8
 198 401 198 401 163 444 c 128,-1,9
 128 487 128 487 128 553 c 0,10,11
 128 635 128 635 178.5 680 c 128,-1,12
 229 725 229 725 318 725 c 0,13,14
 368 725 368 725 419 712 c 1,15,-1
 401 640 l 1,16,17
 355 651 355 651 319 651 c 0,18,19
 271 651 271 651 243 624.5 c 128,-1,20
 215 598 215 598 215 548 c 0,21,22
 215 504 215 504 240 471.5 c 128,-1,23
 265 439 265 439 309 420.5 c 128,-1,24
 353 402 353 402 409 402 c 0,25,26
 422 402 422 402 435 403 c 128,-1,27
 448 404 448 404 462 405 c 1,28,-1
 462 714 l 1,29,-1
 552 714 l 1,30,-1
 552 0 l 1,31,-1
 462 0 l 1,32,-1
 462 324 l 1,33,34
 443 328 443 328 420 329.5 c 128,-1,35
 397 331 397 331 369 331 c 0,36,37
 262 331 262 331 207 293.5 c 128,-1,38
 152 256 152 256 152 188 c 0,39,40
 152 129 152 129 190 96.5 c 128,-1,41
 228 64 228 64 286 64 c 0,42,43
 350 64 350 64 401 84 c 1,44,-1
 431 16 l 1,45,46
 370 -10 370 -10 286 -10 c 0,0,1
EndSplineSet
EndChar
StartChar: u1017A
Encoding: 65914 65914 1948
Width: 879
Flags: W
LayerCount: 2
Fore
SplineSet
102 -10 m 1,0,-1
 45 44 l 1,1,-1
 364 386 l 1,2,-1
 107 386 l 1,3,-1
 107 465 l 1,4,-1
 772 465 l 1,5,-1
 772 386 l 1,6,-1
 514 386 l 1,7,-1
 834 44 l 1,8,-1
 777 -10 l 1,9,-1
 439 352 l 1,10,-1
 102 -10 l 1,0,-1
EndSplineSet
EndChar
StartChar: u1017D
Encoding: 65917 65917 1951
Width: 533
Flags: W
LayerCount: 2
Fore
SplineSet
418 336 m 1,0,1
 418 415 418 415 368 415 c 0,2,3
 347 415 347 415 306 392 c 256,4,5
 265 369 265 369 227.5 355 c 128,-1,6
 190 341 190 341 155 341 c 0,7,8
 104 341 104 341 77 382.5 c 128,-1,9
 50 424 50 424 50 490 c 1,10,-1
 115 490 l 1,11,12
 115 411 115 411 165 411 c 0,13,14
 186 411 186 411 234 434 c 0,15,16
 280 456 280 456 310.5 470.5 c 128,-1,17
 341 485 341 485 378 485 c 0,18,19
 429 485 429 485 456 443.5 c 128,-1,20
 483 402 483 402 483 336 c 1,21,-1
 418 336 l 1,0,1
418 135 m 1,22,23
 418 214 418 214 368 214 c 0,24,25
 347 214 347 214 306 191 c 0,26,27
 266 168 266 168 228 154 c 128,-1,28
 190 140 190 140 155 140 c 0,29,30
 104 140 104 140 77 181.5 c 128,-1,31
 50 223 50 223 50 289 c 1,32,-1
 115 289 l 1,33,34
 115 210 115 210 165 210 c 0,35,36
 187 210 187 210 235 233 c 0,37,38
 282 256 282 256 312.5 270 c 128,-1,39
 343 284 343 284 378 284 c 0,40,41
 429 284 429 284 456 242.5 c 128,-1,42
 483 201 483 201 483 135 c 1,43,-1
 418 135 l 1,22,23
EndSplineSet
EndChar
StartChar: u1018E
Encoding: 65934 65934 1966
Width: 760
Flags: W
LayerCount: 2
Fore
SplineSet
392 784 m 0,0,1
 343 784 343 784 313 812 c 128,-1,2
 283 840 283 840 283 890 c 256,3,4
 283 940 283 940 313 967.5 c 128,-1,5
 343 995 343 995 392 995 c 0,6,7
 439 995 439 995 470.5 967.5 c 128,-1,8
 502 940 502 940 502 891 c 0,9,10
 502 840 502 840 471 812 c 128,-1,11
 440 784 440 784 392 784 c 0,0,1
392 834 m 0,12,13
 416 834 416 834 432 849 c 128,-1,14
 448 864 448 864 448 890 c 256,15,16
 448 916 448 916 431.5 931 c 128,-1,17
 415 946 415 946 392 946 c 0,18,19
 367 946 367 946 351 931 c 128,-1,20
 335 916 335 916 335 890 c 256,21,22
 335 864 335 864 349.5 849 c 128,-1,23
 364 834 364 834 392 834 c 0,12,13
97 0 m 1,24,-1
 97 714 l 1,25,-1
 201 714 l 1,26,-1
 582 123 l 1,27,-1
 586 123 l 1,28,29
 585 139 585 139 583.5 171 c 128,-1,30
 582 203 582 203 580.5 240.5 c 128,-1,31
 579 278 579 278 579 311 c 2,32,-1
 579 714 l 1,33,-1
 663 714 l 1,34,-1
 663 0 l 1,35,-1
 558 0 l 1,36,-1
 176 593 l 1,37,-1
 172 593 l 1,38,39
 174 558 174 558 177 506 c 128,-1,40
 180 454 180 454 180 399 c 2,41,-1
 180 0 l 1,42,-1
 97 0 l 1,24,-1
EndSplineSet
EndChar
StartChar: u10199
Encoding: 65945 65945 1944
Width: 740
Flags: W
LayerCount: 2
Fore
SplineSet
97 0 m 1,0,-1
 97 333 l 1,1,-1
 10 333 l 1,2,-1
 10 412 l 1,3,-1
 97 412 l 1,4,-1
 97 714 l 1,5,-1
 187 714 l 1,6,-1
 187 412 l 1,7,-1
 553 412 l 1,8,-1
 553 714 l 1,9,-1
 643 714 l 1,10,-1
 643 412 l 1,11,-1
 730 412 l 1,12,-1
 730 333 l 1,13,-1
 643 333 l 1,14,-1
 643 0 l 1,15,-1
 553 0 l 1,16,-1
 553 333 l 1,17,-1
 187 333 l 1,18,-1
 187 0 l 1,19,-1
 97 0 l 1,0,-1
EndSplineSet
EndChar
StartChar: u1019B
Encoding: 65947 65947 1946
Width: 572
Flags: W
LayerCount: 2
Fore
SplineSet
112 -11 m 1,0,-1
 54 39 l 1,1,-1
 452 496 l 1,2,-1
 25 639 l 1,3,-1
 49 711 l 1,4,-1
 519 554 l 1,5,-1
 538 480 l 1,6,-1
 112 -11 l 1,0,-1
EndSplineSet
EndChar
StartChar: u101D0
Encoding: 66000 66000 1714
Width: 833
GlyphClass: 2
Flags: W
AnchorPoint: "Anchor-0" 727 0 basechar 0
LayerCount: 2
Fore
SplineSet
691 -25 m 0,0,1
 689 -25 689 -25 679.5 -18 c 128,-1,2
 670 -11 670 -11 670 -1 c 2,3,-1
 676 19 l 1,4,-1
 687 47 l 2,5,6
 687 56 687 56 671 65 c 128,-1,7
 655 74 655 74 632 82 c 128,-1,8
 609 90 609 90 586 95 c 128,-1,9
 563 100 563 100 549 102 c 0,10,11
 520 105 520 105 504 124 c 0,12,13
 488 144 488 144 450 208 c 1,14,15
 378 110 378 110 357 91 c 0,16,17
 337 72 337 72 291 56.5 c 128,-1,18
 245 41 245 41 182 41 c 0,19,20
 159 41 159 41 138.5 65 c 128,-1,21
 118 89 118 89 118 118 c 0,22,23
 118 162 118 162 142 162 c 0,24,25
 164 162 164 162 180 134 c 1,26,-1
 208 134 l 2,27,28
 227 134 227 134 249.5 144 c 128,-1,29
 272 154 272 154 293.5 169 c 128,-1,30
 315 184 315 184 330 200 c 128,-1,31
 345 216 345 216 348 228 c 0,32,33
 354 252 354 252 354 313 c 0,34,35
 354 363 354 363 340 403 c 1,36,-1
 322 400 l 2,37,38
 299 395 299 395 277 392 c 128,-1,39
 255 389 255 389 235 389 c 0,40,41
 189 389 189 389 120 458 c 1,42,-1
 96 478 l 1,43,44
 50 506 50 506 50 538 c 0,45,46
 50 546 50 546 58 556.5 c 128,-1,47
 66 567 66 567 77 574 c 128,-1,48
 88 581 88 581 97 581 c 0,49,50
 116 581 116 581 143 549 c 0,51,52
 169 517 169 517 190.5 499 c 128,-1,53
 212 481 212 481 243 481 c 0,54,55
 285 481 285 481 318.5 494 c 128,-1,56
 352 507 352 507 365 517 c 1,57,-1
 363 525 l 2,58,59
 360 531 360 531 333 531 c 0,60,61
 318 531 318 531 314.5 536 c 128,-1,62
 311 541 311 541 311 558 c 2,63,-1
 311 567 l 2,64,65
 311 572 311 572 285 580 c 0,66,67
 259 586 259 586 259 603 c 0,68,69
 259 621 259 621 274 644 c 128,-1,70
 289 667 289 667 315 687.5 c 128,-1,71
 341 708 341 708 374 721.5 c 128,-1,72
 407 735 407 735 444 735 c 0,73,74
 486 735 486 735 508.5 713 c 128,-1,75
 531 691 531 691 531 660 c 0,76,77
 531 596 531 596 462 542 c 1,78,-1
 464 532 l 1,79,80
 566 532 566 532 622.5 481.5 c 128,-1,81
 679 431 679 431 679 342 c 0,82,83
 679 308 679 308 676 289.5 c 128,-1,84
 673 271 673 271 661.5 264.5 c 128,-1,85
 650 258 650 258 623 258 c 0,86,87
 610 258 610 258 601.5 274 c 128,-1,88
 593 290 593 290 587.5 314 c 128,-1,89
 582 338 582 338 578 363 c 0,90,91
 566 436 566 436 489 439 c 1,92,-1
 488 369 l 1,93,94
 507 354 507 354 527 329.5 c 128,-1,95
 547 305 547 305 562.5 278.5 c 128,-1,96
 578 252 578 252 583 230 c 256,97,98
 588 208 588 208 593 198 c 128,-1,99
 598 188 598 188 609 184.5 c 128,-1,100
 620 181 620 181 647 176 c 0,101,102
 688 168 688 168 719 145.5 c 128,-1,103
 750 123 750 123 767 89 c 0,104,105
 783 57 783 57 783 20 c 1,106,107
 773 10 773 10 755 -0.5 c 128,-1,108
 737 -11 737 -11 719.5 -18 c 128,-1,109
 702 -25 702 -25 691 -25 c 0,0,1
631 289 m 2,110,-1
 643 291 l 2,111,112
 649 294 649 294 649 331 c 0,113,114
 649 417 649 417 602 461 c 128,-1,115
 555 505 555 505 447 505 c 0,116,117
 441 505 441 505 432 548 c 0,118,119
 432 554 432 554 456 576 c 0,120,121
 478 597 478 597 489.5 616.5 c 128,-1,122
 501 636 501 636 501 661 c 0,123,124
 501 680 501 680 485.5 692.5 c 128,-1,125
 470 705 470 705 442 705 c 0,126,127
 398 705 398 705 364 686.5 c 128,-1,128
 330 668 330 668 311 645 c 128,-1,129
 292 622 292 622 292 609 c 0,130,131
 292 608 292 608 298 606 c 0,132,133
 302 604 302 604 308 602.5 c 128,-1,134
 314 601 314 601 322 599 c 0,135,136
 339 596 339 596 339 567 c 0,137,138
 339 557 339 557 362 555 c 0,139,140
 378 554 378 554 384.5 545.5 c 128,-1,141
 391 537 391 537 393 526.5 c 128,-1,142
 395 516 395 516 395 509 c 0,143,144
 395 500 395 500 347 477 c 0,145,146
 298 453 298 453 239 453 c 0,147,148
 185 453 185 453 127 523 c 0,149,150
 102 553 102 553 94 553 c 0,151,152
 90 553 90 553 84.5 547.5 c 128,-1,153
 79 542 79 542 79 538 c 0,154,155
 79 523 79 523 116 501 c 1,156,-1
 133 485 l 2,157,158
 200 418 200 418 237 418 c 0,159,160
 297 418 297 418 360 440 c 1,161,162
 376 392 376 392 379 358 c 1,163,-1
 461 373 l 1,164,-1
 460 466 l 1,165,-1
 488 468 l 2,166,167
 542 468 542 468 571 442 c 128,-1,168
 600 416 600 416 607 368 c 0,169,170
 609 342 609 342 616 315 c 0,171,172
 624 289 624 289 631 289 c 2,110,-1
382 599 m 256,173,174
 364 599 364 599 352 609 c 128,-1,175
 340 619 340 619 340 635 c 0,176,177
 340 650 340 650 352 660 c 128,-1,178
 364 670 364 670 382 670 c 256,179,180
 400 670 400 670 412.5 660 c 128,-1,181
 425 650 425 650 425 635 c 0,182,183
 425 619 425 619 412.5 609 c 128,-1,184
 400 599 400 599 382 599 c 256,173,174
382 624 m 256,185,186
 396 624 396 624 396 635 c 256,187,188
 396 646 396 646 382 646 c 256,189,190
 368 646 368 646 368 635 c 256,191,192
 368 624 368 624 382 624 c 256,185,186
380 243 m 1,193,194
 400 250 400 250 417.5 252.5 c 128,-1,195
 435 255 435 255 469 256 c 0,196,197
 492 257 492 257 511 255 c 128,-1,198
 530 253 530 253 545 250 c 1,199,200
 538 273 538 273 516.5 301 c 128,-1,201
 495 329 495 329 470 348 c 1,202,-1
 383 334 l 1,203,-1
 383 301 l 1,204,-1
 380 243 l 1,193,194
703 6 m 1,205,206
 709 6 709 6 726.5 16.5 c 128,-1,207
 744 27 744 27 754 36 c 1,208,209
 746 65 746 65 737.5 82 c 128,-1,210
 729 99 729 99 717.5 109.5 c 128,-1,211
 706 120 706 120 688 131 c 0,212,213
 661 147 661 147 625 153 c 0,214,215
 601 157 601 157 587.5 162 c 128,-1,216
 574 167 574 167 566 179.5 c 128,-1,217
 558 192 558 192 552 218 c 1,218,219
 526 228 526 228 471 228 c 1,220,221
 521 143 521 143 530 138 c 0,222,223
 538 133 538 133 588 122 c 0,224,225
 621 115 621 115 650.5 104.5 c 128,-1,226
 680 94 680 94 699 80 c 128,-1,227
 718 66 718 66 718 51 c 0,228,229
 718 46 718 46 715 40 c 128,-1,230
 712 34 712 34 708 25 c 2,231,-1
 701 8 l 1,232,-1
 703 6 l 1,205,206
183 71 m 0,233,234
 231 71 231 71 275.5 84.5 c 128,-1,235
 320 98 320 98 343 121 c 256,236,237
 366 144 366 144 427 226 c 1,238,239
 409 222 409 222 395 217 c 128,-1,240
 381 212 381 212 371 208 c 1,241,242
 356 182 356 182 327 158 c 128,-1,243
 298 134 298 134 267 119 c 128,-1,244
 236 104 236 104 212 104 c 2,245,-1
 172 104 l 1,246,-1
 162 119 l 1,247,-1
 146 134 l 2,248,249
 142 134 142 134 142 126 c 0,250,251
 142 107 142 107 155.5 89 c 128,-1,252
 169 71 169 71 183 71 c 0,233,234
EndSplineSet
EndChar
StartChar: u101D1
Encoding: 66001 66001 1716
Width: 655
GlyphClass: 2
Flags: W
AnchorPoint: "Anchor-0" 398 60 basechar 0
LayerCount: 2
Fore
SplineSet
334 18 m 0,0,1
 320 18 320 18 296 55 c 0,2,3
 284 73 284 73 273 93.5 c 128,-1,4
 262 114 262 114 252 137 c 1,5,6
 238 126 238 126 222 126 c 0,7,8
 195 126 195 126 182 145 c 2,9,-1
 167 164 l 1,10,-1
 165 166 l 1,11,12
 154 170 154 170 139.5 184 c 128,-1,13
 125 198 125 198 114 226 c 1,14,-1
 91 226 l 2,15,16
 80 226 80 226 70 230.5 c 128,-1,17
 60 235 60 235 60 247 c 0,18,19
 60 260 60 260 67.5 280.5 c 128,-1,20
 75 301 75 301 84.5 318.5 c 128,-1,21
 94 336 94 336 99 341 c 1,22,-1
 98 346 l 1,23,-1
 94 361 l 2,24,25
 91 370 91 370 88.5 381.5 c 128,-1,26
 86 393 86 393 86 402 c 0,27,28
 86 446 86 446 127 487 c 1,29,-1
 59 585 l 2,30,31
 50 597 50 597 50 604 c 0,32,33
 50 607 50 607 53.5 613 c 128,-1,34
 57 619 57 619 67 619 c 0,35,36
 74 619 74 619 85 604 c 2,37,-1
 150 507 l 1,38,-1
 152 509 l 1,39,-1
 95 612 l 2,40,41
 88 623 88 623 88 631 c 0,42,43
 88 636 88 636 91.5 640.5 c 128,-1,44
 95 645 95 645 103 645 c 0,45,46
 109 645 109 645 113.5 640.5 c 128,-1,47
 118 636 118 636 122 628 c 2,48,-1
 178 525 l 2,49,50
 181 525 181 525 181 526 c 2,51,-1
 130 642 l 2,52,53
 125 652 125 652 125 661 c 0,54,55
 125 665 125 665 128.5 669.5 c 128,-1,56
 132 674 132 674 138 674 c 0,57,58
 148 674 148 674 158 655 c 2,59,-1
 202 553 l 1,60,-1
 167 658 l 2,61,62
 166 663 166 663 164.5 667 c 128,-1,63
 163 671 163 671 163 675 c 0,64,65
 163 680 163 680 167 684.5 c 128,-1,66
 171 689 171 689 176 689 c 0,67,68
 185 689 185 689 188.5 684.5 c 128,-1,69
 192 680 192 680 196 669 c 2,70,-1
 231 563 l 1,71,-1
 221 676 l 1,72,-1
 221 686 l 2,73,74
 221 696 221 696 224.5 699.5 c 128,-1,75
 228 703 228 703 233 704 c 0,76,77
 239 704 239 704 244 700 c 0,78,79
 250 694 250 694 251 679 c 2,80,-1
 262 550 l 1,81,-1
 263 550 l 1,82,-1
 263 556 l 1,83,-1
 260 693 l 2,84,85
 260 707 260 707 265 710 c 0,86,87
 270 714 270 714 275 714 c 0,88,89
 279 714 279 714 285 710 c 0,90,91
 290 706 290 706 290 688 c 2,92,-1
 289 558 l 1,93,-1
 300 680 l 2,94,95
 302 698 302 698 307 701 c 0,96,97
 316 710 316 710 327 700 c 0,98,99
 331 694 331 694 331 686 c 0,100,101
 331 680 331 680 330 677 c 2,102,-1
 316 551 l 1,103,-1
 321 551 l 1,104,-1
 340 679 l 2,105,106
 341 695 341 695 348 700 c 0,107,108
 352 704 352 704 358 704 c 0,109,110
 371 698 371 698 371 685 c 0,111,112
 371 683 371 683 371 680 c 128,-1,113
 371 677 371 677 370 675 c 2,114,-1
 350 547 l 1,115,-1
 353 547 l 1,116,-1
 379 666 l 2,117,118
 382 682 382 682 388 687 c 0,119,120
 392 690 392 690 399 690 c 0,121,122
 402 688 402 688 406.5 684.5 c 128,-1,123
 411 681 411 681 411 675 c 256,124,125
 411 669 411 669 408 660 c 2,126,-1
 382 547 l 1,127,-1
 424 635 l 2,128,129
 429 646 429 646 433.5 650 c 128,-1,130
 438 654 438 654 445 654 c 0,131,132
 451 654 451 654 454 649.5 c 128,-1,133
 457 645 457 645 457 642 c 0,134,135
 457 635 457 635 451 623 c 2,136,-1
 410 538 l 1,137,-1
 466 619 l 2,138,139
 477 635 477 635 483 635 c 0,140,141
 488 635 488 635 494 633 c 0,142,143
 500 627 500 627 500 622 c 0,144,145
 500 613 500 613 490 602 c 2,146,-1
 441 532 l 1,147,-1
 501 590 l 2,148,149
 514 603 514 603 519 603 c 2,150,-1
 520 603 l 2,151,152
 526 602 526 602 531 599 c 0,153,154
 532 598 532 598 533 595 c 128,-1,155
 534 592 534 592 534 588 c 2,156,-1
 534 587 l 2,157,158
 534 579 534 579 521 569 c 2,159,-1
 448 501 l 1,160,-1
 449 500 l 1,161,-1
 531 560 l 2,162,163
 543 569 543 569 550 569 c 0,164,165
 552 569 552 569 557.5 566.5 c 128,-1,166
 563 564 563 564 563 557 c 256,167,168
 563 550 563 550 559 545 c 128,-1,169
 555 540 555 540 548 536 c 2,170,-1
 489 496 l 1,171,-1
 575 520 l 2,172,173
 586 523 586 523 591 523 c 0,174,175
 597 523 597 523 600.5 519.5 c 128,-1,176
 604 516 604 516 605 513 c 0,177,178
 605 506 605 506 602 502 c 0,179,180
 598 498 598 498 582 492 c 2,181,-1
 476 463 l 1,182,183
 490 430 490 430 490 399 c 0,184,185
 490 363 490 363 471 335.5 c 128,-1,186
 452 308 452 308 433 287 c 2,187,-1
 412 262 l 2,188,189
 401 251 401 251 401 238 c 256,190,191
 401 225 401 225 436 176 c 256,192,193
 471 127 471 127 471 115 c 0,194,195
 471 104 471 104 456 87.5 c 128,-1,196
 441 71 441 71 418 55 c 128,-1,197
 395 39 395 39 372 28.5 c 128,-1,198
 349 18 349 18 334 18 c 0,0,1
344 55 m 0,199,200
 353 55 353 55 367.5 62 c 128,-1,201
 382 69 382 69 397 79.5 c 128,-1,202
 412 90 412 90 422.5 100 c 128,-1,203
 433 110 433 110 433 115 c 0,204,205
 433 125 433 125 399 168 c 0,206,207
 365 212 365 212 365 232 c 0,208,209
 365 262 365 262 389 289 c 0,210,211
 413 317 413 317 435.5 344.5 c 128,-1,212
 458 372 458 372 458 403 c 0,213,214
 458 460 458 460 414.5 492.5 c 128,-1,215
 371 525 371 525 292 525 c 0,216,217
 243 525 243 525 203.5 507 c 128,-1,218
 164 489 164 489 141 461.5 c 128,-1,219
 118 434 118 434 118 406 c 0,220,221
 118 394 118 394 120 384 c 128,-1,222
 122 374 122 374 125 366 c 0,223,224
 133 348 133 348 133 342 c 256,225,226
 133 336 133 336 127 330 c 0,227,228
 125 326 125 326 122.5 322 c 128,-1,229
 120 318 120 318 117 314 c 2,230,-1
 112 303 l 2,231,232
 110 298 110 298 108 294.5 c 128,-1,233
 106 291 106 291 105 288 c 2,234,-1
 100 274 l 2,235,236
 97 268 97 268 97 265 c 0,237,238
 97 263 97 263 100 260 c 0,239,240
 102 258 102 258 112 258 c 2,241,-1
 120 258 l 2,242,243
 142 258 142 258 146 237 c 0,244,245
 149 227 149 227 155.5 218.5 c 128,-1,246
 162 210 162 210 172 204 c 0,247,248
 194 188 194 188 202 175 c 0,249,250
 210 160 210 160 218 160 c 0,251,252
 224 160 224 160 229 164 c 2,253,-1
 242 170 l 2,254,255
 245 172 245 172 248 174 c 128,-1,256
 251 176 251 176 253 178 c 0,257,258
 259 181 259 181 264 181 c 0,259,260
 270 181 270 181 297 118 c 256,261,262
 324 55 324 55 344 55 c 0,199,200
346 295 m 0,263,264
 331 295 331 295 331 309 c 0,265,266
 331 316 331 316 334 329 c 256,267,268
 337 342 337 342 337 373 c 0,269,270
 337 395 337 395 333 401.5 c 128,-1,271
 329 408 329 408 316 410 c 0,272,273
 310 411 310 411 301 411.5 c 128,-1,274
 292 412 292 412 292 423 c 256,275,276
 292 434 292 434 303 436 c 128,-1,277
 314 438 314 438 318 438 c 0,278,279
 335 438 335 438 350 423.5 c 128,-1,280
 365 409 365 409 365 380 c 0,281,282
 365 359 365 359 364 343 c 128,-1,283
 363 327 363 327 361 316 c 0,284,285
 358 295 358 295 346 295 c 0,263,264
264 377 m 0,286,287
 260 377 260 377 239 389 c 0,288,289
 217 400 217 400 203 400 c 0,290,291
 187 400 187 400 175 395 c 0,292,293
 162 390 162 390 157 390 c 0,294,295
 143 390 143 390 143 404 c 0,296,297
 143 415 143 415 165 421.5 c 128,-1,298
 187 428 187 428 204 428 c 0,299,300
 218 428 218 428 236.5 421.5 c 128,-1,301
 255 415 255 415 268.5 406.5 c 128,-1,302
 282 398 282 398 282 391 c 0,303,304
 282 383 282 383 276.5 380 c 128,-1,305
 271 377 271 377 264 377 c 0,286,287
197 301 m 256,306,307
 174 301 174 301 160.5 313.5 c 128,-1,308
 147 326 147 326 147 341 c 0,309,310
 147 357 147 357 160.5 369 c 128,-1,311
 174 381 174 381 197 381 c 256,312,313
 220 381 220 381 233.5 369 c 128,-1,314
 247 357 247 357 247 341 c 0,315,316
 247 326 247 326 233.5 313.5 c 128,-1,317
 220 301 220 301 197 301 c 256,306,307
197 326 m 0,318,319
 205 326 205 326 212 330 c 128,-1,320
 219 334 219 334 219 341 c 0,321,322
 219 349 219 349 212 352.5 c 128,-1,323
 205 356 205 356 197 356 c 0,324,325
 190 356 190 356 182.5 352.5 c 128,-1,326
 175 349 175 349 175 341 c 0,327,328
 175 334 175 334 182.5 330 c 128,-1,329
 190 326 190 326 197 326 c 0,318,319
EndSplineSet
EndChar
StartChar: u101E2
Encoding: 66018 66018 1750
Width: 583
GlyphClass: 2
Flags: W
AnchorPoint: "Anchor-0" 350 40 basechar 0
LayerCount: 2
Fore
SplineSet
331 24 m 1,0,-1
 329 25 l 1,1,-1
 322 36 l 1,2,-1
 55 668 l 1,3,-1
 51 683 l 2,4,5
 51 685 51 685 63 691 c 128,-1,6
 75 697 75 697 91 704.5 c 128,-1,7
 107 712 107 712 120 717 c 128,-1,8
 133 722 133 722 134 722 c 2,9,-1
 136 721 l 1,10,-1
 144 709 l 1,11,-1
 314 305 l 1,12,-1
 440 602 l 2,13,14
 446 616 446 616 450 616 c 2,15,-1
 462 612 l 1,16,-1
 519 586 l 2,17,18
 532 580 532 580 532 574 c 2,19,-1
 529 563 l 1,20,-1
 371 188 l 1,21,-1
 369 179 l 1,22,-1
 415 65 l 1,23,-1
 415 63 l 1,24,-1
 408 58 l 1,25,-1
 331 24 l 1,0,-1
342 60 m 1,26,-1
 381 77 l 1,27,28
 340 177 340 177 340 182 c 2,29,-1
 344 199 l 1,30,-1
 500 564 l 1,31,-1
 461 581 l 1,32,-1
 321 255 l 1,33,-1
 313 244 l 1,34,-1
 306 255 l 1,35,-1
 123 687 l 1,36,-1
 84 670 l 1,37,-1
 342 60 l 1,26,-1
EndSplineSet
EndChar
StartChar: u101E3
Encoding: 66019 66019 1752
Width: 470
GlyphClass: 2
Flags: W
AnchorPoint: "Anchor-0" 245 -10 basechar 0
LayerCount: 2
Fore
SplineSet
138 7 m 1,0,-1
 138 21 l 2,1,2
 138 53 138 53 124 83.5 c 128,-1,3
 110 114 110 114 72 144 c 256,4,5
 34 174 34 174 17 232.5 c 128,-1,6
 0 291 0 291 0 363 c 0,7,8
 0 437 0 437 19.5 502 c 128,-1,9
 39 567 39 567 74.5 616.5 c 128,-1,10
 110 666 110 666 159 694 c 128,-1,11
 208 722 208 722 267 722 c 0,12,13
 279 722 279 722 288.5 720.5 c 128,-1,14
 298 719 298 719 305 717 c 0,15,16
 319 712 319 712 319 705 c 0,17,18
 318 701 318 701 316 697.5 c 128,-1,19
 314 694 314 694 312 690 c 0,20,21
 298 667 298 667 286 635.5 c 128,-1,22
 274 604 274 604 274 582 c 0,23,24
 274 539 274 539 321 500 c 256,25,26
 368 461 368 461 394 422 c 128,-1,27
 420 383 420 383 420 323 c 0,28,29
 420 261 420 261 399.5 209.5 c 128,-1,30
 379 158 379 158 337 120 c 256,31,32
 295 82 295 82 295 55 c 2,33,-1
 301 7 l 1,34,-1
 138 7 l 1,0,-1
95 598 m 1,35,36
 190 661 190 661 273 673 c 1,37,-1
 284 692 l 1,38,39
 279 693 279 693 273.5 693 c 128,-1,40
 268 693 268 693 263 694 c 0,41,42
 160 694 160 694 95 598 c 1,35,36
45 484 m 1,43,44
 82 514 82 514 127 540 c 128,-1,45
 172 566 172 566 246 584 c 1,46,47
 246 607 246 607 259 642 c 1,48,49
 200 631 200 631 152.5 602 c 128,-1,50
 105 573 105 573 65 544 c 1,51,-1
 45 484 l 1,43,44
28 380 m 1,52,53
 79 422 79 422 118.5 446 c 128,-1,54
 158 470 158 470 195 484 c 128,-1,55
 232 498 232 498 274 506 c 1,56,57
 254 530 254 530 248 555 c 1,58,59
 214 547 214 547 185.5 536 c 128,-1,60
 157 525 157 525 122 503 c 128,-1,61
 87 481 87 481 35 441 c 1,62,-1
 28 380 l 1,52,53
32 292 m 1,63,64
 80 340 80 340 124.5 370 c 128,-1,65
 169 400 169 400 218.5 418 c 128,-1,66
 268 436 268 436 333 449 c 1,67,-1
 313 468 l 1,68,-1
 297 481 l 1,69,70
 242 472 242 472 202.5 457 c 128,-1,71
 163 442 163 442 131 422 c 0,72,73
 114 412 114 412 88.5 392 c 128,-1,74
 63 372 63 372 28 343 c 1,75,-1
 32 292 l 1,63,64
53 214 m 1,76,-1
 59 219 l 2,77,78
 108 260 108 260 141.5 285.5 c 128,-1,79
 175 311 175 311 203 327 c 128,-1,80
 231 343 231 343 265 354 c 0,81,82
 316 371 316 371 384 375 c 1,83,84
 374 404 374 404 356 425 c 1,85,86
 287 413 287 413 235.5 393.5 c 128,-1,87
 184 374 184 374 143 347 c 0,88,89
 123 334 123 334 96.5 311.5 c 128,-1,90
 70 289 70 289 38 259 c 1,91,-1
 53 214 l 1,76,-1
102 155 m 1,92,93
 153 206 153 206 195.5 237 c 128,-1,94
 238 268 238 268 284 281.5 c 128,-1,95
 330 295 330 295 391 295 c 1,96,-1
 392 323 l 1,97,-1
 390 347 l 1,98,99
 322 341 322 341 271.5 324.5 c 128,-1,100
 221 308 221 308 185 285 c 0,101,102
 166 273 166 273 139.5 250.5 c 128,-1,103
 113 228 113 228 77 197 c 2,104,-1
 68 189 l 1,105,106
 76 178 76 178 102 155 c 1,92,93
145 104 m 1,107,108
 237 196 237 196 341 200 c 0,109,110
 347 200 347 200 353.5 199.5 c 128,-1,111
 360 199 360 199 366 199 c 1,112,113
 381 229 381 229 387 266 c 1,114,115
 384 266 384 266 380.5 266.5 c 128,-1,116
 377 267 377 267 374 267 c 0,117,118
 335 267 335 267 299 258 c 128,-1,119
 263 249 263 249 220.5 220.5 c 128,-1,120
 178 192 178 192 122 135 c 1,121,122
 138 119 138 119 145 104 c 1,107,108
163 52 m 1,123,124
 241 109 241 109 292 115 c 1,125,-1
 348 171 l 1,126,127
 253 171 253 171 158 76 c 1,128,-1
 163 52 l 1,123,124
187 35 m 1,129,-1
 268 35 l 1,130,-1
 267 47 l 1,131,-1
 267 61 l 1,132,-1
 270 81 l 1,133,134
 250 74 250 74 229.5 62.5 c 128,-1,135
 209 51 209 51 187 35 c 1,129,-1
EndSplineSet
EndChar
StartChar: u101E5
Encoding: 66021 66021 1756
Width: 467
GlyphClass: 2
Flags: W
AnchorPoint: "Anchor-0" 374 -20 basechar 0
LayerCount: 2
Fore
SplineSet
352 0 m 2,0,1
 318 0 318 0 300 38 c 128,-1,2
 282 76 282 76 264 143 c 0,3,4
 255 176 255 176 250 199 c 128,-1,5
 245 222 245 222 243 236 c 1,6,7
 233 204 233 204 219 168.5 c 128,-1,8
 205 133 205 133 190 101.5 c 128,-1,9
 175 70 175 70 162.5 47 c 128,-1,10
 150 24 150 24 144 17 c 0,11,12
 131 3 131 3 111 3 c 2,13,-1
 92 3 l 2,14,15
 71 3 71 3 60.5 13.5 c 128,-1,16
 50 24 50 24 50 37 c 0,17,18
 50 47 50 47 57 54 c 2,19,-1
 75 79 l 1,20,-1
 137 195 l 2,21,22
 194 302 194 302 194 327 c 0,23,24
 194 350 194 350 170 448 c 0,25,26
 146 544 146 544 146 633 c 2,27,-1
 146 664 l 2,28,29
 146 694 146 694 163 705 c 256,30,31
 180 716 180 716 244 716 c 0,32,33
 297 716 297 716 315 710 c 256,34,35
 333 704 333 704 339 684 c 0,36,37
 342 674 342 674 344 656 c 128,-1,38
 346 638 346 638 346 612 c 0,39,40
 346 558 346 558 337 495 c 128,-1,41
 328 432 328 432 309 361 c 0,42,43
 299 328 299 328 299 318 c 0,44,45
 299 295 299 295 322 234 c 0,46,47
 333 205 333 205 350.5 165.5 c 128,-1,48
 368 126 368 126 394 78 c 0,49,50
 417 35 417 35 417 20 c 0,51,52
 417 0 417 0 380 0 c 2,53,-1
 352 0 l 2,0,1
352 28 m 2,54,-1
 378 28 l 1,55,-1
 385 30 l 1,56,-1
 368 66 l 2,57,58
 320 167 320 167 295.5 229.5 c 128,-1,59
 271 292 271 292 271 318 c 0,60,61
 271 328 271 328 276.5 352.5 c 128,-1,62
 282 377 282 377 293 417 c 256,63,64
 304 457 304 457 310.5 507.5 c 128,-1,65
 317 558 317 558 317 596 c 2,66,-1
 317 618 l 1,67,-1
 314 667 l 2,68,69
 314 682 314 682 297 685 c 256,70,71
 280 688 280 688 244 688 c 0,72,73
 227 688 227 688 214 687.5 c 128,-1,74
 201 687 201 687 192 685 c 0,75,76
 174 680 174 680 174 662 c 2,77,-1
 174 633 l 2,78,79
 174 539 174 539 207 413 c 0,80,81
 222 356 222 356 222 327 c 0,82,83
 222 307 222 307 206 273.5 c 128,-1,84
 190 240 190 240 162 185 c 2,85,-1
 116 94 l 1,86,-1
 103 72 l 2,87,88
 93 56 93 56 87 52 c 0,89,90
 82 50 82 50 82 43 c 0,91,92
 82 31 82 31 100 31 c 2,93,-1
 109 31 l 2,94,95
 120 31 120 31 147 81 c 0,96,97
 165 114 165 114 182.5 154 c 128,-1,98
 200 194 200 194 212.5 227 c 128,-1,99
 225 260 225 260 229 274 c 0,100,101
 235 295 235 295 245 295 c 0,102,103
 259 295 259 295 268 251 c 2,104,-1
 279 199 l 1,105,-1
 297 131 l 2,106,107
 303 108 303 108 310.5 89.5 c 128,-1,108
 318 71 318 71 325 57 c 0,109,110
 339 28 339 28 352 28 c 2,54,-1
EndSplineSet
EndChar
StartChar: u101E9
Encoding: 66025 66025 1764
Width: 315
GlyphClass: 2
Flags: W
AnchorPoint: "Anchor-0" 198 0 basechar 0
LayerCount: 2
Fore
SplineSet
162 5 m 0,0,1
 142 5 142 5 127.5 6.5 c 128,-1,2
 113 8 113 8 103 9 c 0,3,4
 84 12 84 12 80 19 c 0,5,6
 50 72 50 72 50 118 c 0,7,8
 50 144 50 144 62.5 168 c 128,-1,9
 75 192 75 192 99 218 c 0,10,11
 123 245 123 245 123 253 c 0,12,13
 123 257 123 257 121.5 263.5 c 128,-1,14
 120 270 120 270 115 279 c 0,15,16
 91 328 91 328 79.5 366 c 128,-1,17
 68 404 68 404 68 431 c 0,18,19
 68 538 68 538 133 639 c 0,20,21
 148 662 148 662 167 683 c 128,-1,22
 186 704 186 704 204 717.5 c 128,-1,23
 222 731 222 731 233 731 c 0,24,25
 241 731 241 731 241 719 c 0,26,27
 241 696 241 696 217 644 c 0,28,29
 164 527 164 527 164 477 c 0,30,31
 164 436 164 436 184 403 c 128,-1,32
 204 370 204 370 229 336 c 256,33,34
 254 302 254 302 254 267 c 0,35,36
 254 236 254 236 244 210 c 0,37,38
 234 186 234 186 234 150 c 0,39,40
 234 71 234 71 260 32 c 0,41,42
 262 30 262 30 263 27 c 128,-1,43
 264 24 264 24 265 22 c 0,44,45
 265 5 265 5 162 5 c 0,0,1
150 33 m 2,46,-1
 164 33 l 2,47,48
 205 33 205 33 226 36 c 1,49,50
 216 59 216 59 211 87.5 c 128,-1,51
 206 116 206 116 206 150 c 0,52,53
 206 187 206 187 216 210 c 0,54,55
 226 234 226 234 226 267 c 0,56,57
 226 298 226 298 200 333 c 256,58,59
 174 368 174 368 155 401 c 128,-1,60
 136 434 136 434 136 477 c 0,61,62
 136 502 136 502 147 540 c 128,-1,63
 158 578 158 578 176 619 c 128,-1,64
 194 660 194 660 215 696 c 1,65,66
 181 664 181 664 154 619.5 c 128,-1,67
 127 575 127 575 111.5 526.5 c 128,-1,68
 96 478 96 478 96 431 c 0,69,70
 96 410 96 410 103 385 c 128,-1,71
 110 360 110 360 124 330 c 0,72,73
 151 270 151 270 151 253 c 0,74,75
 151 234 151 234 133 215 c 256,76,77
 115 196 115 196 96.5 171 c 128,-1,78
 78 146 78 146 78 118 c 0,79,80
 78 92 78 92 102 37 c 1,81,82
 108 36 108 36 120 34.5 c 128,-1,83
 132 33 132 33 150 33 c 2,46,-1
EndSplineSet
EndChar
StartChar: u101F5
Encoding: 66037 66037 1788
Width: 627
GlyphClass: 2
Flags: W
AnchorPoint: "Anchor-0" 444 50 basechar 0
LayerCount: 2
Fore
SplineSet
341 -7 m 0,0,1
 310 -7 310 -7 279.5 15.5 c 128,-1,2
 249 38 249 38 236 68 c 1,3,4
 209 37 209 37 162 37 c 0,5,6
 126 37 126 37 110.5 59.5 c 128,-1,7
 95 82 95 82 95 135 c 0,8,9
 95 160 95 160 118 178 c 1,10,11
 76 188 76 188 63 217 c 128,-1,12
 50 246 50 246 50 286 c 0,13,14
 50 298 50 298 62 312 c 128,-1,15
 74 326 74 326 90.5 336 c 128,-1,16
 107 346 107 346 119 346 c 2,17,-1
 127 345 l 1,18,19
 105 373 105 373 105 423 c 0,20,21
 105 441 105 441 115.5 460.5 c 128,-1,22
 126 480 126 480 141 493.5 c 128,-1,23
 156 507 156 507 170 507 c 0,24,25
 195 507 195 507 229 484 c 1,26,-1
 228 499 l 2,27,28
 228 554 228 554 310 554 c 0,29,30
 341 554 341 554 350 544.5 c 128,-1,31
 359 535 359 535 361 516 c 0,32,33
 362 498 362 498 373 468 c 1,34,35
 402 487 402 487 435 487 c 0,36,37
 475 487 475 487 495 465.5 c 128,-1,38
 515 444 515 444 515 412 c 0,39,40
 515 378 515 378 489 346 c 1,41,42
 577 334 577 334 577 276 c 0,43,44
 577 242 577 242 545 226 c 128,-1,45
 513 210 513 210 473 210 c 0,46,47
 456 210 456 210 439 212 c 128,-1,48
 422 214 422 214 406 218 c 1,49,-1
 428 204 l 2,50,51
 465 184 465 184 485.5 167 c 128,-1,52
 506 150 506 150 506 128 c 0,53,54
 506 102 506 102 488.5 77.5 c 128,-1,55
 471 53 471 53 446 53 c 0,56,57
 402 53 402 53 374 80 c 1,58,-1
 374 77 l 1,59,-1
 377 59 l 2,60,61
 378 53 378 53 379.5 46.5 c 128,-1,62
 381 40 381 40 381 34 c 0,63,64
 381 -7 381 -7 341 -7 c 0,0,1
298 320 m 1,65,-1
 307 320 l 1,66,67
 309 324 309 324 316 339 c 128,-1,68
 323 354 323 354 331 374.5 c 128,-1,69
 339 395 339 395 344.5 414 c 128,-1,70
 350 433 350 433 350 445 c 2,71,-1
 345 473 l 1,72,-1
 331 523 l 2,73,74
 328 526 328 526 308 526 c 0,75,76
 256 526 256 526 256 499 c 0,77,78
 256 490 256 490 259 476.5 c 128,-1,79
 262 463 262 463 270 446 c 0,80,81
 283 413 283 413 283 401 c 2,82,-1
 279 362 l 2,83,84
 279 342 279 342 298 320 c 1,65,-1
267 308 m 1,85,-1
 270 310 l 1,86,87
 251 336 251 336 251 362 c 2,88,-1
 255 401 l 2,89,90
 255 405 255 405 251 414 c 0,91,92
 250 418 250 418 247 425.5 c 128,-1,93
 244 433 244 433 240 442 c 0,94,95
 224 459 224 459 204 469 c 128,-1,96
 184 479 184 479 170 479 c 0,97,98
 162 479 162 479 153 469.5 c 128,-1,99
 144 460 144 460 138.5 447 c 128,-1,100
 133 434 133 434 133 423 c 0,101,102
 133 378 133 378 162 350 c 128,-1,103
 191 322 191 322 267 308 c 1,85,-1
345 302 m 1,104,105
 383 307 383 307 415.5 324.5 c 128,-1,106
 448 342 448 342 467.5 365 c 128,-1,107
 487 388 487 388 487 412 c 0,108,109
 487 429 487 429 474 444 c 128,-1,110
 461 459 461 459 435 459 c 0,111,112
 405 459 405 459 377 437 c 1,113,114
 371 394 371 394 335 310 c 1,115,-1
 345 302 l 1,104,105
473 238 m 1,116,117
 549 243 549 243 549 276 c 0,118,119
 549 293 549 293 532 304 c 0,120,121
 524 310 524 310 506 313.5 c 128,-1,122
 488 317 488 317 461 320 c 1,123,124
 418 286 418 286 361 277 c 1,125,-1
 364 263 l 1,126,127
 396 238 396 238 473 238 c 1,116,117
133 204 m 0,128,129
 146 204 146 204 176 213.5 c 128,-1,130
 206 223 206 223 237 245 c 1,131,-1
 241 249 l 1,132,-1
 241 258 l 2,133,134
 241 272 241 272 247 284 c 1,135,-1
 195 299 l 1,136,137
 144 318 144 318 119 318 c 0,138,139
 112 318 112 318 102 311 c 128,-1,140
 92 304 92 304 84.5 295.5 c 128,-1,141
 77 287 77 287 77 282 c 0,142,143
 77 249 77 249 86 232.5 c 128,-1,144
 95 216 95 216 108 210 c 128,-1,145
 121 204 121 204 133 204 c 0,128,129
302 225 m 256,146,147
 316 225 316 225 326 234.5 c 128,-1,148
 336 244 336 244 336 258 c 256,149,150
 336 272 336 272 326 282 c 128,-1,151
 316 292 316 292 302 292 c 256,152,153
 288 292 288 292 278.5 282 c 128,-1,154
 269 272 269 272 269 258 c 256,155,156
 269 244 269 244 278.5 234.5 c 128,-1,157
 288 225 288 225 302 225 c 256,146,147
446 81 m 0,158,159
 461 81 461 81 469.5 98 c 128,-1,160
 478 115 478 115 478 128 c 0,161,162
 478 138 478 138 463 152 c 0,163,164
 456 159 456 159 444 166 c 128,-1,165
 432 173 432 173 416 181 c 0,166,167
 383 197 383 197 358 232 c 1,168,-1
 352 222 l 1,169,170
 352 156 352 156 376.5 118.5 c 128,-1,171
 401 81 401 81 446 81 c 0,158,159
162 65 m 0,172,173
 177 65 177 65 197 74.5 c 128,-1,174
 217 84 217 84 228 103 c 1,175,-1
 228 110 l 2,176,177
 228 160 228 160 255 218 c 1,178,-1
 252 222 l 1,179,180
 229 202 229 202 196 190 c 0,181,182
 180 184 180 184 166.5 177 c 128,-1,183
 153 170 153 170 144 162 c 0,184,185
 125 145 125 145 123 134 c 0,186,187
 123 87 123 87 133 77 c 0,188,189
 142 65 142 65 162 65 c 0,172,173
341 21 m 0,190,191
 353 21 353 21 353 34 c 2,192,-1
 349 53 l 1,193,-1
 346 77 l 1,194,-1
 347 117 l 1,195,196
 329 154 329 154 326 201 c 1,197,198
 317 197 317 197 302 197 c 256,199,200
 287 197 287 197 279 201 c 1,201,202
 256 153 256 153 256 110 c 0,203,204
 256 86 256 86 268.5 66 c 128,-1,205
 281 46 281 46 300.5 33.5 c 128,-1,206
 320 21 320 21 341 21 c 0,190,191
EndSplineSet
EndChar
